<svg width="16" height="8" viewBox="0 0 16 8" fill="none" xmlns="http://www.w3.org/2000/svg">
<g clip-path="url(#clip0_190_5299)">
<path d="M15.7426 3.37651L12.6051 0.255028C12.2985 -0.0499574 11.7939 -0.0953142 11.4716 0.194031C11.1279 0.501519 11.1176 1.0286 11.4405 1.35016L12.8626 2.76529C13.0232 2.92514 12.9094 3.1979 12.6824 3.1979H7.55429C7.1204 3.1979 6.73178 3.52103 6.70914 3.95208C6.68493 4.41127 7.05217 4.79196 7.50901 4.79196H12.6824C12.9094 4.79196 13.0232 5.06504 12.8626 5.22457L11.4725 6.60779C11.166 6.91278 11.1207 7.41483 11.4109 7.73515C11.7203 8.07704 12.2504 8.08736 12.5733 7.76643L15.7426 4.61303C16.086 4.27176 16.086 3.71778 15.7426 3.37651Z" fill="white"/>
<path d="M4.54066 3.19788H3.61754C3.17515 3.19788 2.81641 3.55479 2.81641 3.9949C2.81641 4.43502 3.17515 4.79193 3.61754 4.79193H4.54066C4.98305 4.79193 5.34148 4.43502 5.34148 3.9949C5.34148 3.55479 4.98305 3.19788 4.54066 3.19788Z" fill="white"/>
<path d="M0.887282 3.19788H0.800817C0.358749 3.19788 0 3.5551 0 3.99522C0 4.43533 0.358749 4.79225 0.800817 4.79225H0.886967C1.32966 4.79225 1.68778 4.43533 1.68778 3.99522C1.68778 3.5551 1.32966 3.19788 0.887282 3.19788Z" fill="white"/>
</g>
<defs>
<clipPath id="clip0_190_5299">
<rect width="16" height="8" fill="white"/>
</clipPath>
</defs>
</svg>
