<svg width="10" height="6" viewBox="0 0 10 6" fill="none" xmlns="http://www.w3.org/2000/svg">
<path d="M0.159761 0.587995L0.487762 0.257995C0.590761 0.154995 0.727761 0.097995 0.874762 0.0979949C1.02176 0.0979949 1.15876 0.154995 1.26176 0.257995L4.99776 3.99499L8.73876 0.253994C8.84176 0.150994 8.97876 0.0939942 9.12476 0.0939942C9.27076 0.0939942 9.40876 0.150994 9.51176 0.253994L9.83976 0.580994C10.0528 0.793994 10.0528 1.14099 9.83976 1.35499L5.38576 5.82499C5.28276 5.92799 5.14576 5.99999 4.99776 5.99999L4.99576 5.99999C4.84876 5.99999 4.71176 5.92699 4.60876 5.82499L0.158762 1.367C0.0567618 1.26399 -0.000238329 1.123 -0.000238341 0.975995C-0.000238354 0.829995 0.0567618 0.690995 0.159761 0.587995Z" fill="#028ECE"/>
</svg>
