<svg width="16" height="17" viewBox="0 0 16 17" fill="none" xmlns="http://www.w3.org/2000/svg">
<path fill-rule="evenodd" clip-rule="evenodd" d="M3.43907 0.0537954C3.27827 0.129053 3.14567 0.281288 3.10108 0.441831C3.08265 0.508197 3.06749 0.710701 3.0674 0.891787L3.0672 1.22102L2.42626 1.23549C1.70886 1.25165 1.52184 1.29118 1.12004 1.51144C0.796426 1.68886 0.414913 2.09124 0.248529 2.43066C-0.0215094 2.98154 0.000428575 2.40771 0.000428575 8.91907C0.000428575 15.4185 -0.0205034 14.8585 0.242363 15.395C0.48407 15.8884 0.952686 16.296 1.50565 16.494L1.78532 16.5941H8H14.2147L14.4743 16.5027C15.2034 16.2461 15.7417 15.6669 15.9426 14.9228C15.9959 14.7254 15.9996 14.3407 15.9996 8.91907C15.9996 2.40586 16.0217 2.98193 15.7505 2.42855C15.5598 2.03954 15.1733 1.65423 14.7826 1.46357C14.4021 1.27788 14.1232 1.2278 13.4696 1.2278H12.9328L12.9326 0.895162C12.9324 0.500051 12.8976 0.355248 12.7673 0.206777C12.4859 -0.113692 11.9492 -0.0460613 11.7656 0.332985C11.7108 0.446342 11.6996 0.533575 11.6996 0.848625V1.2278H8H4.3004V0.848625C4.3004 0.533575 4.28924 0.446342 4.23436 0.332985C4.09637 0.047954 3.7279 -0.0814021 3.43907 0.0537954ZM3.07298 2.84232C3.08765 3.28601 3.1371 3.42322 3.33354 3.56553C3.56979 3.73668 3.87047 3.71987 4.09472 3.52298C4.26876 3.37016 4.3004 3.26433 4.3004 2.83524V2.461H8H11.6996V2.83524C11.6996 3.26433 11.7312 3.37016 11.9053 3.52298C12.1295 3.71987 12.4302 3.73668 12.6665 3.56553C12.8657 3.42118 12.9147 3.28546 12.9273 2.84232L12.9382 2.461H13.4535C13.893 2.461 13.9949 2.47077 14.1461 2.52733C14.3694 2.61087 14.5688 2.8023 14.6803 3.04012L14.7664 3.22364V8.91907V14.6145L14.6816 14.793C14.58 15.0069 14.4049 15.1872 14.2017 15.2873L14.0524 15.3609H8H1.94759L1.7983 15.2873C1.59509 15.1872 1.42004 15.0069 1.31843 14.793L1.23363 14.6145V8.91907C1.23363 3.50876 1.23655 3.21715 1.29191 3.09383C1.38518 2.88616 1.50496 2.73224 1.64584 2.639C1.87833 2.48515 1.97676 2.46574 2.53644 2.46327L3.06035 2.461L3.07298 2.84232ZM4.11487 5.62532C3.62136 5.87502 3.54954 6.51832 3.97451 6.88208C4.61607 7.43122 5.53714 6.66777 5.12246 5.93054C4.98463 5.68552 4.78794 5.56571 4.49898 5.55078C4.31766 5.5414 4.25776 5.55302 4.11487 5.62532ZM7.52943 5.60566C7.2556 5.73271 7.09132 5.99554 7.09132 6.30664C7.09132 6.62685 7.25664 6.87692 7.55235 7.00414C7.85007 7.13223 8.16745 7.06457 8.40205 6.82299C8.86415 6.3472 8.51453 5.54218 7.84692 5.54471C7.73376 5.54513 7.60771 5.56934 7.52943 5.60566ZM10.8957 5.61092C10.2105 5.95868 10.4046 6.99953 11.1664 7.06268C11.6499 7.1028 12.0223 6.72336 11.9827 6.23092C11.9631 5.9861 11.8596 5.81345 11.6399 5.65901C11.5221 5.57626 11.465 5.55971 11.2676 5.55091C11.0787 5.54254 11.0079 5.55396 10.8957 5.61092ZM7.70792 8.62664C7.47079 8.67091 7.27092 8.82411 7.15568 9.04992C7.05189 9.2534 7.07205 9.60035 7.19878 9.79185C7.38139 10.0678 7.71059 10.196 8.03943 10.1193C8.26523 10.0666 8.51801 9.82057 8.5823 9.59097C8.73434 9.04791 8.25913 8.52383 7.70792 8.62664ZM11.0936 8.63135C10.9032 8.6649 10.7825 8.73458 10.6534 8.88551C10.2988 9.29971 10.4702 9.92173 10.9892 10.1049C11.4741 10.2759 11.9917 9.90287 11.9917 9.38223C11.9917 9.17236 11.9258 9.00403 11.7872 8.85952C11.6031 8.66759 11.3536 8.58552 11.0936 8.63135ZM4.11305 8.69567C3.75237 8.87422 3.59004 9.35335 3.76957 9.70945C3.90837 9.98481 4.15157 10.1336 4.46266 10.1336C4.82558 10.1336 5.09351 9.93085 5.1959 9.57864C5.24097 9.42355 5.24328 9.36753 5.2105 9.22107C5.16198 9.00429 5.01037 8.80156 4.82266 8.70248C4.63005 8.60084 4.31088 8.59776 4.11305 8.69567ZM4.23549 11.7257C4.04711 11.7864 3.86252 11.9405 3.77438 12.1107C3.67251 12.3073 3.67617 12.6199 3.78259 12.8123C3.8878 13.0025 4.09433 13.1559 4.31033 13.2042C4.83415 13.3215 5.32772 12.8279 5.2105 12.3041C5.11217 11.8646 4.65189 11.5916 4.23549 11.7257ZM7.61777 11.7237C7.15133 11.8746 6.94509 12.4113 7.18962 12.8377C7.50691 13.3909 8.28127 13.3401 8.54906 12.7485C8.80907 12.1741 8.22204 11.5281 7.61777 11.7237ZM11.0668 11.7063C10.4987 11.8541 10.274 12.5284 10.6529 12.9478C10.8215 13.1344 10.9936 13.2138 11.229 13.2138C12.0316 13.2138 12.289 12.1418 11.574 11.777C11.4209 11.6989 11.2087 11.6693 11.0668 11.7063Z" fill="#028ECE"/>
</svg>
