<svg width="26" height="26" viewBox="0 0 26 26" fill="none" xmlns="http://www.w3.org/2000/svg">
<path d="M13 0C5.8318 0 0 5.8318 0 13C0 20.1682 5.8318 26 13 26C20.1682 26 26 20.1682 26 13C26 5.8318 20.1682 0 13 0ZM13 23.6364C7.13503 23.6364 2.36364 18.8649 2.36364 13C2.36364 7.13511 7.13503 2.36364 13 2.36364C18.865 2.36364 23.6364 7.13511 23.6364 13C23.6364 18.8649 18.8649 23.6364 13 23.6364Z" fill="#33C1CC"/>
<path fill-rule="evenodd" clip-rule="evenodd" d="M13 0.3C5.99749 0.3 0.3 5.99749 0.3 13C0.3 20.0025 5.99749 25.7 13 25.7C20.0025 25.7 25.7 20.0025 25.7 13C25.7 5.99749 20.0025 0.3 13 0.3ZM13 23.9364C6.96934 23.9364 2.06364 19.0306 2.06364 13C2.06364 6.96942 6.96934 2.06364 13 2.06364C19.0307 2.06364 23.9364 6.96942 23.9364 13C23.9364 19.0306 19.0306 23.9364 13 23.9364ZM0 13C0 5.8318 5.8318 0 13 0C20.1682 0 26 5.8318 26 13C26 20.1682 20.1682 26 13 26C5.8318 26 0 20.1682 0 13ZM2.36364 13C2.36364 18.8649 7.13503 23.6364 13 23.6364C18.8649 23.6364 23.6364 18.8649 23.6364 13C23.6364 7.13511 18.865 2.36364 13 2.36364C7.13503 2.36364 2.36364 7.13511 2.36364 13Z" fill="#F2F6FF"/>
<path d="M17.8749 8.40373L11.1895 15.0891L8.12539 12.025C7.66393 11.5635 6.9156 11.5634 6.45406 12.0249C5.99253 12.4864 5.99253 13.2347 6.45406 13.6962L10.3538 17.5961C10.5754 17.8177 10.876 17.9423 11.1894 17.9423C11.1895 17.9423 11.1894 17.9423 11.1895 17.9423C11.5029 17.9423 11.8035 17.8177 12.0251 17.5961L19.5463 10.0751C20.0078 9.6136 20.0078 8.86535 19.5463 8.40381C19.0847 7.94227 18.3365 7.94219 17.8749 8.40373Z" fill="#33C1CC"/>
<path fill-rule="evenodd" clip-rule="evenodd" d="M11.1895 15.5134L7.91326 12.2371C7.56895 11.8928 7.01057 11.8927 6.6662 12.237C6.32181 12.5814 6.32181 13.1397 6.6662 13.4841L10.5659 17.3839C10.7313 17.5493 10.9556 17.6423 11.1894 17.6423C11.4232 17.6423 11.6476 17.5493 11.813 17.384L19.3341 9.863C19.6785 9.51862 19.6785 8.96032 19.3341 8.61594C18.9897 8.27154 18.4314 8.27151 18.0871 8.61586L17.8749 8.40373C18.3365 7.94219 19.0847 7.94227 19.5463 8.40381C20.0078 8.86535 20.0078 9.6136 19.5463 10.0751L12.0251 17.5961C11.8035 17.8177 11.5029 17.9423 11.1895 17.9423C10.876 17.9423 10.5754 17.8177 10.3538 17.5961L6.45406 13.6962C5.99253 13.2347 5.99253 12.4864 6.45406 12.0249C6.9156 11.5634 7.66393 11.5635 8.12539 12.025L11.1895 15.0891L17.8749 8.40373L18.0871 8.61586L11.1895 15.5134Z" fill="#F2F6FF"/>
</svg>
