<svg width="30" height="31" viewBox="0 0 30 31" fill="none" xmlns="http://www.w3.org/2000/svg">
<path fill-rule="evenodd" clip-rule="evenodd" d="M13.5613 0.0363773C10.0067 0.404682 6.82776 1.91995 4.31986 4.4413C1.98994 6.78378 0.564466 9.70978 0.0737256 13.1572C-0.0245752 13.848 -0.0245752 16.1659 0.0737256 16.8567C0.574097 20.3715 2.01214 23.2774 4.43924 25.6778C6.82988 28.0422 9.69352 29.4411 13.1503 29.9332C13.8357 30.0307 16.1571 30.0314 16.8497 29.9343C20.5405 29.4165 23.6065 27.8254 26.0903 25.139C28.1516 22.9094 29.4698 20.0631 29.9263 16.8567C30.0246 16.1659 30.0246 13.848 29.9263 13.1572C29.5789 10.717 28.8061 8.64251 27.5224 6.70368C26.9764 5.87922 26.4315 5.21408 25.6716 4.44447C23.3346 2.07785 20.4216 0.609211 17.0846 0.115124C16.3646 0.00848431 14.28 -0.0380823 13.5613 0.0363773ZM16.6829 1.5914C18.2391 1.7954 19.6012 2.20516 20.9603 2.87829C22.4482 3.6152 23.5748 4.43701 24.7221 5.62267C27.1871 8.16997 28.5061 11.4412 28.5061 15.0069C28.5061 18.537 27.2107 21.7849 24.7926 24.3175C23.6423 25.5223 22.516 26.3537 21.0072 27.1117C19.1241 28.0577 17.1722 28.513 15 28.513C11.2561 28.513 7.83538 27.0518 5.22277 24.3366C2.80783 21.8268 1.49392 18.5394 1.49392 15.0069C1.49392 12.8546 1.9388 10.9297 2.87136 9.04664C3.61214 7.55081 4.44423 6.41271 5.63165 5.27116C7.74665 3.23791 10.3351 1.991 13.2677 1.59269C14.0901 1.481 15.8358 1.48035 16.6829 1.5914ZM10.9775 10.6001C10.663 10.7302 10.4721 11.1569 10.564 11.5245C10.591 11.6328 11.1706 12.257 12.2571 13.348L13.909 15.0069L12.2571 16.6658C11.1706 17.7568 10.591 18.3811 10.564 18.4894C10.4163 19.0803 10.9266 19.5907 11.5175 19.443C11.6258 19.4159 12.2501 18.8363 13.3411 17.7498L15 16.0979L16.6589 17.7498C17.7499 18.8363 18.3742 19.4159 18.4825 19.443C19.0734 19.5907 19.5837 19.0803 19.436 18.4894C19.409 18.3811 18.8294 17.7568 17.7429 16.6658L16.091 15.0069L17.7426 13.348C19.4999 11.5828 19.5352 11.5357 19.4363 11.0854C19.356 10.7195 18.8911 10.4688 18.4825 10.5709C18.3742 10.598 17.7496 11.1778 16.658 12.265L14.9981 13.9179L13.3989 12.327C12.5193 11.452 11.7343 10.6929 11.6544 10.6401C11.5008 10.5384 11.1734 10.519 10.9775 10.6001Z" fill="#7E83AE"/>
</svg>
