<svg width="60" height="50" viewBox="0 0 60 50" fill="none" xmlns="http://www.w3.org/2000/svg">
<path d="M15.8203 27.9959C10.974 27.9959 7.03125 31.9387 7.03125 36.785C7.03125 41.6313 10.974 45.574 15.8203 45.574C20.6666 45.574 24.6094 41.6313 24.6094 36.785C24.6094 31.9387 20.6666 27.9959 15.8203 27.9959ZM15.8203 43.8162C11.9433 43.8162 8.78906 40.662 8.78906 36.785C8.78906 32.9079 11.9433 29.7537 15.8203 29.7537C19.6973 29.7537 22.8516 32.9079 22.8516 36.785C22.8516 40.662 19.6973 43.8162 15.8203 43.8162Z" fill="white"/>
<path d="M57.3633 31.5115H55.2962C53.4374 27.6083 49.5817 24.8322 45.0587 24.5113V23.6012C45.0587 22.1474 43.8759 20.9645 42.422 20.9645H36.2696C34.8157 20.9645 33.6329 22.1473 33.6329 23.6012V30.445C33.2289 31.116 32.8934 31.8215 32.6262 32.5508H30.8789V13.1512C32.7305 12.885 34.3186 11.7924 35.2547 10.2592H38.9064V8.50139H35.9808C36.0919 8.03956 36.1523 7.55815 36.1523 7.06257C36.1523 6.33401 36.0243 5.63487 35.7907 4.98577H46.8164V8.50139H44.1797V10.2592H56.4844C58.4229 10.2592 60 8.6821 60 6.74358C60 4.80507 58.4229 3.22796 56.4844 3.22796H34.8059C33.6776 1.81678 31.9432 0.910339 30 0.910339C28.0568 0.910339 26.3224 1.81678 25.1941 3.22807H3.51562C1.57711 3.22807 0 4.80518 0 6.7437C0 8.68221 1.57711 10.2593 3.51562 10.2593H24.7453C25.6814 11.7925 27.2695 12.8851 29.1211 13.1513V32.5511H27.3739C27.1066 31.8217 26.7712 31.1162 26.3672 30.4452V23.6015C26.3672 22.1476 25.1844 20.9648 23.7305 20.9648H17.5781C16.1243 20.9648 14.9414 22.1475 14.9414 23.6015V24.5116C10.4184 24.8324 6.56262 27.6086 4.70379 31.5117H2.63672C1.18277 31.5117 0 32.6945 0 34.1485V39.4219C0 40.8757 1.18277 42.0586 2.63672 42.0586H4.70379C6.68203 46.2124 10.9213 49.0899 15.8203 49.0899C20.5165 49.0899 24.6061 46.4449 26.6793 42.5669C27.6175 43.3071 28.7747 43.7169 30 43.7169C31.2253 43.7169 32.3827 43.3071 33.3207 42.5669C35.3939 46.4449 39.4834 49.0899 44.1797 49.0899C49.0786 49.0899 53.3178 46.2124 55.2961 42.0586H57.3633C58.8172 42.0586 60 40.8758 60 39.4219V34.1485C60 32.6944 58.8172 31.5115 57.3633 31.5115ZM48.5742 4.98577H50.332V8.50139H48.5742V4.98577ZM58.2422 6.74358C58.2422 7.71284 57.4536 8.50139 56.4844 8.50139H52.0898V4.98577H56.4844C57.4536 4.98577 58.2422 5.77432 58.2422 6.74358ZM11.4258 4.98577V8.50139H9.66797V4.98577H11.4258ZM1.75781 6.74358C1.75781 5.77432 2.54637 4.98577 3.51562 4.98577H7.91016V8.50139H3.51562C2.54637 8.50139 1.75781 7.71284 1.75781 6.74358ZM13.1836 8.50139V4.98577H24.2093C23.9757 5.63499 23.8477 6.33401 23.8477 7.06257C23.8477 7.55803 23.9081 8.03944 24.0192 8.50139H13.1836ZM25.6055 7.06268C25.6055 4.63948 27.5768 2.66815 30 2.66815C32.4232 2.66815 34.3945 4.63948 34.3945 7.06268C34.3945 9.48589 32.4232 11.4572 30 11.4572C27.5768 11.4572 25.6055 9.48577 25.6055 7.06268ZM4.02727 40.3006H2.63672C2.15215 40.3006 1.75781 39.9064 1.75781 39.4217V34.1482C1.75781 33.6637 2.15215 33.2693 2.63672 33.2693H4.02727C3.69445 34.3838 3.51562 35.5637 3.51562 36.785C3.51562 38.0062 3.69434 39.1862 4.02727 40.3006ZM35.3906 23.6014C35.3906 23.1168 35.785 22.7225 36.2695 22.7225H42.4219C42.9066 22.7225 43.3008 23.1167 43.3008 23.6014V24.4803H35.3906V23.6014ZM32.1257 34.3088C32.0181 34.8341 31.9452 35.3677 31.9069 35.906H28.0931C28.0548 35.3676 27.9819 34.8341 27.8743 34.3088H32.1257ZM15.8203 47.3318C10.0048 47.3318 5.27344 42.6005 5.27344 36.785C5.27344 30.9694 10.0048 26.2381 15.8203 26.2381H19.3359V24.4803H16.6992V23.6014C16.6992 23.1168 17.0934 22.7225 17.5781 22.7225H23.7305C24.215 22.7225 24.6094 23.1167 24.6094 23.6014V24.4803H21.0938V26.2381H24.6094V30.9484L24.7451 31.1633C25.8062 32.8443 26.3671 34.7882 26.3671 36.7848C26.3672 42.6005 21.6359 47.3318 15.8203 47.3318ZM30 41.9589C29.021 41.9589 28.1051 41.5697 27.4239 40.8789C27.7839 39.8615 28.0139 38.7832 28.0932 37.6639H31.9068C31.9861 38.7832 32.2161 39.8615 32.5761 40.8789C31.8949 41.5698 30.979 41.9589 30 41.9589ZM44.1797 47.3318C38.3641 47.3318 33.6328 42.6005 33.6328 36.785C33.6328 34.7882 34.1938 32.8444 35.2548 31.1635L35.3905 30.9485V26.2382H44.1796C49.9951 26.2382 54.7264 30.9695 54.7264 36.7851C54.7264 42.6006 49.9952 47.3318 44.1797 47.3318ZM58.2422 39.4218C58.2422 39.9064 57.8479 40.3007 57.3633 40.3007H55.9727C56.3055 39.1862 56.4844 38.0063 56.4844 36.7851C56.4844 35.5639 56.3057 34.3839 55.9727 33.2694H57.3633C57.8479 33.2694 58.2422 33.6638 58.2422 34.1483V39.4218Z" fill="white"/>
<path d="M44.1797 27.9959C39.3334 27.9959 35.3906 31.9387 35.3906 36.785C35.3906 41.6313 39.3334 45.574 44.1797 45.574C49.026 45.574 52.9688 41.6313 52.9688 36.785C52.9688 31.9387 49.026 27.9959 44.1797 27.9959ZM44.1797 43.8162C40.3027 43.8162 37.1484 40.662 37.1484 36.785C37.1484 32.9079 40.3027 29.7537 44.1797 29.7537C48.0567 29.7537 51.2109 32.9079 51.2109 36.785C51.2109 40.662 48.0567 43.8162 44.1797 43.8162Z" fill="white"/>
<path d="M40.6642 8.5014H42.422V10.2592H40.6642V8.5014Z" fill="white"/>
<path d="M29.1211 5.86469H30.8789V7.6225H29.1211V5.86469Z" fill="white"/>
<path d="M46.8164 33.4037H48.5742V35.1615H46.8164V33.4037Z" fill="white"/>
<path d="M43.3008 31.6459H45.0586V33.4037H43.3008V31.6459Z" fill="white"/>
</svg>
