<svg width="44" height="60" viewBox="0 0 44 60" fill="none" xmlns="http://www.w3.org/2000/svg">
<g clip-path="url(#clip0_510_1353)">
<path d="M37.5309 6.53086V4.33333V3.95062C37.5309 1.77778 35.7531 0 33.5802 0H9.87654C7.7037 0 5.92593 1.77778 5.92593 3.95062V4.33333V6.54321V11.2469L1.97531 13.2222V26.0988L9.46914 33.5802H11.7037C12.284 36.8765 12.7531 39.679 12.8148 44.1975H4.93827C2.20988 44.1975 0 46.4074 0 49.1358V56.0494H4.17284L5.16049 60H14.6049L15.5926 56.0494H27.8765L28.8642 60H38.3086L39.2963 56.0494H43.4568V49.1358C43.4568 46.4074 41.2469 44.1975 38.5185 44.1975H30.642C30.7037 39.679 31.1728 36.8765 31.7531 33.5802H33.9877L41.4815 26.0864V13.2222L37.5309 11.2469V6.53086ZM7.90123 3.95062C7.90123 2.8642 8.79012 1.97531 9.87654 1.97531H33.5802C34.6667 1.97531 35.5556 2.8642 35.5556 3.95062V22.716C35.5556 23.8025 34.6667 24.6914 33.5802 24.6914H9.87654C8.79012 24.6914 7.90123 23.8025 7.90123 22.716V3.95062ZM13.0617 58.0247H6.69136L6.19753 56.0494H13.5432L13.0617 58.0247ZM36.7654 58.0247H30.4074L29.9136 56.0494H37.2593L36.7654 58.0247ZM38.5185 46.1728C40.1481 46.1728 41.4815 47.5062 41.4815 49.1358V54.0741H1.97531V52.0988H35.5556V50.1235H1.97531V49.1358C1.97531 47.5062 3.30864 46.1728 4.93827 46.1728H38.5185ZM18.6543 33.5802H24.8025C24.2346 36.9136 23.7778 39.716 23.7161 44.1975H19.7284C19.679 39.716 19.2222 36.9136 18.6543 33.5802ZM39.5062 14.4321V25.2593L33.1728 31.6049H32.1235C32.321 30.6173 32.5309 29.679 32.7284 28.8765L30.8148 28.4074C29.8642 32.2469 28.7531 37.037 28.6667 44.1975H25.7037C25.8025 37.2346 26.8765 32.6173 27.8025 28.8765L25.8889 28.4074C25.6543 29.3457 25.4198 30.4198 25.1852 31.6049H18.3086C18.0741 30.4198 17.8272 29.3457 17.6049 28.4074L15.6914 28.8765C16.6049 32.6173 17.6914 37.2222 17.7901 44.1975H14.8272C14.7284 37.037 13.6173 32.2469 12.679 28.4074L10.7654 28.8765C10.963 29.679 11.1728 30.6049 11.3704 31.6049H10.321L3.95062 25.2716V14.4444L5.92593 13.4568V22.716C5.92593 24.8889 7.7037 26.6667 9.87654 26.6667H33.5802C35.7531 26.6667 37.5309 24.8889 37.5309 22.716V13.4444L39.5062 14.4321Z" fill="#33C1CC"/>
<path d="M39.5061 51.3579H37.5308V53.3332H39.5061V51.3579Z" fill="#33C1CC"/>
<path d="M23.4445 12.2839C23.4445 11.3703 22.7038 10.6172 21.7779 10.6172C20.8643 10.6172 20.1235 11.3579 20.1235 12.2839C20.1235 13.1974 20.8643 13.9505 21.7902 13.9505C22.7038 13.9382 23.4445 13.1974 23.4445 12.2839Z" fill="#33C1CC"/>
<path d="M32.012 12.605C32.2096 12.3828 32.2096 12.0495 32.012 11.8273C31.9627 11.7655 30.8886 10.5557 29.0985 9.33343C26.9503 7.86429 24.4071 6.8396 21.7898 6.8396C19.1725 6.8396 16.6293 7.86429 14.4812 9.33343C12.691 10.5557 11.617 11.7655 11.5676 11.8273L11.7034 11.9507L11.5676 11.8273C11.3701 12.0495 11.3701 12.3828 11.5676 12.605C11.617 12.6668 12.691 13.8766 14.4812 15.0989C16.6293 16.568 19.1725 17.5927 21.7898 17.5927C24.4071 17.5927 26.9503 16.568 29.0985 15.0989C30.8886 13.8766 31.9627 12.6668 32.012 12.605ZM17.5182 8.9754C16.8392 9.87664 16.4318 11.0001 16.4318 12.2223C16.4318 13.4445 16.8392 14.568 17.5182 15.4692C16.6046 15.0618 15.8022 14.5927 15.1478 14.1482L15.0491 14.2964L15.1478 14.1482C14.0614 13.4075 13.2466 12.6668 12.8022 12.2223C13.2466 11.7902 14.0491 11.0495 15.1231 10.3087C15.7898 9.86429 16.6046 9.38281 17.5182 8.9754ZM17.6046 12.2223C17.6046 9.88898 19.4935 8.02479 21.7898 8.02479C24.0985 8.02479 25.975 9.90133 25.975 12.2223C25.975 14.5557 24.0861 16.4199 21.7898 16.4199C19.4812 16.4199 17.6046 14.5433 17.6046 12.2223ZM28.4318 10.2964C29.5182 11.0371 30.333 11.7779 30.7775 12.2223C30.333 12.6544 29.5306 13.3952 28.4565 14.1359C27.8022 14.5803 26.9873 15.0618 26.0738 15.4692C26.7528 14.568 27.1602 13.4445 27.1602 12.2223C27.1602 11.0001 26.7528 9.87664 26.0738 8.9754C26.975 9.38281 27.7775 9.85195 28.4318 10.2964Z" fill="#33C1CC"/>
<path d="M21.79 17.7779C18.716 17.7779 16.0616 16.4075 14.3703 15.247C12.5555 14.0124 11.469 12.7779 11.4197 12.7285C11.2098 12.4816 11.1727 12.1359 11.3085 11.8643V11.8519L11.432 11.7161C11.432 11.7161 11.432 11.7161 11.4443 11.7038L11.5555 11.5803C11.8888 11.2223 12.8888 10.21 14.3826 9.19761C16.074 8.04946 18.7283 6.66675 21.8024 6.66675C24.8765 6.66675 27.5308 8.03712 29.2221 9.19761C31.0246 10.4322 32.1234 11.6667 32.1728 11.7161C32.432 12.0124 32.432 12.4445 32.1728 12.7285C32.1234 12.7779 31.037 14.0124 29.2221 15.247C27.5184 16.4075 24.8641 17.7779 21.79 17.7779ZM11.7036 11.963C11.5678 12.1112 11.5678 12.3458 11.7036 12.4939C11.753 12.5433 12.8024 13.7408 14.5801 14.9507C16.2221 16.0742 18.8024 17.4075 21.79 17.4075C24.7653 17.4075 27.3579 16.0742 28.9999 14.9507C30.7777 13.7408 31.8394 12.5433 31.8765 12.4939C32.0123 12.3458 32.0123 12.1112 31.8765 11.963C31.8271 11.9137 30.7653 10.7161 28.9999 9.50625C27.3579 8.37045 24.7653 7.03712 21.79 7.03712C18.8147 7.03712 16.2221 8.37045 14.5801 9.49391C12.8147 10.7161 11.753 11.9137 11.7036 11.963ZM21.79 16.605C19.3826 16.605 17.4197 14.6421 17.4197 12.2223C17.4197 9.80255 19.3826 7.83959 21.79 7.83959C24.1974 7.83959 26.1604 9.80255 26.1604 12.2223C26.1604 14.6421 24.1974 16.605 21.79 16.605ZM21.79 8.20996C19.5802 8.20996 17.79 10.0124 17.79 12.2223C17.79 14.4322 19.5925 16.2347 21.79 16.2347C23.9876 16.2347 25.79 14.4322 25.79 12.2223C25.79 10.0124 23.9999 8.20996 21.79 8.20996ZM18.0987 15.926L17.4444 15.6421C16.6913 15.3087 15.9258 14.889 15.1974 14.4075L15.074 14.3211C15.0616 14.3211 15.0616 14.3087 15.0493 14.3087C15.0369 14.2964 15.0246 14.2964 15.0122 14.284L14.9011 14.21C13.9135 13.5186 13.1481 12.8272 12.6913 12.3705L12.5555 12.2346L12.6913 12.0988C13.1727 11.6174 13.9752 10.889 15.0369 10.1729C15.8271 9.62971 16.6419 9.18527 17.4567 8.82724L18.111 8.54329L17.6789 9.11119C16.9876 10.0248 16.6295 11.0988 16.6295 12.247C16.6295 13.3828 16.9999 14.4692 17.6789 15.3828L18.0987 15.926ZM15.2592 13.9877C15.8271 14.3705 16.4197 14.7161 16.9999 15.0124C16.5061 14.1729 16.2468 13.21 16.2468 12.2223C16.2468 11.2346 16.5061 10.2717 16.9999 9.43218C16.4073 9.72848 15.8147 10.0742 15.2345 10.4692C14.2839 11.1112 13.5555 11.7655 13.074 12.2223C13.5678 12.6914 14.3085 13.3458 15.2592 13.9877ZM25.4814 15.926L25.9135 15.3581C26.6049 14.4445 26.9629 13.3705 26.9629 12.2223C26.9629 11.0865 26.5925 10.0001 25.9135 9.0865L25.4814 8.5186L26.1357 8.80255C26.9505 9.16058 27.753 9.60502 28.5308 10.1359C29.5925 10.8643 30.4073 11.5927 30.9012 12.0742L31.037 12.21L30.9012 12.3458C30.4197 12.8272 29.6172 13.5556 28.5555 14.2717C27.7653 14.8149 26.9505 15.2593 26.1357 15.6174L25.4814 15.926ZM26.5802 9.43218C27.074 10.284 27.3332 11.2346 27.3332 12.2223C27.3332 13.2223 27.074 14.1729 26.5802 15.0124C27.1728 14.7161 27.7653 14.3705 28.3456 13.9754C29.2962 13.3334 30.0246 12.6791 30.5061 12.2223C30.0246 11.7532 29.2715 11.0988 28.3209 10.4569C27.753 10.0618 27.1728 9.71613 26.5802 9.43218Z" fill="#33C1CC"/>
</g>
<defs>
<clipPath id="clip0_510_1353">
<rect width="43.4568" height="60" fill="white"/>
</clipPath>
</defs>
</svg>
