<svg width="60" height="60" viewBox="0 0 60 60" fill="none" xmlns="http://www.w3.org/2000/svg">
<path fill-rule="evenodd" clip-rule="evenodd" d="M27.8536 0.0318783C27.6278 0.0586158 26.9418 0.134958 26.3291 0.20145C17.8749 1.11873 9.86862 6.06166 4.96569 13.3905C2.59895 16.9283 0.96069 21.1865 0.273372 25.5866C-0.0919238 27.9253 -0.0909856 32.0184 0.275365 34.3818C1.24589 40.6429 3.96925 46.2055 8.24174 50.653C9.1059 51.5527 9.47272 51.6593 9.97522 51.1567C10.4785 50.6535 10.3721 50.3895 9.12173 49.041C6.08913 45.7707 3.71372 41.4135 2.64468 37.1601C1.4008 32.2113 1.4008 27.7572 2.64468 22.8084C4.83435 14.0965 11.6464 6.60121 20.2556 3.43118C21.7534 2.87966 24.2844 2.25051 26.0359 1.99427C27.74 1.74507 31.7984 1.71763 33.4825 1.94408C37.5157 2.4861 41.3171 3.80785 44.5645 5.7971C45.726 6.50845 47.5759 7.83829 47.5041 7.91006C47.479 7.93516 47.0679 7.84603 46.5905 7.71199C45.4371 7.38845 44.9238 7.39302 44.6885 7.72912C44.3328 8.23689 44.505 8.87062 45.0585 9.09085C45.6631 9.33149 51.2106 10.752 51.5455 10.752C51.9168 10.752 52.363 10.2875 52.363 9.90119C52.363 9.60942 49.588 4.13374 49.2156 3.69046C48.889 3.30171 48.5214 3.27427 48.0985 3.60708C47.6637 3.94904 47.7008 4.36547 48.2659 5.48961C48.528 6.01076 48.7248 6.45486 48.7033 6.47632C48.6819 6.4979 48.2828 6.22689 47.8168 5.87426C43.9547 2.95213 39.0469 0.954205 34.0102 0.253987C32.7597 0.0800762 28.6853 -0.0669801 27.8536 0.0318783ZM29.4526 10.526L29.1436 10.769V13.5164C29.1436 16.1073 29.1569 16.277 29.3781 16.4982C29.6768 16.7969 30.2489 16.8001 30.5442 16.5048C30.8786 16.1704 30.9212 15.7478 30.8807 13.1749L30.844 10.8485L30.5149 10.5656C30.1117 10.2192 29.8548 10.2096 29.4526 10.526ZM53.5252 12.965C53.0796 13.3258 53.1693 13.8347 53.8728 14.9349C54.5112 15.9335 54.8818 16.2023 55.3707 16.0214C55.66 15.9144 55.9983 15.4751 55.9983 15.2066C55.9983 14.9385 54.8637 13.1374 54.5617 12.9257C54.2176 12.6848 53.8543 12.6985 53.5252 12.965ZM21.0091 14.2786C20.5358 14.6508 20.5996 15.1127 21.2974 16.3665C21.6259 16.9568 21.9917 17.4917 22.1105 17.5553C22.706 17.874 23.3973 17.4939 23.3973 16.848C23.3973 16.6397 23.1535 16.0616 22.8049 15.4431C22.0028 14.0203 21.6382 13.7839 21.0091 14.2786ZM38.0561 14.1872C37.6971 14.3685 36.5354 16.4187 36.5331 16.8748C36.5301 17.4765 37.2537 17.8575 37.8219 17.5534C38.138 17.3843 39.266 15.3332 39.267 14.9258C39.2676 14.6994 39.1606 14.4925 38.9486 14.3102C38.5842 13.9968 38.4652 13.9804 38.0561 14.1872ZM56.3705 18.4113C56.0339 18.7697 56.0476 18.9953 56.4786 20.1863C56.9828 21.5796 57.4792 21.9442 58.152 21.415C58.3571 21.2537 58.461 21.0592 58.461 20.8367C58.461 20.3394 57.7875 18.5817 57.5063 18.3452C57.1659 18.0588 56.675 18.0874 56.3705 18.4113ZM28.0881 18.8421C21.7312 19.3374 15.851 22.2094 11.8783 26.7593C10.6413 28.176 10.3368 28.8113 10.3386 29.971C10.3405 31.1278 10.5646 31.6268 11.6895 32.9775C15.2153 37.2114 20.6258 40.117 26.5636 40.9654C28.35 41.2207 31.5789 41.2207 33.3653 40.9654C39.3478 40.1107 44.7366 37.2089 48.32 32.9126C49.5497 31.4383 49.8862 30.3335 49.505 29.0219C49.0455 27.4415 46.3053 24.625 43.3569 22.7027C38.9523 19.8311 33.4028 18.428 28.0881 18.8421ZM31.6772 20.6069C37.1075 21.0433 41.9913 23.206 45.6624 26.8001C47.554 28.6519 48.0477 29.4945 47.7936 30.4379C47.4847 31.5851 44.8993 34.1625 42.4537 35.7616C33.7174 41.4736 21.6284 40.3722 14.2981 33.1964C11.8076 30.7583 11.5584 29.9072 12.869 28.3141C16.4349 23.9798 22.2028 21.0654 28.1135 20.6114C29.893 20.4747 30.03 20.4746 31.6772 20.6069ZM29.0263 22.6023C27.371 22.7976 26.0449 23.4659 24.7375 24.7642C23.2344 26.2565 22.5674 27.8612 22.5674 29.9842C22.5674 32.107 23.2323 33.7059 24.7441 35.2176C25.5075 35.9809 25.8945 36.2647 26.6875 36.6422C27.9279 37.2328 28.6514 37.4001 29.9644 37.4001C31.2777 37.4001 31.9998 37.233 33.248 36.6403C35.0846 35.7682 36.6491 33.8681 37.1836 31.8605C37.4513 30.8553 37.4513 29.1131 37.1836 28.1079C36.6491 26.1004 35.0846 24.2002 33.248 23.3281C31.808 22.6443 30.5312 22.4248 29.0263 22.6023ZM58.1907 24.1338C57.8063 24.3574 57.748 24.7638 57.9285 25.9646C58.1182 27.228 58.3253 27.5606 58.9221 27.5606C59.4397 27.5606 59.751 27.2283 59.751 26.6757C59.751 25.7466 59.4995 24.5373 59.2501 24.2673C58.9914 23.987 58.5405 23.9303 58.1907 24.1338ZM31.4975 24.5306C32.4455 24.7986 33.289 25.3082 34.0102 26.0489C34.8628 26.9245 35.318 27.8038 35.5633 29.0482C35.7309 29.8994 35.7309 30.069 35.5633 30.9203C35.318 32.1646 34.8628 33.0439 34.0102 33.9196C32.8999 35.0599 31.5156 35.6504 29.9644 35.6452C28.4152 35.6399 27.0895 35.0836 25.9781 33.9722C24.8497 32.8438 24.3231 31.5749 24.3231 29.9842C24.3231 28.3932 24.8497 27.1246 25.9787 25.9956C27.4686 24.5057 29.5011 23.9662 31.4975 24.5306ZM28.3487 26.7062C27.5787 27.0909 27.0716 27.5898 26.6526 28.375C26.4318 28.7887 26.3883 29.0535 26.3881 29.9842C26.3877 30.9986 26.4187 31.1541 26.7332 31.722C28.2002 34.3702 32.0647 34.255 33.2893 31.5263C33.8925 30.1823 33.6899 29.1633 32.8194 29.1633C32.2979 29.1633 31.9939 29.489 31.8941 30.1547C31.7339 31.2229 30.9908 31.8876 29.9567 31.8876C28.8808 31.8876 28.0881 31.0802 28.0881 29.9842C28.0881 28.9633 28.7698 28.2151 29.8441 28.0568C30.5292 27.9558 30.7853 27.7145 30.7853 27.1698C30.7853 26.5594 30.5096 26.3489 29.7101 26.3489C29.2243 26.3489 28.886 26.4376 28.3487 26.7062ZM58.4804 30.3968C58.305 30.6195 58.2279 30.9614 58.1658 31.7887C58.1206 32.3917 58.1195 32.9982 58.1634 33.1364C58.2862 33.5232 58.8323 33.7588 59.2603 33.6095C59.7114 33.4522 59.8356 33.1169 59.93 31.8013C59.9996 30.8334 59.9847 30.7185 59.7526 30.4234C59.4115 29.9897 58.8103 29.9772 58.4804 30.3968ZM57.8746 36.2319C57.5381 36.3996 57.073 37.6205 56.9712 38.6036C56.9198 39.0986 56.9493 39.225 57.1595 39.4147C57.4692 39.6942 58.0338 39.705 58.3299 39.437C58.4569 39.3221 58.689 38.7413 58.8662 38.095C59.218 36.8124 59.1671 36.4011 58.6314 36.1974C58.252 36.0532 58.2312 36.0541 57.8746 36.2319ZM55.6116 42.1106C55.2383 42.5185 54.4738 44.0874 54.4738 44.4457C54.4738 45.0345 55.2024 45.4125 55.7612 45.1134C56.0401 44.9642 57.0538 43.0631 57.0538 42.6895C57.0538 42.3142 56.5574 41.8285 56.174 41.8285C56.0024 41.8285 55.7572 41.9515 55.6116 42.1106ZM22.0165 42.5028C21.8877 42.6156 21.5388 43.1491 21.2412 43.6881C20.6008 44.8482 20.5454 45.3252 21.0091 45.6898C21.6382 46.1846 22.0028 45.9482 22.8049 44.5253C23.1535 43.9068 23.3973 43.3287 23.3973 43.1204C23.3973 42.418 22.5471 42.0376 22.0165 42.5028ZM36.7882 42.5367C36.4113 42.8878 36.4695 43.2758 37.0674 44.3988C37.6346 45.4641 38.0442 45.9329 38.4079 45.9329C38.7775 45.9329 39.2679 45.4248 39.267 45.0426C39.266 44.6352 38.138 42.5842 37.8219 42.4151C37.4747 42.2292 37.0667 42.2773 36.7882 42.5367ZM29.3781 43.4703C29.1569 43.6914 29.1436 43.8611 29.1436 46.4521V49.1995L29.4526 49.4425C29.8548 49.7588 30.1117 49.7492 30.5149 49.4028L30.844 49.12L30.8807 46.7936C30.9212 44.2207 30.8786 43.798 30.5442 43.4637C30.2489 43.1684 29.6768 43.1716 29.3781 43.4703ZM52.6101 47.1367C52.4557 47.2163 52.0169 47.6592 51.6351 48.1211C51.1347 48.7259 50.9378 49.062 50.9303 49.3234C50.9161 49.8224 51.2456 50.1546 51.7548 50.1546C52.0949 50.1546 52.254 50.0586 52.6783 49.5976C53.8546 48.319 54.0522 47.7465 53.4851 47.2588C53.1271 46.9508 53.0036 46.9336 52.6101 47.1367ZM47.499 52.1536C47.0083 52.5435 46.5496 52.9881 46.4797 53.1417C46.2905 53.5569 46.4451 53.9688 46.8665 54.173C47.3649 54.4145 47.6528 54.2981 48.6983 53.4328C49.4557 52.8059 49.5485 52.6846 49.5485 52.3213C49.5485 51.8155 49.2044 51.4446 48.7353 51.4446C48.491 51.4446 48.1325 51.6502 47.499 52.1536ZM12.591 52.8972C12.4415 52.9718 12.2712 53.1693 12.2125 53.3363C12.0154 53.8967 12.199 54.177 13.2237 54.8803C14.3549 55.6566 14.7895 55.7364 15.1799 55.24C15.6428 54.6517 15.4418 54.2614 14.273 53.4795C13.2556 52.7987 12.98 52.7033 12.591 52.8972ZM42.3423 55.4067C41.1744 56.0218 40.9567 56.3216 41.2436 56.92C41.5274 57.5121 41.9201 57.532 43.0006 57.0086C44.3096 56.3746 44.5059 56.2061 44.5059 55.7164C44.5059 55.2231 44.1595 54.8438 43.7143 54.8496C43.537 54.852 42.9195 55.1027 42.3423 55.4067ZM17.9226 55.9017C17.3854 56.1181 17.2499 56.8831 17.6804 57.2695C17.9885 57.546 19.7053 58.2478 20.0714 58.2468C20.9577 58.2446 21.1275 56.9512 20.2934 56.5555C19.767 56.3057 18.3751 55.7814 18.2641 55.791C18.2172 55.7951 18.0636 55.8449 17.9226 55.9017ZM37.8215 57.165C37.0303 57.2736 35.7496 57.6994 35.5641 57.9157C35.1332 58.4179 35.5147 59.3017 36.1623 59.3017C36.6794 59.3017 38.4511 58.7893 38.6616 58.5788C38.9209 58.3195 38.9409 57.8033 38.7047 57.466C38.5125 57.1918 38.2582 57.1051 37.8215 57.165ZM23.6587 57.7383C23.4315 57.8298 23.1422 58.4654 23.2184 58.7057C23.3527 59.1288 23.7574 59.3411 24.8181 59.5449C26.271 59.824 26.7982 59.6263 26.7982 58.8021C26.7982 58.3258 26.3577 58.0462 25.2901 57.8448C24.2891 57.656 23.9228 57.6321 23.6587 57.7383ZM30.7596 58.2371C29.5764 58.3156 29.3312 58.4703 29.3312 59.1393C29.3312 59.4507 29.4089 59.6298 29.6185 59.8004C29.8768 60.0108 30.028 60.0283 31.1166 59.9734C32.1672 59.9205 32.3651 59.877 32.6118 59.6453C33.1031 59.1837 32.9432 58.4847 32.2948 58.2586C32.0903 58.1873 31.8913 58.1381 31.8526 58.1491C31.8138 58.1603 31.3221 58.1999 30.7596 58.2371Z" fill="#33C1CC"/>
</svg>
