<svg width="80" height="32" viewBox="0 0 80 32" fill="none" xmlns="http://www.w3.org/2000/svg">
<path d="M30.7718 5.74694C24.6183 4.44206 18.1082 4.26068 11.4226 5.20784C9.99056 5.41078 8.73503 6.16646 7.88705 7.33611C7.04296 8.50019 6.71623 9.92044 6.967 11.335C7.08119 11.9786 7.19386 12.5804 7.30181 13.1232C7.78988 15.5763 8.31938 17.7878 8.87565 19.6963C9.72463 22.6088 12.0688 24.7881 14.9955 25.384L15.1971 25.4246C16.3019 25.6422 17.4288 25.7525 18.5462 25.7525C25.9988 25.7525 32.6209 20.984 35.0245 13.8866L35.1705 13.455C35.7126 11.852 35.5431 10.0897 34.7055 8.6196C33.8665 7.14597 32.4324 6.09893 30.7718 5.74694ZM33.5724 12.9245L33.4296 13.3462C31.2577 19.7593 25.2766 24.0682 18.5464 24.0682C17.5379 24.0682 16.5207 23.9685 15.526 23.7726L15.3297 23.7332C13.0195 23.263 11.1659 21.5354 10.4926 19.2249C9.94997 17.3632 9.43227 15.1998 8.95363 12.7944C8.84786 12.2631 8.73738 11.6731 8.62539 11.0411C8.45512 10.0803 8.67709 9.11558 9.25055 8.32471C9.82787 7.52827 10.6833 7.01376 11.6587 6.87549C18.1488 5.95611 24.4618 6.13076 30.4224 7.39455C31.6129 7.647 32.6407 8.39746 33.2425 9.45325C33.8422 10.5057 33.9637 11.7676 33.5724 12.9245Z" fill="white"/>
<path d="M30.2406 8.25191C26.8717 7.53749 23.3319 7.17523 19.7199 7.17523C18.7625 7.17523 17.7826 7.20151 16.8077 7.25321C16.3433 7.2778 15.9868 7.67425 16.0114 8.13874C16.036 8.60323 16.4336 8.95892 16.8969 8.93501C17.8422 8.88482 18.7919 8.85939 19.7199 8.85939C23.2147 8.85939 26.6367 9.20935 29.8914 9.89935C30.3744 10.0017 30.7744 10.2934 31.0179 10.7207C31.2594 11.1446 31.3062 11.6327 31.1499 12.095C31.0009 12.5356 31.2373 13.0135 31.6779 13.1624C31.7673 13.1927 31.8583 13.207 31.9477 13.207C32.2989 13.207 32.6266 12.9856 32.7453 12.6344C33.0579 11.7102 32.9641 10.7345 32.4812 9.88689C31.9962 9.03606 31.2004 8.45536 30.2406 8.25191Z" fill="white"/>
<path d="M72.698 13.123C72.8058 12.5807 72.9184 11.9792 73.0326 11.3348C73.2834 9.92027 72.9567 8.50002 72.1127 7.33611C71.2648 6.16646 70.0091 5.41061 68.577 5.20784C61.8914 4.26084 55.3813 4.44223 49.2279 5.74694C47.5674 6.09893 46.1333 7.14597 45.2939 8.61943C44.4564 10.0895 44.287 11.8518 44.8288 13.4545L44.9749 13.8865C47.3784 20.9838 54.0007 25.7523 61.4532 25.7523C62.5707 25.7523 63.6974 25.642 64.8054 25.4237L65.0058 25.3835C67.9305 24.7881 70.2748 22.6089 71.1236 19.6963C71.6799 17.789 72.2096 15.5775 72.698 13.123ZM69.5072 19.2249C68.8337 21.5354 66.9803 23.2628 64.6721 23.7327L64.4768 23.7719C63.4791 23.9685 62.4619 24.0682 61.4534 24.0682C54.7232 24.0682 48.7421 19.7594 46.5702 13.3462L46.4245 12.9152C46.0363 11.7675 46.1577 10.5055 46.7574 9.45292C47.359 8.39695 48.387 7.64666 49.5776 7.39421C53.0316 6.66194 56.6032 6.2953 60.2597 6.2953C62.9132 6.2953 65.6119 6.48847 68.3411 6.87515C69.3167 7.01342 70.1721 7.5281 70.7494 8.32437C71.3229 9.11525 71.545 10.0799 71.3747 11.0404C71.2624 11.6731 71.1519 12.2633 71.0463 12.7939C70.5674 15.2009 70.0495 17.3644 69.5072 19.2249Z" fill="white"/>
<path d="M68.2181 7.74313C65.5577 7.36639 62.887 7.17523 60.2799 7.17523C59.2699 7.17523 58.252 7.20403 57.2545 7.26079C56.7901 7.28723 56.4353 7.68503 56.4616 8.14935C56.488 8.61367 56.8851 8.9697 57.3501 8.94225C58.3158 8.88735 59.3016 8.85939 60.2799 8.85939C62.8081 8.85939 65.3994 9.04481 67.9818 9.41061C68.2636 9.45053 68.5102 9.59856 68.6762 9.82761C68.8406 10.0543 68.9017 10.3192 68.8532 10.5937C68.7721 11.0517 69.0774 11.4887 69.5355 11.5699C69.5852 11.5786 69.6345 11.583 69.6833 11.583C70.084 11.583 70.4392 11.2959 70.5114 10.8878C70.6399 10.1633 70.4724 9.43571 70.0397 8.83918C69.6032 8.23676 68.9563 7.84755 68.2181 7.74313Z" fill="white"/>
<path d="M79.8033 29.1233L73.269 21.328C73.3858 21.0294 73.4913 20.7246 73.5822 20.4127C74.8822 15.953 75.7186 10.9806 76.0037 9.15108H77.6688C78.134 9.15108 78.5109 8.774 78.5109 8.30901V4.21213C78.5109 3.83892 78.2652 3.51018 77.9071 3.40441C62.2665 -1.2095 50.2085 1.29248 44.4133 3.1949C41.5262 4.14258 38.474 4.14275 35.5865 3.1949C29.7913 1.29265 17.734 -1.20966 2.09272 3.40441C1.73467 3.51001 1.48895 3.83892 1.48895 4.21213V8.30901C1.48895 8.774 1.86603 9.15108 2.33103 9.15108H3.99615C4.28128 10.9806 5.1178 15.953 6.41763 20.4128C6.50857 20.7248 6.614 21.0296 6.73088 21.3282L0.196697 29.1233C0.0385554 29.3121 -0.0291476 29.5607 0.0116089 29.8037C0.0525339 30.0465 0.19754 30.2596 0.408901 30.3862C1.33754 30.9435 2.36286 31.2147 3.37908 31.2147C4.90492 31.2147 6.40971 30.6025 7.53321 29.4271L10.5952 26.2232C11.7685 27.0351 13.113 27.6166 14.5662 27.9092L14.7025 27.9363C15.9789 28.1879 17.2543 28.3093 18.5166 28.3092C25.8681 28.3088 32.73 24.1855 36.1921 17.6321L43.3245 16.6442C46.5983 23.768 53.7696 28.3095 61.4836 28.3092C62.745 28.3092 64.0216 28.1877 65.2975 27.9363L65.4159 27.9127C66.8759 27.6195 68.2259 27.0363 69.4036 26.2215L72.467 29.4269C73.5905 30.6025 75.0951 31.2145 76.6211 31.2145C77.6371 31.2145 78.6626 30.943 79.5913 30.3861C79.8026 30.2593 79.9476 30.0464 79.9884 29.8035C80.0291 29.5607 79.9614 29.3121 79.8033 29.1233ZM6.31557 28.2637C5.23063 29.3988 3.64349 29.7912 2.20118 29.3537L7.545 22.9787C8.03105 23.7815 8.6173 24.5119 9.28726 25.1541L6.31557 28.2637ZM37.0339 15.8154C37.1816 15.4517 37.3227 15.0837 37.45 14.7078C37.8823 13.4312 38.264 12.2978 38.5501 11.4451C38.7593 10.8218 39.342 10.4029 39.9998 10.4029C40.6577 10.4029 41.2404 10.8218 41.4496 11.4451C41.7357 12.2976 42.1173 13.431 42.5496 14.7076C42.587 14.8179 42.6288 14.9257 42.6679 15.035L37.0339 15.8154ZM65.0851 26.2616L64.972 26.284C56.0345 28.0456 47.081 22.8363 44.1449 14.1675C43.7132 12.8926 43.3323 11.7605 43.0465 10.9092C42.6066 9.59907 41.3824 8.71893 40 8.71893C38.6176 8.71893 37.3933 9.59923 36.9537 10.9092C36.6679 11.7605 36.2868 12.8926 35.855 14.1675C32.919 22.8365 23.965 28.0454 15.0279 26.284L14.8989 26.2582C11.6073 25.5957 8.9772 23.1754 8.03458 19.9416C6.44794 14.4984 5.56359 8.25477 5.55483 8.19229C5.49656 7.77647 5.14087 7.46693 4.72084 7.46693H3.1731V4.8447C18.0811 0.599286 29.5269 2.97815 35.0612 4.79502C38.2923 5.85587 41.7079 5.85553 44.9386 4.79502C50.4729 2.97849 61.9194 0.599622 76.8267 4.8447V7.46693H75.279C74.8591 7.46693 74.5033 7.77631 74.445 8.19229C74.4362 8.25477 73.5532 14.4942 71.9656 19.9415C71.0223 23.1771 68.3856 25.5989 65.0851 26.2616ZM73.6844 28.2637L70.7116 25.1529C71.3817 24.5107 71.9683 23.7806 72.4545 22.9781L77.7988 29.3539C76.3567 29.7914 74.7692 29.3988 73.6844 28.2637Z" fill="white"/>
</svg>
