<svg width="60" height="50" viewBox="0 0 60 50" fill="none" xmlns="http://www.w3.org/2000/svg">
<path d="M42.9873 0.163759C37.9821 0.137011 33.224 2.33518 29.9999 6.16369C26.7961 2.30901 22.0247 0.104593 17.0126 0.163759C7.61675 0.163759 0 7.78051 0 17.1763C0 33.2777 28.1012 48.9991 29.2405 49.6067C29.7002 49.9139 30.2997 49.9139 30.7595 49.6067C31.8988 48.9991 60 33.5055 60 17.1763C60 7.78051 52.3831 0.163759 42.9873 0.163759ZM29.9999 46.5687C25.5949 43.9865 3.03798 30.2397 3.03798 17.1763C3.03798 9.45839 9.29463 3.20159 17.0127 3.20159C21.739 3.13952 26.1621 5.52347 28.7089 9.50535C29.226 10.2184 30.2234 10.3773 30.9364 9.86005C31.0726 9.7612 31.1924 9.64156 31.2911 9.50535C35.5149 3.04575 44.1756 1.23326 50.6352 5.45703C54.5896 8.04276 56.9697 12.4514 56.9619 17.1762C56.962 30.3915 34.405 44.0624 29.9999 46.5687Z" fill="#33C1CC"/>
<path fill-rule="evenodd" clip-rule="evenodd" d="M42.9873 0.563759H42.9852C38.0987 0.537639 33.4535 2.68366 30.3059 6.42134L29.9979 6.78705L29.6923 6.41936C26.5655 2.65739 21.9089 0.505988 17.0173 0.563731L17.0126 0.563787C7.83767 0.563759 0.4 8.00142 0.4 17.1763C0.4 21.0864 2.10766 25.0073 4.73512 28.7198C7.36035 32.4292 10.8808 35.8979 14.4503 38.8953C21.5895 44.8904 28.8737 48.9577 29.4288 49.2538L29.4463 49.2631L29.4628 49.2741C29.7879 49.4914 30.212 49.4914 30.5373 49.2741L30.5538 49.2631L30.5713 49.2538C31.1285 48.9566 38.4121 44.9461 45.5505 38.9802C49.1196 35.9972 52.6396 32.5359 55.2646 28.8164C57.8914 25.0941 59.6 21.1445 59.6 17.1763C59.6 8.00143 52.1622 0.563759 42.9873 0.563759ZM29.9969 47.0307L29.7976 46.9138C27.588 45.6185 20.8223 41.5215 14.6043 36.1046C11.4955 33.3963 8.51153 30.3478 6.30204 27.144C4.09491 23.9436 2.63798 20.5555 2.63798 17.1763C2.63798 9.23835 9.0723 2.80301 17.0101 2.80159C21.8695 2.73868 26.4172 5.18795 29.0391 9.27922C29.4282 9.80601 30.1703 9.92165 30.7015 9.53627C30.8014 9.4638 30.8892 9.37662 30.962 9.27777C35.3088 2.64033 44.2125 0.779468 50.8541 5.12225C54.9216 7.78199 57.37 12.3169 57.3619 17.1768C57.3617 20.5928 55.9057 24.0041 53.6983 27.218C51.4887 30.4352 48.5044 33.4864 45.3953 36.1902C39.1769 41.5979 32.4107 45.6573 30.1977 46.9164L29.9969 47.0307ZM56.9619 17.1762C56.9697 12.4515 54.5896 8.04276 50.6352 5.45703C44.1756 1.23326 35.5149 3.04575 31.2911 9.50535C31.1924 9.64156 31.0726 9.7612 30.9364 9.86005C30.2234 10.3773 29.226 10.2184 28.7089 9.50535C26.1621 5.52347 21.739 3.13952 17.0127 3.20159C9.29463 3.20159 3.03798 9.45839 3.03798 17.1763C3.03798 30.2397 25.5949 43.9865 29.9999 46.5687C34.405 44.0624 56.962 30.3915 56.9619 17.1762ZM42.9873 0.163759C38.1175 0.137734 33.4815 2.21794 30.2648 5.85675C30.1754 5.95786 30.0871 6.06018 29.9999 6.16369C29.9134 6.05962 29.8258 5.95675 29.737 5.85509C26.5383 2.19163 21.8894 0.10619 17.0126 0.163759C7.61675 0.163759 0 7.78051 0 17.1763C0 33.2777 28.1012 48.9991 29.2405 49.6067C29.7002 49.9139 30.2997 49.9139 30.7595 49.6067C31.8988 48.9991 60 33.5055 60 17.1763C60 7.78051 52.3831 0.163759 42.9873 0.163759Z" fill="white"/>
</svg>
