<svg width="60" height="34" viewBox="0 0 60 34" fill="none" xmlns="http://www.w3.org/2000/svg">
<path d="M57.0813 24.7129C52.9395 18.7545 45.9167 11.3845 40.2675 6.49532C39.9006 6.17774 39.3453 6.21758 39.0275 6.58473C38.7097 6.95188 38.7497 7.50699 39.1169 7.82481C48.7477 16.1606 58.055 27.697 58.2522 30.7252C57.955 30.6968 57.1486 30.5007 55.4113 29.4033C45.9899 23.3967 30.5149 5.92122 30.304 1.91517C30.8963 1.96322 32.8253 2.71638 36.847 5.93223C37.2263 6.23563 37.7794 6.17399 38.0826 5.79477C38.3859 5.41555 38.3243 4.86219 37.945 4.55903C35.8793 2.90716 34.1219 1.69826 32.721 0.965835C31.5683 0.363023 29.9279 -0.32721 28.9942 0.633609C28.7051 0.931147 28.5812 1.30251 28.5528 1.68759C27.003 6.00348 26.8387 10.6699 27.9269 15.0972C25.8885 14.9865 23.7677 14.9296 21.6017 14.9296C17.5288 14.9298 0 15.2644 0 19.3485C0 19.7694 0.16875 20.1229 0.415312 20.4169C4.06839 28.5716 12.3675 33.8331 21.602 33.8331C24.6276 33.8331 27.5694 33.2775 30.3456 32.1818C30.7974 32.0036 31.019 31.4929 30.8408 31.0412C30.6625 30.5896 30.1517 30.368 29.7003 30.5462C19.9245 34.4045 8.53991 30.7904 3.16769 21.8924C10.0542 24.0649 24.3951 24.0051 31.6424 23.3287C32.6548 24.7914 33.8419 26.1695 35.1593 27.402C34.2625 28.1126 33.3052 28.7533 32.3029 29.313C31.879 29.5498 31.7273 30.0852 31.964 30.5092C32.2008 30.9331 32.7365 31.0851 33.1602 30.8481C34.3404 30.1889 35.4625 29.4248 36.5065 28.5732C42.8037 33.6669 51.1349 35.2776 58.5115 32.4796C59.0394 32.4361 59.3721 32.2088 59.5618 32.0137C61.0474 30.4848 58.3849 26.5881 57.0813 24.7129ZM1.82144 19.3478C3.6887 17.6197 15.8184 16.1259 28.4404 16.8871C28.9931 18.5733 29.7243 20.1841 30.5801 21.6568C18.0511 22.7007 3.85945 21.2744 1.82144 19.3478ZM29.4937 4.74044C31.8804 9.30348 37.5912 15.7108 41.215 19.4391C41.2151 19.4391 41.2151 19.4391 41.2151 19.4391C44.7912 23.1186 51.1501 29.1455 55.5849 31.5473C40.292 35.2276 26.065 20.052 29.4937 4.74044Z" fill="#33C1CC"/>
</svg>
