<svg width="40" height="58" viewBox="0 0 40 58" fill="none" xmlns="http://www.w3.org/2000/svg">
<path d="M30.3053 57.3784C30.1986 57.379 30.0929 57.3585 29.9941 57.3182C29.8953 57.2778 29.8054 57.2184 29.7297 57.1432L0.767516 28.1892C0.616502 28.0373 0.531738 27.8318 0.531738 27.6176C0.531738 27.4034 0.616502 27.1979 0.767516 27.0459C3.72652 24.0871 7.73971 22.4248 11.9243 22.4248C16.1088 22.4248 20.122 24.0871 23.081 27.0459L39.2324 43.1892C39.3834 43.3411 39.4682 43.5466 39.4682 43.7608C39.4682 43.975 39.3834 44.1805 39.2324 44.3324C39.157 44.4084 39.0673 44.4687 38.9685 44.5099C38.8697 44.5511 38.7637 44.5723 38.6567 44.5723C38.5497 44.5723 38.4437 44.5511 38.3449 44.5099C38.2461 44.4687 38.1564 44.4084 38.081 44.3324L21.9297 28.1892C19.371 25.6285 15.9296 24.1439 12.3112 24.0399C8.6928 23.9359 5.17174 25.2203 2.47022 27.6297L30.8486 56.0081C30.9625 56.121 31.0403 56.2652 31.0722 56.4223C31.1041 56.5795 31.0888 56.7426 31.028 56.891C30.9673 57.0394 30.8639 57.1664 30.7309 57.2561C30.5979 57.3457 30.4414 57.3939 30.281 57.3946L30.3053 57.3784Z" fill="#33C1CC"/>
<path d="M14.6729 41.7541C14.5262 41.7537 14.3824 41.7135 14.2568 41.6378C14.1311 41.5621 14.0283 41.4538 13.9594 41.3243C13.9095 41.2283 13.8794 41.1232 13.8708 41.0152C13.8621 40.9073 13.8752 40.7988 13.9092 40.696C13.9432 40.5932 13.9975 40.4983 14.0688 40.4168C14.14 40.3354 14.2269 40.269 14.3243 40.2216C14.904 39.9405 15.4068 39.5228 15.7895 39.0045C16.1722 38.4862 16.4234 37.8827 16.5216 37.246C16.7972 35.3811 15.881 33.1919 13.9999 31.3595C10.5621 27.9135 5.08102 26.5514 1.7567 28.3189C1.56736 28.4195 1.34591 28.441 1.14078 28.3787C0.935651 28.3164 0.763543 28.1754 0.662103 27.9865C0.561551 27.7972 0.540076 27.5757 0.602374 27.3706C0.664673 27.1654 0.805674 26.9933 0.994536 26.8919C4.88643 24.8081 11.2351 26.3 15.1513 30.2081C17.3891 32.4541 18.4756 35.073 18.1189 37.5054C17.9857 38.3937 17.6407 39.237 17.1129 39.9638C16.585 40.6906 15.89 41.2796 15.0864 41.6811C14.9574 41.7413 14.8148 41.7665 14.6729 41.7541Z" fill="#33C1CC"/>
<path d="M29.1866 22.4081C25.8384 22.4081 22.6274 21.078 20.2599 18.7105C17.8923 16.343 16.5623 13.1319 16.5623 9.78376C16.5588 8.12658 16.8838 6.48516 17.5184 4.95431C18.153 3.42346 19.0847 2.03353 20.2596 0.864836C20.335 0.78884 20.4246 0.728521 20.5234 0.687357C20.6222 0.646193 20.7282 0.625 20.8353 0.625C20.9423 0.625 21.0483 0.646193 21.1471 0.687357C21.2459 0.728521 21.3356 0.78884 21.4109 0.864836L38.1136 17.5675C38.2646 17.7195 38.3494 17.925 38.3494 18.1392C38.3494 18.3534 38.2646 18.5589 38.1136 18.7108C36.944 19.8866 35.5527 20.8189 34.0204 21.4535C32.4881 22.0881 30.8451 22.4126 29.1866 22.4081V22.4081ZM20.8596 2.59997C19.0424 4.70318 18.0886 7.41622 18.1898 10.1939C18.291 12.9715 19.4397 15.608 21.4051 17.5734C23.3705 19.5388 26.0069 20.6875 28.7846 20.7887C31.5622 20.8899 34.2753 19.9361 36.3785 18.1189L20.8596 2.59997Z" fill="#33C1CC"/>
<path d="M27.2242 18.2084C26.2816 18.2073 25.3493 18.0125 24.4852 17.6359C23.6211 17.2594 22.8437 16.7092 22.2011 16.0196C21.5586 15.3299 21.0648 14.5155 20.7503 13.6269C20.4357 12.7384 20.3073 11.7946 20.3729 10.8543C20.3801 10.7478 20.4082 10.6437 20.4558 10.548C20.5033 10.4524 20.5693 10.3671 20.6499 10.297C20.7306 10.2269 20.8242 10.1735 20.9256 10.1397C21.0269 10.106 21.1339 10.0925 21.2404 10.1003C21.4542 10.1168 21.6527 10.2174 21.7925 10.38C21.9323 10.5426 22.002 10.754 21.9864 10.9678C21.9361 11.7166 22.0466 12.4674 22.3104 13.1699C22.5742 13.8725 22.9852 14.5105 23.5158 15.0411C24.0465 15.5717 24.6844 15.9827 25.387 16.2465C26.0895 16.5103 26.8404 16.6208 27.5891 16.5705C27.8041 16.5544 28.0168 16.6244 28.1802 16.765C28.3437 16.9057 28.4446 17.1055 28.4607 17.3205C28.4768 17.5356 28.4069 17.7482 28.2662 17.9117C28.1256 18.0751 27.9258 18.176 27.7107 18.1922L27.2242 18.2084Z" fill="#33C1CC"/>
</svg>
