<svg width="60" height="60" viewBox="0 0 60 60" fill="none" xmlns="http://www.w3.org/2000/svg">
<path d="M44.1797 3.5025C37.3949 3.5025 31.8749 9.02239 31.8749 15.8072C31.8749 22.592 37.3949 28.1119 44.1797 28.1119C50.9645 28.1119 56.4844 22.592 56.4844 15.8072C56.4844 9.02239 50.9645 3.5025 44.1797 3.5025V3.5025ZM44.1797 26.3541C38.364 26.3541 33.6327 21.6227 33.6327 15.8072C33.6327 9.99164 38.364 5.26032 44.1797 5.26032C49.9952 5.26032 54.7266 9.99164 54.7266 15.8072C54.7266 21.6227 49.9952 26.3541 44.1797 26.3541Z" fill="white"/>
<path d="M15.8203 56.4711C22.6051 56.4711 28.125 50.9512 28.125 44.1664C28.125 37.3816 22.6051 31.8618 15.8203 31.8618C9.03551 31.8618 3.51562 37.3816 3.51562 44.1664C3.51562 50.9512 9.03551 56.4711 15.8203 56.4711ZM15.8203 33.6197C21.6359 33.6197 26.3672 38.351 26.3672 44.1666C26.3672 49.9821 21.6359 54.7134 15.8203 54.7134C10.0048 54.7134 5.27344 49.9821 5.27344 44.1666C5.27344 38.351 10.0048 33.6197 15.8203 33.6197Z" fill="white"/>
<path d="M34.9312 36.1547L36.1898 34.9276L37.4169 36.1863L36.1582 37.4133L34.9312 36.1547Z" fill="white"/>
<path d="M21.0379 46.0783L19.795 44.8353L17.732 46.8981L11.8457 41.0119L10.6028 42.2548L17.732 49.384L21.0379 46.0783Z" fill="white"/>
<path d="M45.8385 14.3903C45.8648 13.5445 45.5596 12.759 44.9791 12.1785C44.3986 11.5979 43.6121 11.2911 42.7673 11.3191C41.946 11.3447 41.1718 11.6807 40.5874 12.2651L38.3993 14.453L45.5323 21.5883L46.7754 20.3456L44.1824 17.7518L49.434 18.0866L49.5458 16.3323L45.3067 16.0621C45.6341 15.5673 45.8197 14.9916 45.8385 14.3903V14.3903ZM40.8853 14.4532L41.8304 13.5081C42.0935 13.245 42.4549 13.0875 42.8221 13.076C43.1777 13.0657 43.5023 13.1876 43.7362 13.4215C43.9699 13.6553 44.0926 13.9799 44.0815 14.3354C44.07 14.7026 43.9126 15.0641 43.6468 15.3299L42.7082 16.2766L40.8853 14.4532Z" fill="white"/>
<path d="M45.308 7.66113H47.0658V9.41895H45.308V7.66113Z" fill="white"/>
<path d="M48.8235 9.41895H50.5813V11.1768H48.8235V9.41895Z" fill="white"/>
<path d="M60 15.8336C60 7.11024 52.903 0.0132446 44.1797 0.0132446C35.5085 0.0132446 28.4455 7.02586 28.3614 15.6776C27.1054 20.0844 20.1 27.0902 15.6926 28.3477C11.8767 28.3784 8.2077 29.782 5.34809 32.3097L6.51223 33.6267C9.08227 31.355 12.3879 30.1039 15.8204 30.1039C23.5745 30.1039 29.8829 36.4124 29.8829 44.1664C29.8829 51.9205 23.5745 58.2289 15.8204 58.2289C8.06637 58.2289 1.75793 51.9205 1.75793 44.1664C1.75793 40.7181 3.01934 37.4007 5.30988 34.8254L3.99633 33.6572C1.41914 36.5547 0 40.287 0 44.1664C0 52.8898 7.09699 59.9868 15.8203 59.9868C24.4997 59.9868 31.568 52.9609 31.639 44.2979C32.0821 42.7444 33.2914 40.7523 35.0591 38.6716L33.7194 37.5335C32.7517 38.6726 31.9341 39.801 31.294 40.8696C29.9993 34.7865 25.1982 29.9859 19.1148 28.6922C20.8254 27.6677 22.678 26.1963 24.4438 24.4307C26.2071 22.6673 27.6769 20.8174 28.7012 19.1087C29.9866 25.1907 34.7767 29.9945 40.8512 31.3004C39.7931 31.9369 38.6773 32.7464 37.5507 33.7031L38.6885 35.043C40.7269 33.3121 42.6797 32.117 44.2181 31.6534C52.9238 31.6325 60 24.544 60 15.8336V15.8336ZM44.1797 29.8959C36.4256 29.8959 30.1172 23.5875 30.1172 15.8334C30.1172 8.07938 36.4256 1.77094 44.1797 1.77094C51.9337 1.77094 58.2422 8.07938 58.2422 15.8334C58.2422 23.5875 51.9337 29.8959 44.1797 29.8959Z" fill="white"/>
</svg>
