<svg width="20" height="20" viewBox="0 0 20 20" fill="none" xmlns="http://www.w3.org/2000/svg">
<path d="M17.0711 2.92891C15.1823 1.0402 12.6711 0 10 0C7.32891 0 4.8177 1.0402 2.92891 2.92891C1.0402 4.8177 0 7.32891 0 10C0 12.6711 1.0402 15.1823 2.92891 17.0711C4.8177 18.9598 7.32891 20 10 20C11.8286 20 13.6179 19.5016 15.1743 18.5589C15.5433 18.3353 15.6613 17.8549 15.4377 17.4859C15.2141 17.1168 14.7337 16.9989 14.3647 17.2224C13.0525 18.0173 11.5432 18.4375 10 18.4375C5.34754 18.4375 1.5625 14.6525 1.5625 10C1.5625 5.34754 5.34754 1.5625 10 1.5625C14.6525 1.5625 18.4375 5.34754 18.4375 10C18.4375 11.6636 17.9428 13.283 17.0068 14.683C16.767 15.0416 16.8634 15.5268 17.222 15.7666C17.5808 16.0065 18.0659 15.9101 18.3057 15.5514C19.4141 13.8935 20 11.9738 20 10C20 7.32891 18.9598 4.8177 17.0711 2.92891Z" fill="#39B6C0"/>
<path d="M9.1665 5.91493C8.61623 5.59563 7.95861 5.59454 7.40744 5.91204C6.8542 6.23059 6.52393 6.80258 6.52393 7.44208V12.5579C6.52393 13.1974 6.8542 13.7694 7.40744 14.0879C7.68221 14.2462 7.9833 14.3253 8.28447 14.3253C8.58748 14.3253 8.89057 14.2451 9.1665 14.085L13.5746 11.5271C14.1246 11.2079 14.453 10.637 14.453 9.99996C14.453 9.36289 14.1246 8.792 13.5746 8.47282L9.1665 5.91493ZM12.7904 10.1756L8.38229 12.7335C8.3017 12.7804 8.2317 12.7595 8.18721 12.7339C8.14119 12.7074 8.08643 12.6554 8.08643 12.5579V7.44208C8.08643 7.34454 8.14119 7.29251 8.18721 7.26602C8.21244 7.25149 8.24584 7.23856 8.28471 7.23856C8.31443 7.23856 8.34736 7.24614 8.38229 7.26641L12.7904 9.8243C12.8732 9.87231 12.8905 9.94633 12.8905 9.99996C12.8905 10.0536 12.8732 10.1276 12.7904 10.1756Z" fill="#39B6C0"/>
</svg>
