<svg width="14" height="14" viewBox="0 0 14 14" fill="none" xmlns="http://www.w3.org/2000/svg">
<path d="M7.00021 0C6.42025 0 5.9502 0.470054 5.9502 1.05001V12.95C5.9502 13.5299 6.42025 14 7.00021 14C7.58017 14 8.05022 13.5299 8.05022 12.95V1.05001C8.05022 0.470054 7.58017 0 7.00021 0Z" fill="url(#paint0_linear_215_570)"/>
<path d="M12.95 5.9502H7H1.05001C0.470054 5.9502 0 6.42025 0 7.00021C0 7.58017 0.470054 8.05022 1.05001 8.05022H12.95C13.5299 8.05022 14 7.58017 14 7.00021C14 6.42025 13.5299 5.9502 12.95 5.9502Z" fill="url(#paint1_linear_215_570)"/>
<defs>
<linearGradient id="paint0_linear_215_570" x1="5.9502" y1="5.88372" x2="8.05022" y2="5.88372" gradientUnits="userSpaceOnUse">
<stop stop-color="#0C669C"/>
<stop offset="1" stop-color="#3BBAC2"/>
</linearGradient>
<linearGradient id="paint1_linear_215_570" x1="9.98601e-08" y1="6.83277" x2="14" y2="6.83277" gradientUnits="userSpaceOnUse">
<stop stop-color="#0C669C"/>
<stop offset="1" stop-color="#3BBAC2"/>
</linearGradient>
</defs>
</svg>
