<svg width="20" height="20" viewBox="0 0 20 20" fill="none" xmlns="http://www.w3.org/2000/svg">
<path d="M8.448 0C3.79 0 0 3.79 0 8.448C0 13.106 3.79 16.896 8.448 16.896C13.106 16.896 16.896 13.106 16.896 8.448C16.896 3.79 13.1067 0 8.448 0ZM8.448 15.4187C4.60467 15.4187 1.47733 12.292 1.47733 8.448C1.47733 4.604 4.60467 1.478 8.448 1.478C12.2913 1.478 15.4187 4.60467 15.4187 8.44867C15.4187 12.2927 12.292 15.4187 8.448 15.4187ZM19.7833 18.7387L14.414 13.3693C14.1253 13.0807 13.658 13.0807 13.3693 13.3693C13.0807 13.658 13.0807 14.126 13.3693 14.414L18.7387 19.7833C18.8833 19.928 19.072 20 19.2613 20C19.4507 20 19.6393 19.928 19.784 19.7833C20.072 19.4953 20.072 19.0273 19.7833 18.7387Z" fill="#0F80C4"/>
</svg>
