<svg width="60" height="60" viewBox="0 0 60 60" fill="none" xmlns="http://www.w3.org/2000/svg">
<path d="M17.0605 16.4531V14.4358H20.321V13.2144H17.0605V11.3497H20.8334V10.0303H15.5557V17.7726H20.9316V16.4531H17.0605Z" fill="#33C1CC"/>
<path d="M14.7185 22.4469V21.2935H10.8579V26.9803H12.1716V24.7376H14.2701V23.6722H12.1716V22.4469H14.7185Z" fill="#33C1CC"/>
<path d="M24.9715 21.2935H22.5444V26.9803H23.8581V25.1461C24.8987 25.146 25.6907 25.2891 26.3291 24.5533C27.4846 23.2214 26.4772 21.2935 24.9715 21.2935ZM24.9314 24.0008H23.8581V22.4469C24.8449 22.4469 25.2519 22.3297 25.4479 22.8715C25.6111 23.3236 25.429 24.0008 24.9314 24.0008Z" fill="#33C1CC"/>
<path d="M8.66992 32.2803V33.1455H9.71324V35.8941H10.7058V33.1455H11.7441V32.2803H8.66992Z" fill="#33C1CC"/>
<path d="M26.0223 35.0288L27.6104 33.0183V32.2803H24.8517V33.1455H26.4651L24.7754 35.156V35.8941H27.641V35.0288H26.0223Z" fill="#33C1CC"/>
<path d="M17.3757 32.4098C16.1848 32.9383 15.9109 34.4266 16.7726 35.3518C17.4905 36.1235 18.7035 36.1053 19.4192 35.367C20.8154 33.9272 19.1905 31.605 17.3757 32.4098ZM18.4779 34.9599C18.0062 35.2106 17.2766 34.9454 17.2766 34.0921C17.2765 33.0578 18.3083 32.9095 18.7246 33.4279C19.0466 33.8282 19.0137 34.6744 18.4779 34.9599Z" fill="#33C1CC"/>
<path d="M58.055 37.8993C57.2171 37.0091 56.1676 36.3779 55.6707 36.1881C52.5117 34.9477 49.9331 33.9351 46.1528 32.4507V32.377H50.8345C51.32 32.377 51.7136 31.9833 51.7136 31.4979V24.575C52.7551 23.2959 52.7554 21.4675 51.7136 20.1881C51.7136 16.8751 51.981 14.524 50.1614 11.6126C49.9042 11.2008 49.3619 11.0757 48.9502 11.3331C48.5384 11.5903 48.4132 12.1326 48.6707 12.5444C50.1238 14.8695 49.9555 16.7935 49.9555 19.0303C49.6986 18.9583 49.4112 18.9147 49.1388 18.9051V18.6664C49.1388 18.2449 48.8354 17.8821 48.4217 17.8024C48.3979 17.7978 46.02 17.317 43.9805 14.9264C43.6216 14.5053 42.9642 14.5167 42.6209 14.9533C42.5755 15.011 38.2023 20.4998 32.9713 21.4021V17.0381C32.9713 9.87408 41.3501 5.93272 46.8654 10.4852C47.2399 10.7942 47.7939 10.7413 48.103 10.3669C48.412 9.99232 48.3591 9.43838 47.9847 9.12924C44.531 6.27854 39.525 5.96296 35.7116 8.55772V2.48753C35.7118 1.11597 34.5959 0 33.2243 0H10.7261C10.2406 0 9.84711 0.393632 9.84711 0.879022C9.84711 1.36441 10.2407 1.75804 10.7261 1.75804H33.2245C33.6266 1.75804 33.9538 2.08523 33.9538 2.48742V10.0697C32.2545 11.8999 31.2135 14.3495 31.2135 17.038V31.4979C31.2135 31.9835 31.6072 32.377 32.0925 32.377H36.7739V32.4507C36.7648 32.4543 27.2522 36.1895 27.2432 36.1933C26.5816 36.4652 25.5797 37.117 24.7769 38.003H8.01969C7.53419 38.003 7.14067 38.3966 7.14067 38.882C7.14067 39.3674 7.5343 39.7611 8.01969 39.7611H23.6084C22.7897 41.5398 22.9699 42.5748 22.9699 47.8494H2.53087C2.12869 47.8494 1.8015 47.5223 1.8015 47.1201V2.48753C1.8015 2.08535 2.12869 1.75816 2.53087 1.75816H7.56137C8.04688 1.75816 8.4404 1.36453 8.4404 0.879139C8.4404 0.393749 8.04688 0 7.56137 0H2.53087C1.15931 0 0.043457 1.11597 0.043457 2.48753V47.1204C0.043457 48.492 1.15943 49.608 2.53099 49.608H22.97V59.121C22.97 59.6065 23.3636 60 23.849 60H32.4768C32.9623 60 33.3558 59.6064 33.3558 59.121C33.3558 58.6356 32.9622 58.242 32.4768 58.242H31.1132V45.3858C31.1132 44.9003 30.7196 44.5068 30.2342 44.5068C29.7487 44.5068 29.3552 44.9004 29.3552 45.3858V58.2418H24.7281C24.7281 41.6857 24.6214 42.1306 25.0265 40.9627C25.5624 39.4185 26.8585 38.2697 27.9078 37.8213C29.1143 37.3473 33.0183 35.8144 34.2433 35.3334C34.3673 36.5033 36.5793 57.3798 36.6707 58.2418H35.7658C35.2803 58.2418 34.8868 58.6355 34.8868 59.1209C34.8868 59.6063 35.2804 59.9999 35.7658 59.9999C35.8257 59.9999 37.7056 59.9999 37.6466 59.9999C38.2236 59.9999 58.5008 59.9999 59.078 59.9999C59.5635 59.9999 59.957 59.6063 59.957 59.1209V42.7898C59.9569 40.9441 59.3414 39.2663 58.055 37.8993ZM49.1388 20.6643C50.7947 20.7829 51.3543 22.994 49.8901 23.8628C49.656 24.0017 49.3923 24.0806 49.1388 24.0987V20.6643ZM49.063 25.86C49.3655 25.8558 49.6785 25.8103 49.9555 25.7329V30.6188H46.4074C47.818 29.4421 48.7949 27.7635 49.063 25.86ZM32.9715 30.6189V23.1814C33.2461 23.142 33.5186 23.0932 33.7879 23.0334V24.7986C33.7879 27.1352 34.8515 29.2277 36.5192 30.6189H32.9715ZM35.5459 24.7986V22.4998H35.5461C39.1825 21.1045 42.0883 18.211 43.3411 16.8166C44.8921 18.3403 46.4861 19.0379 47.3808 19.3346C47.3808 20.1184 47.3808 24.0839 47.3808 24.7987C47.3808 28.8541 43.3205 31.6983 39.3647 30.2644C37.1384 29.4465 35.5459 27.3051 35.5459 24.7986ZM36.5564 40.4801L35.9405 34.6669C38.8337 33.5307 38.532 33.9604 38.532 31.8287C40.4005 32.5832 42.6083 32.5499 44.3948 31.8287C44.3948 33.9905 44.1192 33.541 46.9862 34.6669L46.3703 40.4801H36.5564V40.4801ZM44.4863 58.2417H38.4385L36.7428 42.238H46.1415L44.4863 58.2417ZM58.1987 58.2417H53.6504V45.3858C53.6504 44.9003 53.2568 44.5068 52.7714 44.5068C52.286 44.5068 51.8924 44.9004 51.8924 45.3858V58.2418H46.2563L48.6836 35.3334C49.4168 35.6213 54.2749 37.529 55.0177 37.8208C55.1459 37.8759 56.4469 38.4612 57.3449 39.8329C58.4767 41.5619 58.1987 41.3808 58.1987 58.2417Z" fill="#33C1CC"/>
<path d="M28.2913 28.5894H8.01965C7.53414 28.5894 7.14062 28.983 7.14062 29.4684C7.14062 29.9539 7.53426 30.3474 8.01965 30.3474H28.2913C28.7768 30.3474 29.1703 29.9538 29.1703 29.4684C29.1703 28.983 28.7768 28.5894 28.2913 28.5894Z" fill="#33C1CC"/>
</svg>
