<svg width="20" height="18" viewBox="0 0 20 18" fill="none" xmlns="http://www.w3.org/2000/svg">
<path fill-rule="evenodd" clip-rule="evenodd" d="M18.2548 0.051301C18.1365 0.0824338 17.8813 0.170777 17.6877 0.247566C17.4941 0.324355 13.6577 1.81648 9.16231 3.56337C4.66692 5.31025 0.910506 6.77482 0.814693 6.81799C0.0160429 7.17766 -0.240501 7.93508 0.247637 8.49206C0.339226 8.59653 0.499449 8.72936 0.603748 8.78718C0.708008 8.84503 1.64686 9.21188 2.69005 9.6024C3.73323 9.99297 4.60767 10.3331 4.63321 10.3583C4.65875 10.3835 5.11231 11.4242 5.64109 12.6709C6.16986 13.9176 6.64169 15.0273 6.68963 15.1368C6.79823 15.385 7.14953 15.757 7.38429 15.8724C7.80122 16.0773 8.25314 16.0655 8.70354 15.838C8.96517 15.7059 9.06869 15.6154 10.0929 14.6236C10.4541 14.2738 10.7709 13.9961 10.7968 14.0065C10.8227 14.0169 11.7326 14.6534 12.8188 15.4209C13.9051 16.1884 14.8854 16.8595 14.9973 16.9122C15.8079 17.2938 16.6437 16.9798 17.0231 16.1512C17.1414 15.8927 17.3138 15.0802 18.5742 8.83949C20.1226 1.17308 20.0886 1.37376 19.923 0.884986C19.6969 0.217757 18.9812 -0.139909 18.2548 0.051301ZM18.7944 1.24486C18.8203 1.27134 18.8414 1.34937 18.8414 1.41825C18.8414 1.48714 18.5503 2.98649 18.1944 4.75018C17.8386 6.51384 17.2043 9.66086 16.7849 11.7435C16.3654 13.8262 15.9962 15.5817 15.9645 15.6447C15.8692 15.8338 15.7361 15.9007 15.5644 15.8458C15.4847 15.8203 14.6276 15.2393 13.6597 14.5546C12.6917 13.87 11.1748 12.8005 10.2888 12.1779C9.4027 11.5554 8.68117 11.0348 8.68539 11.021C8.68958 11.0072 10.0041 9.76389 11.6065 8.258C14.9552 5.11106 15.0715 4.9974 15.1299 4.8161C15.2519 4.43677 14.9101 4.00837 14.5233 4.05592C14.4213 4.06843 14.1021 4.22029 13.6401 4.47609C12.8811 4.89622 7.5424 7.83357 5.99047 8.68483C5.49345 8.95744 5.06132 9.18051 5.03015 9.18051C4.99894 9.18051 4.76324 9.10127 4.50635 9.00442C4.24945 8.90753 3.4761 8.61651 2.78781 8.35766C2.09953 8.09876 1.52406 7.87562 1.509 7.86174C1.49395 7.84786 4.84642 6.52872 8.95895 4.93032C13.0715 3.33188 16.887 1.84878 17.4378 1.6345C18.6668 1.15639 18.6992 1.14713 18.7944 1.24486ZM10.6274 7.54949C10.5959 7.57917 9.83104 8.29812 8.92766 9.14713C8.02429 9.99614 7.2588 10.7238 7.22657 10.7641C7.18008 10.8224 7.16205 11.0374 7.13933 11.8044C7.12357 12.3362 7.10593 12.8368 7.10014 12.917C7.09118 13.0409 6.99608 12.8427 6.46594 11.5957C6.12289 10.7888 5.85891 10.1219 5.87933 10.1138C5.8997 10.1056 6.9723 9.51454 8.26284 8.80033C9.55338 8.08613 10.6263 7.50038 10.647 7.49862C10.6677 7.49689 10.6589 7.5198 10.6274 7.54949ZM9.04346 12.7546C9.42046 13.0213 9.73648 13.2521 9.74579 13.2675C9.76171 13.2939 8.38806 14.6415 8.31603 14.6702C8.29753 14.6776 8.28239 14.1404 8.28239 13.4766C8.28239 12.7262 8.29671 12.2697 8.32021 12.2697C8.34102 12.2697 8.66647 12.4879 9.04346 12.7546Z" fill="#25A8E3"/>
</svg>
