<svg width="18" height="18" viewBox="0 0 18 18" fill="none" xmlns="http://www.w3.org/2000/svg">
<path d="M15.3401 2.61394C13.6476 0.92932 11.396 0.000949219 8.99958 0C6.60859 0 4.3534 0.927527 2.64971 2.61172C0.942988 4.2988 0.00221697 6.54086 0 8.91664V8.91939V8.92104C0.000281521 10.359 0.378434 11.8096 1.09624 13.1337L0.0245979 18L4.95163 16.8803C6.1995 17.5086 7.59183 17.8399 8.99616 17.8404H8.99975C11.3904 17.8404 13.6455 16.9128 15.3495 15.2284C17.0577 13.54 17.9989 11.3008 18 8.9235C18.0007 6.56297 17.0562 4.32214 15.3401 2.61394ZM8.99958 16.4355H8.99641C7.73548 16.435 6.48609 16.1187 5.38352 15.5207L5.15052 15.3943L1.87426 16.1388L2.58591 12.9077L2.44874 12.6714C1.76665 11.4962 1.40623 10.199 1.40623 8.91953C1.40883 4.77809 4.81485 1.40488 8.9993 1.40488C11.0208 1.40569 12.9202 2.18862 14.3476 3.60914C15.7966 5.05164 16.5943 6.93882 16.5936 8.92308C16.592 13.0655 13.1853 16.4355 8.99958 16.4355Z" fill="#40AC69"/>
<path d="M6.55072 4.98755H6.1562C6.01889 4.98755 5.79593 5.03891 5.60731 5.24394C5.41858 5.44911 4.88672 5.94499 4.88672 6.95355C4.88672 7.96212 5.62448 8.93658 5.7273 9.07351C5.83027 9.2103 7.15141 11.346 9.24385 12.1677C10.9829 12.8505 11.3369 12.7147 11.7142 12.6805C12.0916 12.6464 12.9322 12.1847 13.1037 11.7061C13.2753 11.2275 13.2753 10.8172 13.2239 10.7315C13.1723 10.646 13.035 10.5948 12.8292 10.4924C12.6233 10.3898 11.6144 9.88551 11.4256 9.81699C11.2369 9.74875 11.0997 9.71455 10.9624 9.91986C10.825 10.1248 10.4207 10.5988 10.3006 10.7356C10.1806 10.8725 10.0605 10.8897 9.85454 10.7871C9.64861 10.6842 8.99238 10.464 8.20595 9.76577C7.59382 9.22236 7.16908 8.5294 7.04894 8.32422C6.92894 8.11919 7.03617 8.00824 7.13938 7.90594C7.23189 7.81421 7.35685 7.68867 7.45978 7.56907C7.56261 7.44933 7.59189 7.3639 7.66061 7.2271C7.7292 7.09031 7.69485 6.97057 7.64344 6.86812C7.59189 6.76554 7.19684 5.75192 7.01371 5.34653H7.01385C6.85976 5.00513 6.69739 4.9936 6.55072 4.98755Z" fill="#40AC69"/>
</svg>
