<svg width="16" height="10" viewBox="0 0 16 10" fill="none" xmlns="http://www.w3.org/2000/svg">
<path fill-rule="evenodd" clip-rule="evenodd" d="M5.86726 0.0440933C5.78648 0.065835 5.69498 0.102843 5.66392 0.126368C5.53146 0.226598 5.39569 0.36587 5.35531 0.442952C5.3021 0.544528 5.32872 0.57262 5.52902 0.626208C5.84032 0.709452 6.04075 0.874001 6.1539 1.13922C6.26524 1.40009 6.3217 2.06329 6.29937 2.84708C6.27278 3.77969 6.19341 4.16419 5.99261 4.33315C5.72191 4.56092 5.36131 4.28232 4.75749 3.37889C4.30883 2.70762 3.91338 1.96884 3.49322 1.01703C3.30127 0.582161 3.1537 0.403942 2.93744 0.345724C2.84234 0.320103 2.4265 0.312251 1.53024 0.319071C0.123943 0.329832 0.106174 0.332304 0.0242127 0.530137C-0.0363199 0.676354 0.00353464 0.809995 0.295343 1.43935C1.15419 3.29162 1.95269 4.71965 2.78797 5.89718C4.25108 7.95979 5.65059 8.86928 7.62517 9.04065C8.31224 9.10028 8.87011 9.06799 9.08571 8.95609C9.2599 8.86572 9.31311 8.73061 9.36301 8.25207C9.41591 7.74503 9.45292 7.58099 9.57151 7.32816C9.73152 6.98698 9.97396 6.87509 10.2718 7.00494C10.3898 7.0564 10.5292 7.181 10.8786 7.54739C11.9006 8.61905 12.0328 8.74118 12.3196 8.87851C12.4885 8.95938 12.6646 9.01703 12.8085 9.03865C13.0936 9.08144 15.4835 9.08417 15.631 9.04187C15.974 8.94352 16.0879 8.53734 15.8869 8.12919C15.6847 7.71835 15.3148 7.2797 14.427 6.39771C13.9594 5.93315 13.5371 5.49184 13.4885 5.41698C13.3695 5.23385 13.3661 5.02429 13.4782 4.78663C13.5228 4.692 13.9156 4.13594 14.351 3.55095C15.2424 2.35334 15.5343 1.92511 15.7369 1.51755C16.031 0.925868 16.0738 0.630149 15.889 0.465038C15.7327 0.325359 15.5831 0.313096 14.0445 0.313847C12.7023 0.314504 12.6067 0.318195 12.4825 0.374598C12.3203 0.448207 12.2782 0.515591 12.0318 1.09464C11.5277 2.27958 10.9718 3.23352 10.3814 3.92679C10.1051 4.25116 9.93905 4.37995 9.79706 4.37995C9.62732 4.37995 9.46587 4.21037 9.36698 3.92816C9.34561 3.86729 9.32713 3.22401 9.31611 2.15886C9.29935 0.537677 9.29672 0.48071 9.23237 0.341563C9.16189 0.189152 9.05346 0.0953661 8.87965 0.0363976C8.72352 -0.0165646 6.06734 -0.00977609 5.86726 0.0440933Z" fill="white"/>
</svg>
