<svg width="20" height="20" viewBox="0 0 20 20" fill="none" xmlns="http://www.w3.org/2000/svg">
<g clip-path="url(#clip0_222_39)">
<path d="M8.38639 15.7354C7.41651 15.7354 6.62744 16.5244 6.62744 17.4943C6.62744 18.4642 7.41651 19.2532 8.38639 19.2532C9.35627 19.2532 10.1453 18.4642 10.1453 17.4943C10.1453 16.5244 9.35624 15.7354 8.38639 15.7354ZM8.38639 18.2711C7.95803 18.2711 7.60955 17.9225 7.60955 17.4942C7.60955 17.0659 7.95807 16.7174 8.38639 16.7174C8.81471 16.7174 9.16323 17.0659 9.16323 17.4942C9.16323 17.9226 8.81471 18.2711 8.38639 18.2711Z" fill="white"/>
<path d="M14.5558 15.7354C13.5859 15.7354 12.7969 16.5244 12.7969 17.4943C12.7969 18.4642 13.5859 19.2532 14.5558 19.2532C15.5257 19.2532 16.3148 18.4642 16.3148 17.4943C16.3147 16.5244 15.5257 15.7354 14.5558 15.7354ZM14.5558 18.2711C14.1275 18.2711 13.779 17.9225 13.779 17.4942C13.779 17.0659 14.1275 16.7174 14.5558 16.7174C14.9842 16.7174 15.3327 17.0659 15.3327 17.4942C15.3327 17.9226 14.9841 18.2711 14.5558 18.2711Z" fill="white"/>
<path d="M19.779 4.28731C19.5918 4.05747 19.3143 3.92567 19.0177 3.92567H3.72182L3.41292 2.4261C3.34843 2.11328 3.13507 1.85063 2.84206 1.7234L0.686699 0.787852C0.43787 0.679766 0.14869 0.793946 0.0407599 1.0427C-0.0672873 1.29153 0.0468927 1.58074 0.295604 1.68867L2.451 2.62426L4.82702 14.1579C4.92062 14.6121 5.32515 14.9418 5.78894 14.9418H17.5533C17.8245 14.9418 18.0443 14.722 18.0443 14.4508C18.0443 14.1796 17.8245 13.9597 17.5533 13.9597H5.78898L5.49995 12.5567H17.6442C18.108 12.5567 18.5125 12.2271 18.6061 11.7728L19.9796 5.10583C20.0394 4.81552 19.9663 4.51712 19.779 4.28731ZM17.6442 11.5747H5.29765L3.92417 4.90774L19.0177 4.90778L17.6442 11.5747Z" fill="white"/>
</g>
<defs>
<clipPath id="clip0_222_39">
<rect width="20" height="20" fill="white"/>
</clipPath>
</defs>
</svg>
