<svg width="510" height="510" viewBox="0 0 510 510" fill="none" xmlns="http://www.w3.org/2000/svg">
<path d="M313.921 246.461C313.921 281.509 285.509 309.921 250.461 309.921C215.412 309.921 187 281.509 187 246.461C187 211.412 215.412 183 250.461 183C285.509 183 313.921 211.412 313.921 246.461Z" fill="url(#paint0_linear_391_851)" fill-opacity="0.8"/>
<path d="M281.614 245.884C281.614 263.408 267.408 277.614 249.884 277.614C232.36 277.614 218.153 263.408 218.153 245.884C218.153 228.36 232.36 214.153 249.884 214.153C267.408 214.153 281.614 228.36 281.614 245.884Z" fill="#1B1D32"/>
<path d="M286.23 225.115C286.23 233.08 279.772 239.538 271.807 239.538C263.841 239.538 257.384 233.08 257.384 225.115C257.384 217.149 263.841 210.692 271.807 210.692C279.772 210.692 286.23 217.149 286.23 225.115Z" fill="white"/>
<path fill-rule="evenodd" clip-rule="evenodd" d="M255 510C395.833 510 510 395.833 510 255C510 114.167 395.833 0 255 0C114.167 0 0 114.167 0 255C0 395.833 114.167 510 255 510ZM286 179C244 171.696 203 173.318 179.5 184C156 194.682 142 204 125.5 220.5C109 237 85.5 270.5 86.5 277C87.5 283.5 164 316 245 316C326 316 392 282 389 269.5C386 257 328 186.304 286 179Z" fill="#E9F4FF"/>
<g clip-path="url(#clip0_391_851)">
<path fill-rule="evenodd" clip-rule="evenodd" d="M300.539 144.04C301.108 143.837 301.732 144.445 301.53 145.016C301.394 145.605 300.536 145.774 300.172 145.301C299.794 144.903 300.014 144.182 300.539 144.04Z" fill="#2A2651"/>
<path fill-rule="evenodd" clip-rule="evenodd" d="M281.499 144.235C281.923 144.005 282.51 144.369 282.43 144.861C282.408 145.346 281.76 145.591 281.402 145.288C281.053 145.026 281.11 144.428 281.499 144.235Z" fill="#2A2651"/>
<path fill-rule="evenodd" clip-rule="evenodd" d="M234.197 144.467C234.459 144.323 234.829 144.574 234.728 144.874C234.689 145.205 234.176 145.268 234.049 144.966C233.94 144.791 234.024 144.563 234.197 144.467Z" fill="#2A2651"/>
<path fill-rule="evenodd" clip-rule="evenodd" d="M290.472 150.892C291.295 150.698 292.188 150.804 292.934 151.206C293.994 151.779 294.74 152.924 294.748 154.138C294.813 155.317 294.205 156.502 293.212 157.143C292.16 157.857 290.71 157.903 289.601 157.293C288.954 156.928 288.42 156.361 288.12 155.682C287.693 154.736 287.717 153.596 288.2 152.675C288.646 151.787 289.501 151.116 290.472 150.892Z" fill="#2A2651"/>
<path fill-rule="evenodd" clip-rule="evenodd" d="M243.15 151C243.825 150.883 244.544 150.914 245.178 151.198C246.134 151.595 246.865 152.468 247.106 153.472C247.332 154.467 247.116 155.573 246.451 156.361C245.743 157.25 244.559 157.718 243.433 157.56C241.847 157.402 240.522 155.947 240.526 154.354C240.438 152.794 241.618 151.3 243.15 151Z" fill="#2A2651"/>
<path fill-rule="evenodd" clip-rule="evenodd" d="M234.199 151.769C235.013 151.716 235.856 152.075 236.349 152.731C236.796 153.31 236.985 154.095 236.805 154.808C236.615 155.725 235.852 156.495 234.933 156.688C234.109 156.879 233.189 156.63 232.601 156.019C231.949 155.384 231.71 154.376 231.989 153.514C232.268 152.548 233.198 151.833 234.199 151.769Z" fill="#2A2651"/>
<path fill-rule="evenodd" clip-rule="evenodd" d="M253.219 151.766C254.059 151.724 254.912 152.129 255.39 152.825C255.815 153.4 255.915 154.16 255.772 154.848C255.572 155.698 254.887 156.419 254.042 156.65C253.147 156.924 252.108 156.634 251.489 155.933C250.889 155.284 250.692 154.311 250.972 153.477C251.27 152.513 252.211 151.809 253.219 151.766Z" fill="#2A2651"/>
<path fill-rule="evenodd" clip-rule="evenodd" d="M196.269 152.534C197.299 152.403 198.272 153.359 198.159 154.389C198.112 155.299 197.247 156.062 196.335 155.988C195.441 155.965 194.661 155.149 194.698 154.255C194.671 153.387 195.403 152.595 196.269 152.534Z" fill="#2A2651"/>
<path fill-rule="evenodd" clip-rule="evenodd" d="M271.908 152.547C272.919 152.274 274.045 153.087 274.068 154.14C274.168 155.079 273.367 155.994 272.419 156.006C271.575 156.086 270.747 155.457 270.594 154.627C270.371 153.728 271 152.739 271.908 152.547Z" fill="#2A2651"/>
<path fill-rule="evenodd" clip-rule="evenodd" d="M357.353 153.182C357.734 153.091 358.183 153.148 358.472 153.442C358.949 153.875 358.925 154.716 358.419 155.117C357.925 155.563 357.053 155.427 356.722 154.853C356.343 154.261 356.657 153.36 357.353 153.182Z" fill="#2A2651"/>
<path fill-rule="evenodd" clip-rule="evenodd" d="M328.819 153.293C329.478 152.992 330.309 153.525 330.281 154.255C330.329 155.046 329.335 155.599 328.683 155.157C327.957 154.765 328.044 153.576 328.819 153.293Z" fill="#2A2651"/>
<path fill-rule="evenodd" clip-rule="evenodd" d="M215.07 153.63C215.549 153.353 216.202 153.801 216.108 154.347C216.067 154.893 215.323 155.164 214.931 154.792C214.561 154.491 214.638 153.834 215.07 153.63Z" fill="#2A2651"/>
<path fill-rule="evenodd" clip-rule="evenodd" d="M347.972 153.644C348.418 153.455 348.943 153.883 348.85 154.358C348.815 154.833 348.195 155.071 347.826 154.798C347.401 154.53 347.488 153.795 347.972 153.644Z" fill="#2A2651"/>
<path fill-rule="evenodd" clip-rule="evenodd" d="M319.526 153.721C319.897 153.588 320.322 153.843 320.331 154.249C320.335 154.641 319.891 154.969 319.526 154.792C319.054 154.638 319.06 153.882 319.526 153.721Z" fill="#2A2651"/>
<path fill-rule="evenodd" clip-rule="evenodd" d="M224.792 153.957C225.065 153.842 225.318 154.208 225.152 154.434C225.033 154.635 224.684 154.616 224.602 154.394C224.514 154.229 224.615 154.007 224.792 153.957Z" fill="#2A2651"/>
<path fill-rule="evenodd" clip-rule="evenodd" d="M262.811 153.956C263.159 153.94 263.23 154.526 262.868 154.541C262.48 154.62 262.43 153.99 262.811 153.956Z" fill="#2A2651"/>
<path fill-rule="evenodd" clip-rule="evenodd" d="M281.619 153.938C282.001 153.68 282.408 154.351 282.003 154.566C281.604 154.858 281.182 154.16 281.619 153.938Z" fill="#2A2651"/>
<path fill-rule="evenodd" clip-rule="evenodd" d="M186.854 154.043C187.193 153.882 187.304 154.514 186.945 154.479C186.685 154.533 186.623 154.091 186.854 154.043Z" fill="#2A2651"/>
<path fill-rule="evenodd" clip-rule="evenodd" d="M243.27 159.275C245.128 159.002 247.077 160.036 247.889 161.727C248.811 163.539 248.315 165.946 246.701 167.203C245.15 168.508 242.708 168.54 241.118 167.287C239.651 166.191 239 164.155 239.558 162.413C240.036 160.759 241.556 159.477 243.27 159.275Z" fill="#2A2651"/>
<path fill-rule="evenodd" clip-rule="evenodd" d="M233.639 159.376C235.376 159.07 237.247 159.903 238.144 161.424C239.216 163.122 238.921 165.545 237.43 166.903C235.948 168.389 233.384 168.538 231.726 167.258C230.19 166.15 229.555 164.005 230.212 162.234C230.726 160.756 232.089 159.618 233.639 159.376Z" fill="#2A2651"/>
<path fill-rule="evenodd" clip-rule="evenodd" d="M252.558 159.385C254.219 159.079 256.021 159.799 256.969 161.203C258.099 162.768 258.003 165.07 256.749 166.539C255.513 168.076 253.193 168.584 251.428 167.696C249.754 166.923 248.705 165.022 248.963 163.196C249.146 161.317 250.693 159.689 252.558 159.385Z" fill="#2A2651"/>
<path fill-rule="evenodd" clip-rule="evenodd" d="M262.169 159.71C263.757 159.436 265.467 160.194 266.296 161.581C267.304 163.157 267.024 165.428 265.624 166.686C264.295 167.981 262.054 168.153 260.537 167.089C259.108 166.152 258.418 164.262 258.904 162.628C259.301 161.13 260.634 159.942 262.169 159.71Z" fill="#2A2651"/>
<path fill-rule="evenodd" clip-rule="evenodd" d="M281.297 159.713C282.897 159.494 284.58 160.337 285.343 161.761C286.235 163.306 285.925 165.425 284.607 166.635C283.212 168.047 280.748 168.131 279.237 166.855C277.877 165.782 277.376 163.793 278.05 162.201C278.577 160.867 279.869 159.878 281.297 159.713Z" fill="#2A2651"/>
<path fill-rule="evenodd" clip-rule="evenodd" d="M224.029 159.826C225.706 159.436 227.57 160.267 228.384 161.785C229.35 163.46 228.864 165.795 227.281 166.919C225.761 168.099 223.389 167.935 222.061 166.542C220.802 165.345 220.541 163.302 221.381 161.798C221.925 160.801 222.919 160.068 224.029 159.826Z" fill="#2A2651"/>
<path fill-rule="evenodd" clip-rule="evenodd" d="M214.864 160.063C216.457 159.808 218.147 160.72 218.784 162.203C219.358 163.459 219.154 165.029 218.261 166.085C217.314 167.254 215.621 167.725 214.204 167.225C213.026 166.842 212.089 165.822 211.801 164.621C211.577 163.631 211.72 162.536 212.302 161.689C212.868 160.812 213.829 160.207 214.864 160.063Z" fill="#2A2651"/>
<path fill-rule="evenodd" clip-rule="evenodd" d="M291.038 161.586C292.269 161.402 293.511 162.487 293.424 163.741C293.496 165.001 292.221 166.066 290.992 165.853C289.873 165.737 289.009 164.621 289.139 163.515C289.218 162.531 290.053 161.684 291.038 161.586Z" fill="#2A2651"/>
<path fill-rule="evenodd" clip-rule="evenodd" d="M271.909 162.257C272.843 161.963 273.891 162.764 273.834 163.741C273.868 164.65 272.935 165.411 272.049 165.222C271.3 165.109 270.73 164.375 270.794 163.626C270.819 162.991 271.297 162.419 271.909 162.257Z" fill="#2A2651"/>
<path fill-rule="evenodd" clip-rule="evenodd" d="M347.758 162.266C348.576 162.002 349.54 162.542 349.687 163.399C349.912 164.252 349.235 165.164 348.366 165.239C347.625 165.332 346.873 164.809 346.72 164.08C346.518 163.324 347 162.473 347.758 162.266Z" fill="#2A2651"/>
<path fill-rule="evenodd" clip-rule="evenodd" d="M319.222 162.349C320.063 162.012 321.12 162.607 321.201 163.523C321.349 164.37 320.604 165.244 319.733 165.181C318.869 165.223 318.129 164.354 318.299 163.508C318.348 162.986 318.734 162.531 319.222 162.349Z" fill="#2A2651"/>
<path fill-rule="evenodd" clip-rule="evenodd" d="M167.527 162.597C168.329 162.257 169.301 162.983 169.175 163.849C169.122 164.733 167.988 165.25 167.281 164.717C166.492 164.226 166.644 162.897 167.527 162.597Z" fill="#2A2651"/>
<path fill-rule="evenodd" clip-rule="evenodd" d="M205.552 163.023C206.056 162.731 206.747 163.17 206.696 163.747C206.723 164.361 205.925 164.73 205.452 164.361C204.97 164.057 205.041 163.257 205.552 163.023Z" fill="#2A2651"/>
<path fill-rule="evenodd" clip-rule="evenodd" d="M357.459 163.111C357.87 162.939 358.389 163.29 358.327 163.744C358.37 164.238 357.72 164.564 357.332 164.277C356.879 164.022 356.958 163.261 357.459 163.111Z" fill="#2A2651"/>
<path fill-rule="evenodd" clip-rule="evenodd" d="M196.145 163.219C196.514 162.994 197.039 163.303 197.006 163.738C197.025 164.183 196.449 164.457 196.098 164.203C195.759 163.984 195.777 163.4 196.145 163.219Z" fill="#2A2651"/>
<path fill-rule="evenodd" clip-rule="evenodd" d="M338.441 163.209C338.851 162.978 339.403 163.377 339.281 163.84C339.223 164.304 338.549 164.461 338.276 164.095C338.02 163.834 338.131 163.374 338.441 163.209Z" fill="#2A2651"/>
<path fill-rule="evenodd" clip-rule="evenodd" d="M376.37 163.219C376.733 163.001 377.282 163.294 377.232 163.736C377.252 164.146 376.763 164.427 376.409 164.243C375.991 164.079 375.976 163.419 376.37 163.219Z" fill="#2A2651"/>
<path fill-rule="evenodd" clip-rule="evenodd" d="M310.141 163.431C310.552 163.242 310.75 163.975 310.325 164.029C309.958 164.128 309.78 163.54 310.141 163.431Z" fill="#2A2651"/>
<path fill-rule="evenodd" clip-rule="evenodd" d="M366.983 163.453C367.311 163.24 367.68 163.717 367.382 163.967C367.062 164.24 366.631 163.705 366.983 163.453Z" fill="#2A2651"/>
<path fill-rule="evenodd" clip-rule="evenodd" d="M177.336 163.527C177.613 163.3 177.885 163.888 177.52 163.939C177.253 164.051 177.106 163.642 177.336 163.527Z" fill="#2A2651"/>
<path fill-rule="evenodd" clip-rule="evenodd" d="M300.732 163.55C300.935 163.495 301.005 163.838 300.812 163.892C300.601 163.948 300.527 163.597 300.732 163.55Z" fill="#2A2651"/>
<path fill-rule="evenodd" clip-rule="evenodd" d="M261.845 168.32C263.334 167.993 264.984 168.446 266.033 169.567C267.362 170.879 267.679 173.053 266.816 174.703C266.073 176.182 264.453 177.174 262.79 177.13C261.081 177.146 259.436 176.064 258.752 174.506C258.044 172.969 258.317 171.042 259.436 169.768C260.053 169.041 260.915 168.53 261.845 168.32Z" fill="#2A2651"/>
<path fill-rule="evenodd" clip-rule="evenodd" d="M281.188 168.664C282.592 168.469 284.083 168.965 285.065 169.991C286.19 171.097 286.634 172.816 286.231 174.335C285.83 175.966 284.445 177.297 282.801 177.644C281.132 178.031 279.281 177.39 278.227 176.042C277.058 174.629 276.908 172.491 277.832 170.914C278.519 169.696 279.799 168.84 281.188 168.664Z" fill="#2A2651"/>
<path fill-rule="evenodd" clip-rule="evenodd" d="M300.643 168.647C302.651 168.56 304.6 169.965 305.136 171.899C305.717 173.767 304.922 175.957 303.255 176.993C301.544 178.151 299.051 177.911 297.6 176.44C296.355 175.267 295.9 173.359 296.459 171.747C297.022 169.972 298.78 168.682 300.643 168.647Z" fill="#2A2651"/>
<path fill-rule="evenodd" clip-rule="evenodd" d="M329.055 168.649C331.005 168.549 332.919 169.845 333.529 171.699C334.203 173.56 333.484 175.808 331.834 176.913C330.238 178.056 327.907 177.984 326.389 176.738C324.822 175.532 324.252 173.26 325.024 171.449C325.672 169.836 327.315 168.701 329.055 168.649Z" fill="#2A2651"/>
<path fill-rule="evenodd" clip-rule="evenodd" d="M186.657 168.761C188.355 168.635 190.073 169.58 190.86 171.09C191.565 172.388 191.551 174.053 190.833 175.342C189.934 177.002 187.905 177.945 186.057 177.532C184.059 177.169 182.463 175.271 182.515 173.235C182.453 171.665 183.35 170.124 184.711 169.35C185.303 169.006 185.975 168.811 186.657 168.761Z" fill="#2A2651"/>
<path fill-rule="evenodd" clip-rule="evenodd" d="M195.595 168.754C197.481 168.37 199.527 169.348 200.414 171.049C201.356 172.749 201.028 175.041 199.618 176.389C198.207 177.843 195.781 178.126 194.071 177.041C192.411 176.071 191.562 173.979 192.032 172.124C192.423 170.432 193.877 169.046 195.595 168.754Z" fill="#2A2651"/>
<path fill-rule="evenodd" clip-rule="evenodd" d="M205.103 168.749C206.93 168.388 208.898 169.298 209.821 170.906C210.84 172.589 210.568 174.919 209.178 176.314C207.761 177.846 205.248 178.147 203.501 177.008C201.908 176.04 201.07 174.019 201.5 172.208C201.86 170.471 203.347 169.038 205.103 168.749Z" fill="#2A2651"/>
<path fill-rule="evenodd" clip-rule="evenodd" d="M309.589 168.751C310.848 168.56 312.176 168.927 313.151 169.747C314.65 170.969 315.177 173.197 314.391 174.961C313.648 176.777 311.605 177.933 309.661 177.633C307.539 177.403 305.791 175.465 305.766 173.339C305.637 171.13 307.393 169.033 309.589 168.751Z" fill="#2A2651"/>
<path fill-rule="evenodd" clip-rule="evenodd" d="M177.03 169.092C178.916 168.862 180.848 170.109 181.389 171.93C181.97 173.636 181.254 175.666 179.73 176.631C178.73 177.298 177.438 177.468 176.288 177.142C175.143 176.813 174.167 175.958 173.688 174.87C173.025 173.417 173.305 171.588 174.398 170.417C175.073 169.674 176.028 169.189 177.03 169.092Z" fill="#2A2651"/>
<path fill-rule="evenodd" clip-rule="evenodd" d="M252.775 169.103C254.362 168.775 256.097 169.523 256.926 170.914C257.907 172.453 257.624 174.651 256.267 175.877C255.013 177.094 252.938 177.3 251.462 176.371C250.075 175.539 249.303 173.807 249.648 172.225C249.926 170.676 251.225 169.384 252.775 169.103Z" fill="#2A2651"/>
<path fill-rule="evenodd" clip-rule="evenodd" d="M223.474 169.312C225.238 168.908 227.183 169.885 227.909 171.54C228.707 173.225 228.118 175.425 226.547 176.451C224.961 177.596 222.556 177.292 221.3 175.796C220.044 174.411 220.001 172.128 221.204 170.696C221.77 169.992 222.588 169.495 223.474 169.312Z" fill="#2A2651"/>
<path fill-rule="evenodd" clip-rule="evenodd" d="M356.916 169.302C358.168 169.05 359.528 169.44 360.444 170.331C361.824 171.608 362.05 173.895 360.969 175.427C359.989 176.909 357.954 177.548 356.299 176.902C354.564 176.298 353.444 174.375 353.767 172.573C353.988 170.963 355.316 169.592 356.916 169.302Z" fill="#2A2651"/>
<path fill-rule="evenodd" clip-rule="evenodd" d="M244.372 169.423C246.222 169.354 247.982 170.739 248.333 172.553C248.785 174.453 247.595 176.558 245.725 177.138C244.004 177.75 241.927 176.993 241.032 175.401C240.135 173.941 240.357 171.921 241.542 170.686C242.26 169.899 243.309 169.448 244.372 169.423Z" fill="#2A2651"/>
<path fill-rule="evenodd" clip-rule="evenodd" d="M271.786 169.869C273.48 169.558 275.267 170.77 275.598 172.455C275.984 173.997 275.082 175.715 273.603 176.292C272.103 176.944 270.203 176.307 269.405 174.882C268.754 173.784 268.808 172.311 269.551 171.27C270.064 170.525 270.889 170.01 271.786 169.869Z" fill="#2A2651"/>
<path fill-rule="evenodd" clip-rule="evenodd" d="M290.587 169.983C291.971 169.668 293.505 170.349 294.17 171.607C294.781 172.705 294.686 174.159 293.919 175.159C293.208 176.122 291.937 176.631 290.756 176.422C289.67 176.262 288.707 175.509 288.275 174.507C287.842 173.52 287.93 172.322 288.519 171.417C288.978 170.687 289.744 170.165 290.587 169.983Z" fill="#2A2651"/>
<path fill-rule="evenodd" clip-rule="evenodd" d="M319.229 169.974C320.303 169.8 321.46 170.198 322.179 171.018C322.723 171.612 323.007 172.422 323.009 173.224C323.002 174.345 322.374 175.436 321.399 175.997C320.031 176.823 318.085 176.454 317.144 175.156C316.319 174.096 316.264 172.512 317.019 171.402C317.51 170.642 318.334 170.112 319.229 169.974Z" fill="#2A2651"/>
<path fill-rule="evenodd" clip-rule="evenodd" d="M233.429 170.199C234.19 170.066 235.008 170.112 235.705 170.474C236.735 170.964 237.479 171.996 237.615 173.128C237.856 174.695 236.856 176.328 235.356 176.843C234.131 177.294 232.673 176.978 231.746 176.063C230.759 175.127 230.457 173.597 230.93 172.337C231.339 171.272 232.304 170.43 233.429 170.199Z" fill="#2A2651"/>
<path fill-rule="evenodd" clip-rule="evenodd" d="M337.916 170.195C338.852 169.955 339.901 170.152 340.654 170.769C341.575 171.489 342.024 172.763 341.735 173.897C341.509 174.906 340.736 175.772 339.755 176.105C338.365 176.624 336.657 175.984 335.985 174.658C335.489 173.749 335.492 172.588 336.003 171.686C336.4 170.955 337.108 170.402 337.916 170.195Z" fill="#2A2651"/>
<path fill-rule="evenodd" clip-rule="evenodd" d="M214.969 171.646C215.914 171.349 216.997 172.117 217.001 173.11C217.079 174.005 216.256 174.854 215.351 174.779C214.529 174.799 213.794 174.049 213.807 173.234C213.755 172.517 214.277 171.823 214.969 171.646Z" fill="#2A2651"/>
<path fill-rule="evenodd" clip-rule="evenodd" d="M366.981 171.943C367.773 171.787 368.559 172.552 368.418 173.349C368.366 174.147 367.429 174.674 366.707 174.358C366.041 174.12 365.719 173.277 366.032 172.651C366.198 172.271 366.572 172.005 366.981 171.943Z" fill="#2A2651"/>
<path fill-rule="evenodd" clip-rule="evenodd" d="M167.634 172.165C168.314 171.92 169.117 172.509 169.036 173.236C169.07 174.076 167.948 174.577 167.318 174.046C166.634 173.575 166.829 172.385 167.634 172.165Z" fill="#2A2651"/>
<path fill-rule="evenodd" clip-rule="evenodd" d="M148.613 172.293C149.3 171.981 150.132 172.635 149.953 173.372C149.857 174.1 148.86 174.41 148.344 173.91C147.83 173.475 147.975 172.534 148.613 172.293Z" fill="#2A2651"/>
<path fill-rule="evenodd" clip-rule="evenodd" d="M347.96 172.493C348.429 172.315 348.991 172.719 348.928 173.226C348.947 173.807 348.164 174.144 347.74 173.758C347.303 173.434 347.427 172.644 347.96 172.493Z" fill="#2A2651"/>
<path fill-rule="evenodd" clip-rule="evenodd" d="M158.121 173.213C158.074 172.93 158.377 172.835 158.596 172.79C158.706 172.915 158.888 173.026 158.844 173.224C158.859 173.66 158.099 173.651 158.121 173.213Z" fill="#2A2651"/>
<path fill-rule="evenodd" clip-rule="evenodd" d="M395.387 172.812C395.64 172.644 396.045 172.801 396.067 173.122C396.14 173.456 395.744 173.746 395.444 173.597C395.119 173.477 395.091 172.977 395.387 172.812Z" fill="#2A2651"/>
<path fill-rule="evenodd" clip-rule="evenodd" d="M386.094 173.033C386.282 172.968 386.375 173.289 386.178 173.333C385.984 173.39 385.896 173.08 386.094 173.033Z" fill="#2A2651"/>
<path fill-rule="evenodd" clip-rule="evenodd" d="M157.791 178.246C159.66 177.929 161.659 178.94 162.48 180.65C163.442 182.481 162.895 184.94 161.229 186.177C159.653 187.441 157.214 187.417 155.667 186.117C154.133 184.917 153.581 182.663 154.377 180.888C154.963 179.499 156.298 178.468 157.791 178.246Z" fill="#2A2651"/>
<path fill-rule="evenodd" clip-rule="evenodd" d="M309.387 178.252C310.68 178.002 312.081 178.327 313.101 179.172C314.528 180.294 315.108 182.322 314.537 184.038C313.984 185.821 312.215 187.147 310.337 187.131C308.482 187.206 306.673 185.976 306.05 184.234C305.611 183.071 305.679 181.728 306.247 180.621C306.859 179.41 308.045 178.498 309.387 178.252Z" fill="#2A2651"/>
<path fill-rule="evenodd" clip-rule="evenodd" d="M338.355 178.469C340.233 178.277 342.133 179.515 342.704 181.311C343.321 183.047 342.619 185.132 341.07 186.138C339.837 186.978 338.153 187.078 336.824 186.407C335.278 185.649 334.312 183.883 334.538 182.175C334.716 180.24 336.414 178.597 338.355 178.469Z" fill="#2A2651"/>
<path fill-rule="evenodd" clip-rule="evenodd" d="M300.226 178.597C301.524 178.415 302.895 178.895 303.776 179.869C304.947 181.078 305.212 183.043 304.423 184.526C303.87 185.614 302.803 186.429 301.6 186.661C300.38 186.923 299.047 186.58 298.104 185.766C296.677 184.588 296.248 182.404 297.126 180.777C297.721 179.603 298.916 178.757 300.226 178.597Z" fill="#2A2651"/>
<path fill-rule="evenodd" clip-rule="evenodd" d="M328.642 178.602C330.641 178.271 332.737 179.646 333.201 181.619C333.715 183.452 332.747 185.547 331.012 186.341C329.336 187.185 327.135 186.669 326 185.182C325.095 184.058 324.894 182.44 325.429 181.111C325.952 179.782 327.224 178.794 328.642 178.602Z" fill="#2A2651"/>
<path fill-rule="evenodd" clip-rule="evenodd" d="M148.064 178.692C149.771 178.275 151.677 179.088 152.535 180.62C153.247 181.85 153.255 183.457 152.534 184.684C151.727 186.13 149.975 186.958 148.342 186.665C146.402 186.399 144.853 184.553 144.928 182.6C144.908 180.779 146.286 179.08 148.064 178.692Z" fill="#2A2651"/>
<path fill-rule="evenodd" clip-rule="evenodd" d="M167.959 178.692C169.907 178.641 171.716 180.227 171.909 182.164C172.175 183.964 171.01 185.828 169.28 186.397C167.546 187.03 165.45 186.26 164.543 184.657C163.604 183.11 163.921 180.949 165.273 179.742C165.994 179.07 166.974 178.695 167.959 178.692Z" fill="#2A2651"/>
<path fill-rule="evenodd" clip-rule="evenodd" d="M319.114 179.248C320.255 179.041 321.494 179.421 322.277 180.287C323.42 181.45 323.527 183.441 322.529 184.727C321.756 185.782 320.347 186.322 319.067 186.049C318.123 185.869 317.271 185.272 316.777 184.453C316.242 183.589 316.133 182.49 316.459 181.533C316.842 180.364 317.901 179.46 319.114 179.248Z" fill="#2A2651"/>
<path fill-rule="evenodd" clip-rule="evenodd" d="M385.676 180.124C386.674 179.931 387.767 180.388 388.307 181.253C388.934 182.191 388.835 183.546 388.062 184.372C387.406 185.13 386.283 185.411 385.337 185.096C384.356 184.791 383.632 183.845 383.574 182.824C383.463 181.561 384.42 180.326 385.676 180.124Z" fill="#2A2651"/>
<path fill-rule="evenodd" clip-rule="evenodd" d="M366.652 181.111C367.51 180.8 368.551 181.35 368.752 182.245C369.037 183.183 368.269 184.262 367.28 184.264C366.393 184.367 365.555 183.6 365.547 182.718C365.506 182.016 365.978 181.325 366.652 181.111Z" fill="#2A2651"/>
<path fill-rule="evenodd" clip-rule="evenodd" d="M376.158 181.109C377.022 180.798 378.06 181.376 378.245 182.275C378.517 183.237 377.688 184.327 376.673 184.265C375.816 184.323 375.039 183.566 375.033 182.718C374.987 182.009 375.475 181.312 376.158 181.109Z" fill="#2A2651"/>
<path fill-rule="evenodd" clip-rule="evenodd" d="M177.034 181.665C177.769 181.305 178.686 182.023 178.518 182.82C178.447 183.656 177.289 184.02 176.717 183.436C176.147 182.949 176.333 181.921 177.034 181.665Z" fill="#2A2651"/>
<path fill-rule="evenodd" clip-rule="evenodd" d="M357.46 182.183C357.807 181.983 358.278 182.329 358.208 182.721C358.19 183.106 357.696 183.286 357.396 183.09C357.067 182.897 357.097 182.322 357.46 182.183Z" fill="#2A2651"/>
<path fill-rule="evenodd" clip-rule="evenodd" d="M395.218 182.72C395.11 182.288 395.768 182.046 395.986 182.423C396.151 182.654 395.975 182.898 395.825 183.078C395.583 183.054 395.231 183.036 395.218 182.72Z" fill="#2A2651"/>
<path fill-rule="evenodd" clip-rule="evenodd" d="M139.319 182.438C139.603 182.173 140.008 182.663 139.694 182.881C139.423 183.123 139.029 182.662 139.319 182.438Z" fill="#2A2651"/>
<path fill-rule="evenodd" clip-rule="evenodd" d="M347.894 182.602C347.9 182.349 348.274 182.255 348.429 182.434C348.564 182.557 348.481 182.735 348.46 182.888C348.382 182.917 348.228 182.973 348.151 183.001C348.024 182.896 347.83 182.797 347.894 182.602Z" fill="#2A2651"/>
<path fill-rule="evenodd" clip-rule="evenodd" d="M347.29 187.724C349.177 187.312 351.252 188.261 352.152 189.968C353.2 191.823 352.687 194.393 350.96 195.664C349.38 196.934 346.937 196.905 345.38 195.615C343.942 194.496 343.362 192.473 343.917 190.752C344.389 189.238 345.727 188.026 347.29 187.724Z" fill="#2A2651"/>
<path fill-rule="evenodd" clip-rule="evenodd" d="M148.525 187.973C150.462 187.712 152.453 189.008 152.994 190.882C153.596 192.706 152.733 194.85 151.043 195.762C149.369 196.727 147.056 196.325 145.822 194.835C144.6 193.454 144.488 191.246 145.557 189.745C146.228 188.763 147.339 188.101 148.525 187.973Z" fill="#2A2651"/>
<path fill-rule="evenodd" clip-rule="evenodd" d="M319.244 187.976C320.542 187.809 321.901 188.304 322.794 189.257C324.018 190.521 324.28 192.586 323.414 194.117C322.574 195.719 320.617 196.605 318.853 196.194C317.512 195.915 316.349 194.93 315.855 193.657C315.28 192.218 315.577 190.472 316.63 189.328C317.299 188.58 318.245 188.091 319.244 187.976Z" fill="#2A2651"/>
<path fill-rule="evenodd" clip-rule="evenodd" d="M328.508 187.955C329.282 187.832 330.093 187.904 330.822 188.201C332.094 188.704 333.078 189.866 333.366 191.202C333.572 192.269 333.424 193.423 332.831 194.349C331.874 195.935 329.803 196.726 328.03 196.169C326.15 195.656 324.812 193.711 325.014 191.775C325.125 189.9 326.653 188.242 328.508 187.955Z" fill="#2A2651"/>
<path fill-rule="evenodd" clip-rule="evenodd" d="M139.011 188.189C140.664 187.955 142.4 188.885 143.096 190.405C143.63 191.512 143.608 192.872 143.032 193.962C142.533 194.907 141.64 195.641 140.607 195.927C139.166 196.342 137.511 195.876 136.53 194.738C135.549 193.64 135.264 191.981 135.835 190.624C136.353 189.321 137.612 188.347 139.011 188.189Z" fill="#2A2651"/>
<path fill-rule="evenodd" clip-rule="evenodd" d="M338.146 188.198C339.315 188.028 340.557 188.397 341.418 189.211C342.771 190.423 343.09 192.597 342.132 194.142C341.315 195.571 339.552 196.333 337.943 196.006C336.648 195.763 335.515 194.82 335.032 193.599C334.451 192.152 334.794 190.373 335.93 189.288C336.53 188.704 337.315 188.312 338.146 188.198Z" fill="#2A2651"/>
<path fill-rule="evenodd" clip-rule="evenodd" d="M375.945 189.295C376.994 189.039 378.178 189.379 378.875 190.219C379.645 191.086 379.794 192.43 379.254 193.453C378.877 194.198 378.158 194.767 377.341 194.95C376.446 195.171 375.449 194.933 374.755 194.329C373.939 193.637 373.551 192.472 373.824 191.435C374.054 190.399 374.912 189.544 375.945 189.295Z" fill="#2A2651"/>
<path fill-rule="evenodd" clip-rule="evenodd" d="M357.127 190.478C358.143 190.104 359.375 190.874 359.409 191.969C359.532 192.912 358.726 193.833 357.775 193.842C356.89 193.918 356.036 193.197 355.967 192.314C355.861 191.529 356.368 190.715 357.127 190.478Z" fill="#2A2651"/>
<path fill-rule="evenodd" clip-rule="evenodd" d="M158.132 190.61C159.052 190.358 160.058 191.139 160.036 192.092C160.077 192.922 159.34 193.677 158.509 193.663C157.74 193.694 157.018 193.077 156.949 192.31C156.834 191.549 157.374 190.765 158.132 190.61Z" fill="#2A2651"/>
<path fill-rule="evenodd" clip-rule="evenodd" d="M386.11 191.036C386.919 190.987 387.509 191.948 387.091 192.644C386.715 193.396 385.471 193.352 385.164 192.567C384.833 191.895 385.363 191.044 386.11 191.036Z" fill="#2A2651"/>
<path fill-rule="evenodd" clip-rule="evenodd" d="M310.161 191.148C310.853 191.057 311.441 191.82 311.168 192.468C310.932 193.189 309.829 193.304 309.447 192.653C309.037 192.08 309.454 191.193 310.161 191.148Z" fill="#2A2651"/>
<path fill-rule="evenodd" clip-rule="evenodd" d="M367.104 191.146C367.816 191.066 368.394 191.897 368.055 192.535C367.778 193.198 366.749 193.277 366.372 192.671C365.945 192.091 366.372 191.167 367.104 191.146Z" fill="#2A2651"/>
<path fill-rule="evenodd" clip-rule="evenodd" d="M130.032 191.486C130.532 191.465 130.845 192.109 130.533 192.492C130.281 192.869 129.642 192.805 129.461 192.395C129.255 191.996 129.578 191.468 130.032 191.486Z" fill="#2A2651"/>
<path fill-rule="evenodd" clip-rule="evenodd" d="M328.407 197.118C329.568 196.921 330.811 197.147 331.786 197.824C333.311 198.833 334.093 200.799 333.67 202.577C333.259 204.594 331.311 206.169 329.242 206.109C327.418 206.168 325.661 204.96 325.008 203.271C324.262 201.48 324.835 199.254 326.364 198.053C326.949 197.572 327.662 197.255 328.407 197.118Z" fill="#2A2651"/>
<path fill-rule="evenodd" clip-rule="evenodd" d="M347.307 197.105C349.221 196.696 351.321 197.672 352.226 199.407C353.199 201.134 352.854 203.475 351.409 204.84C349.903 206.381 347.269 206.579 345.541 205.298C343.961 204.206 343.241 202.069 343.827 200.243C344.294 198.666 345.685 197.407 347.307 197.105Z" fill="#2A2651"/>
<path fill-rule="evenodd" clip-rule="evenodd" d="M356.809 197.21C358.059 196.964 359.415 197.26 360.422 198.051C361.693 199.003 362.352 200.672 362.11 202.235C361.914 203.656 360.975 204.95 359.681 205.576C357.915 206.479 355.574 206.026 354.302 204.499C353.076 203.121 352.877 200.963 353.8 199.374C354.425 198.263 355.553 197.447 356.809 197.21Z" fill="#2A2651"/>
<path fill-rule="evenodd" clip-rule="evenodd" d="M366.444 197.235C367.642 197.041 368.921 197.339 369.88 198.094C371.225 199.117 371.877 200.935 371.479 202.576C371.058 204.566 369.096 206.095 367.054 205.979C364.891 205.994 362.95 204.165 362.777 202.027C362.583 200.3 363.519 198.519 365.06 197.709C365.489 197.474 365.959 197.316 366.444 197.235Z" fill="#2A2651"/>
<path fill-rule="evenodd" clip-rule="evenodd" d="M376.279 197.665C378.224 197.431 380.172 198.868 380.523 200.79C380.892 202.426 380.055 204.23 378.578 205.025C377.347 205.716 375.745 205.674 374.556 204.913C373.192 204.084 372.452 202.366 372.795 200.808C373.093 199.144 374.59 197.799 376.279 197.665Z" fill="#2A2651"/>
<path fill-rule="evenodd" clip-rule="evenodd" d="M338.011 197.764C339.207 197.558 340.492 197.896 341.375 198.743C342.526 199.783 342.918 201.54 342.35 202.979C341.899 204.179 340.808 205.113 339.55 205.377C338.754 205.514 337.906 205.479 337.162 205.146C335.583 204.493 334.587 202.711 334.868 201.03C335.063 199.413 336.407 198.032 338.011 197.764Z" fill="#2A2651"/>
<path fill-rule="evenodd" clip-rule="evenodd" d="M385.337 198.321C386.312 198.091 387.391 198.293 388.186 198.91C389.047 199.548 389.553 200.622 389.504 201.691C389.49 202.873 388.774 204.007 387.727 204.55C386.352 205.299 384.477 204.932 383.52 203.687C382.834 202.849 382.601 201.665 382.918 200.63C383.236 199.503 384.194 198.588 385.337 198.321Z" fill="#2A2651"/>
<path fill-rule="evenodd" clip-rule="evenodd" d="M405.139 198.99C406.132 198.832 407.199 199.298 407.738 200.149C408.333 201.035 408.3 202.284 407.66 203.138C407.175 203.805 406.361 204.217 405.535 204.211C404.574 204.213 403.63 203.654 403.201 202.794C402.69 201.835 402.856 200.56 403.626 199.786C404.019 199.356 404.562 199.077 405.139 198.99Z" fill="#2A2651"/>
<path fill-rule="evenodd" clip-rule="evenodd" d="M395.391 200.186C396.304 199.991 397.215 200.88 397.032 201.795C396.946 202.602 396.067 203.171 395.292 202.959C394.668 202.819 394.197 202.22 394.214 201.582C394.194 200.907 394.726 200.288 395.391 200.186Z" fill="#2A2651"/>
<path fill-rule="evenodd" clip-rule="evenodd" d="M319.429 200.856C319.926 200.638 320.572 201.025 320.525 201.589C320.57 202.208 319.783 202.581 319.3 202.236C318.795 201.923 318.872 201.068 319.429 200.856Z" fill="#2A2651"/>
<path fill-rule="evenodd" clip-rule="evenodd" d="M129.937 200.962C130.413 200.865 130.817 201.42 130.6 201.848C130.438 202.243 129.842 202.338 129.569 202.009C129.219 201.673 129.45 201.004 129.937 200.962Z" fill="#2A2651"/>
<path fill-rule="evenodd" clip-rule="evenodd" d="M423.813 201.07C424.182 200.889 424.694 201.145 424.665 201.588C424.703 202.076 424.02 202.347 423.694 202.003C423.396 201.754 423.482 201.249 423.813 201.07Z" fill="#2A2651"/>
<path fill-rule="evenodd" clip-rule="evenodd" d="M111.015 201.294C111.343 201.223 111.49 201.775 111.146 201.857C110.77 202.004 110.615 201.333 111.015 201.294Z" fill="#2A2651"/>
<path fill-rule="evenodd" clip-rule="evenodd" d="M120.168 201.575C120.291 201.457 120.373 201.207 120.589 201.271C120.935 201.293 120.941 201.869 120.594 201.893C120.371 201.955 120.288 201.7 120.168 201.575Z" fill="#2A2651"/>
<path fill-rule="evenodd" clip-rule="evenodd" d="M139.312 201.269C139.708 200.988 140.134 201.677 139.698 201.896C139.309 202.175 138.905 201.496 139.312 201.269Z" fill="#2A2651"/>
<path fill-rule="evenodd" clip-rule="evenodd" d="M337.797 206.602C339.046 206.346 340.406 206.629 341.427 207.399C342.856 208.438 343.571 210.344 343.15 212.062C342.73 214.062 340.806 215.622 338.751 215.578C336.839 215.643 335.003 214.323 334.411 212.518C333.819 210.815 334.341 208.782 335.734 207.618C336.315 207.106 337.037 206.757 337.797 206.602Z" fill="#2A2651"/>
<path fill-rule="evenodd" clip-rule="evenodd" d="M375.836 206.93C377.045 206.697 378.357 206.994 379.312 207.785C380.806 208.948 381.295 211.171 380.458 212.865C379.665 214.577 377.63 215.584 375.784 215.154C373.903 214.792 372.404 212.989 372.469 211.067C372.384 209.108 373.915 207.274 375.836 206.93Z" fill="#2A2651"/>
<path fill-rule="evenodd" clip-rule="evenodd" d="M356.927 207.265C357.751 207.124 358.628 207.202 359.385 207.577C360.444 208.085 361.239 209.103 361.471 210.253C361.611 211.018 361.56 211.828 361.251 212.548C360.725 213.821 359.468 214.757 358.091 214.885C356.342 215.098 354.549 213.953 354.022 212.273C353.476 210.705 354.079 208.826 355.461 207.892C355.894 207.578 356.401 207.372 356.927 207.265Z" fill="#2A2651"/>
<path fill-rule="evenodd" clip-rule="evenodd" d="M347.536 207.381C348.714 207.172 349.98 207.542 350.828 208.393C351.98 209.497 352.265 211.363 351.518 212.768C350.967 213.829 349.883 214.6 348.69 214.741C347.115 214.975 345.465 214.068 344.813 212.622C344.341 211.594 344.349 210.352 344.879 209.346C345.392 208.323 346.407 207.577 347.536 207.381Z" fill="#2A2651"/>
<path fill-rule="evenodd" clip-rule="evenodd" d="M394.962 207.594C396.134 207.369 397.412 207.765 398.216 208.655C399.489 209.957 399.452 212.255 398.139 213.516C396.901 214.84 394.621 214.906 393.293 213.682C391.967 212.558 391.723 210.422 392.747 209.025C393.27 208.291 394.071 207.759 394.962 207.594Z" fill="#2A2651"/>
<path fill-rule="evenodd" clip-rule="evenodd" d="M328.846 209.248C329.751 209.039 330.758 209.621 330.995 210.525C331.312 211.482 330.669 212.614 329.678 212.826C328.771 213.071 327.741 212.518 327.481 211.613C327.119 210.621 327.807 209.437 328.846 209.248Z" fill="#2A2651"/>
<path fill-rule="evenodd" clip-rule="evenodd" d="M423.599 209.359C424.488 209.085 425.513 209.625 425.769 210.52C426.085 211.427 425.501 212.515 424.562 212.741C423.585 213.045 422.449 212.32 422.351 211.298C422.206 210.455 422.769 209.574 423.599 209.359Z" fill="#2A2651"/>
<path fill-rule="evenodd" clip-rule="evenodd" d="M129.816 209.461C130.749 209.306 131.673 210.12 131.634 211.063C131.649 212.002 130.709 212.81 129.778 212.628C128.947 212.519 128.31 211.673 128.441 210.846C128.504 210.14 129.112 209.54 129.816 209.461Z" fill="#2A2651"/>
<path fill-rule="evenodd" clip-rule="evenodd" d="M120.522 209.573C121.498 209.53 122.286 210.598 121.94 211.511C121.699 212.323 120.705 212.74 119.943 212.392C119.275 212.114 118.908 211.302 119.133 210.618C119.307 210.017 119.898 209.583 120.522 209.573Z" fill="#2A2651"/>
<path fill-rule="evenodd" clip-rule="evenodd" d="M366.857 210.102C367.48 209.889 368.22 210.391 368.164 211.067C368.206 211.808 367.272 212.311 366.661 211.904C365.941 211.525 366.064 210.311 366.857 210.102Z" fill="#2A2651"/>
<path fill-rule="evenodd" clip-rule="evenodd" d="M414.309 210.23C414.895 210 415.587 210.556 415.461 211.18C415.396 211.795 414.605 212.123 414.11 211.766C413.533 211.405 413.656 210.431 414.309 210.23Z" fill="#2A2651"/>
<path fill-rule="evenodd" clip-rule="evenodd" d="M386.013 210.351C386.524 210.228 387.004 210.779 386.82 211.272C386.666 211.84 385.779 211.913 385.524 211.393C385.277 210.995 385.551 210.421 386.013 210.351Z" fill="#2A2651"/>
<path fill-rule="evenodd" clip-rule="evenodd" d="M91.8878 210.785C92.2184 210.555 92.5855 211.037 92.2958 211.297C91.974 211.564 91.5539 211.037 91.8878 210.785Z" fill="#2A2651"/>
<path fill-rule="evenodd" clip-rule="evenodd" d="M366.166 216.167C368.041 215.701 370.15 216.622 371.069 218.32C372.09 220.06 371.712 222.467 370.195 223.803C369.642 224.338 368.925 224.632 368.218 224.898C370.046 225.286 371.627 226.69 372.139 228.496C372.742 230.448 372.057 232.715 370.449 233.986C368.743 235.412 366.1 235.528 364.273 234.263C362.593 233.158 361.687 231.017 362.079 229.047C362.425 226.965 364.187 225.225 366.272 224.884C364.336 224.518 362.786 222.742 362.714 220.773C362.538 218.665 364.095 216.599 366.166 216.167Z" fill="#2A2651"/>
<path fill-rule="evenodd" clip-rule="evenodd" d="M375.844 216.098C377.66 215.745 379.626 216.633 380.54 218.241C381.608 219.989 381.251 222.44 379.718 223.804C378.166 225.296 375.522 225.394 373.86 224.029C372.365 222.871 371.76 220.732 372.436 218.967C372.962 217.503 374.306 216.364 375.844 216.098Z" fill="#2A2651"/>
<path fill-rule="evenodd" clip-rule="evenodd" d="M395.409 216.527C397.314 216.385 399.178 217.795 399.54 219.669C399.943 221.393 399.031 223.312 397.428 224.076C396.318 224.644 394.942 224.635 393.831 224.078C392.82 223.565 392.031 222.615 391.762 221.512C391.369 220.038 391.904 218.371 393.103 217.42C393.75 216.887 394.571 216.58 395.409 216.527Z" fill="#2A2651"/>
<path fill-rule="evenodd" clip-rule="evenodd" d="M404.351 216.518C405.579 216.283 406.912 216.634 407.838 217.482C409.04 218.519 409.491 220.29 408.989 221.786C408.684 222.734 408.008 223.555 407.141 224.046C405.929 224.742 404.351 224.749 403.132 224.066C401.67 223.281 400.818 221.544 401.088 219.911C401.307 218.24 402.688 216.807 404.351 216.518Z" fill="#2A2651"/>
<path fill-rule="evenodd" clip-rule="evenodd" d="M357.045 216.867C358.012 216.707 359.042 216.917 359.84 217.496C360.79 218.156 361.378 219.287 361.397 220.439C361.444 221.914 360.511 223.356 359.142 223.917C358.06 224.375 356.754 224.29 355.754 223.671C355.188 223.33 354.725 222.828 354.412 222.25C353.822 221.157 353.843 219.764 354.458 218.686C355 217.743 355.963 217.043 357.045 216.867Z" fill="#2A2651"/>
<path fill-rule="evenodd" clip-rule="evenodd" d="M119.983 218.514C120.483 218.41 121.035 218.419 121.494 218.669C122.121 218.982 122.565 219.634 122.607 220.336C122.702 221.234 122.133 222.155 121.275 222.452C120.239 222.865 118.949 222.286 118.592 221.228C118.16 220.14 118.845 218.797 119.983 218.514Z" fill="#2A2651"/>
<path fill-rule="evenodd" clip-rule="evenodd" d="M385.658 218.499C386.445 218.32 387.333 218.6 387.811 219.267C388.433 220.08 388.332 221.357 387.552 222.035C386.799 222.768 385.469 222.763 384.724 222.023C384.003 221.384 383.869 220.221 384.38 219.417C384.666 218.963 385.127 218.615 385.658 218.499Z" fill="#2A2651"/>
<path fill-rule="evenodd" clip-rule="evenodd" d="M347.854 218.732C348.857 218.511 349.94 219.299 350.007 220.329C350.126 221.284 349.355 222.25 348.386 222.309C347.379 222.447 346.375 221.579 346.395 220.562C346.339 219.697 347.005 218.885 347.854 218.732Z" fill="#2A2651"/>
<path fill-rule="evenodd" clip-rule="evenodd" d="M110.904 218.839C111.825 218.731 112.73 219.508 112.736 220.438C112.814 221.431 111.848 222.335 110.858 222.18C109.923 222.101 109.205 221.129 109.398 220.215C109.515 219.484 110.167 218.895 110.904 218.839Z" fill="#2A2651"/>
<path fill-rule="evenodd" clip-rule="evenodd" d="M338.241 219.4C338.86 219.12 339.66 219.477 339.862 220.126C340.089 220.737 339.711 221.485 339.081 221.662C338.441 221.891 337.661 221.452 337.543 220.783C337.403 220.232 337.707 219.608 338.241 219.4Z" fill="#2A2651"/>
<path fill-rule="evenodd" clip-rule="evenodd" d="M101.268 219.702C101.813 219.476 102.497 219.945 102.43 220.543C102.457 221.218 101.56 221.629 101.05 221.201C100.505 220.839 100.64 219.894 101.268 219.702Z" fill="#2A2651"/>
<path fill-rule="evenodd" clip-rule="evenodd" d="M414.526 220.159C414.755 220.105 415.023 220.299 414.966 220.553C414.963 220.917 414.37 221.002 414.271 220.656C414.148 220.459 414.31 220.188 414.526 220.159Z" fill="#2A2651"/>
<path fill-rule="evenodd" clip-rule="evenodd" d="M404.149 225.92C404.993 225.726 405.902 225.786 406.707 226.117C407.915 226.599 408.858 227.688 409.17 228.948C409.609 230.601 408.909 232.482 407.474 233.425C405.806 234.605 403.286 234.292 401.968 232.727C400.668 231.291 400.59 228.946 401.801 227.433C402.378 226.679 403.219 226.131 404.149 225.92Z" fill="#2A2651"/>
<path fill-rule="evenodd" clip-rule="evenodd" d="M385.461 226.019C387.24 225.684 389.146 226.711 389.842 228.379C390.266 229.362 390.275 230.518 389.866 231.509C389.374 232.723 388.247 233.664 386.956 233.907C385.282 234.284 383.429 233.432 382.625 231.921C381.762 230.416 382.041 228.37 383.281 227.154C383.866 226.562 384.639 226.161 385.461 226.019Z" fill="#2A2651"/>
<path fill-rule="evenodd" clip-rule="evenodd" d="M395.076 226.027C396.355 225.836 397.708 226.326 398.58 227.277C399.853 228.615 399.979 230.846 398.87 232.321C397.893 233.708 395.981 234.316 394.377 233.766C393.167 233.375 392.174 232.368 391.811 231.153C391.343 229.67 391.83 227.941 393.032 226.945C393.606 226.45 394.324 226.131 395.076 226.027Z" fill="#2A2651"/>
<path fill-rule="evenodd" clip-rule="evenodd" d="M376.165 226.123C377.88 225.875 379.669 226.924 380.28 228.544C380.75 229.734 380.6 231.158 379.85 232.203C379.243 233.073 378.267 233.683 377.21 233.819C375.716 234.056 374.14 233.316 373.354 232.033C372.658 230.928 372.579 229.468 373.15 228.295C373.702 227.126 374.876 226.275 376.165 226.123Z" fill="#2A2651"/>
<path fill-rule="evenodd" clip-rule="evenodd" d="M100.955 226.996C102.015 226.792 103.172 227.145 103.872 227.978C104.924 229.129 104.845 231.096 103.7 232.158C102.629 233.251 100.701 233.308 99.5711 232.275C98.7452 231.584 98.367 230.438 98.5782 229.389C98.7916 228.209 99.7767 227.22 100.955 226.996Z" fill="#2A2651"/>
<path fill-rule="evenodd" clip-rule="evenodd" d="M110.469 227.23C111.151 227.096 111.886 227.197 112.488 227.555C113.348 228.059 113.916 229.043 113.861 230.047C113.874 231.31 112.883 232.479 111.649 232.72C110.732 232.929 109.719 232.628 109.061 231.959C108.342 231.246 108.053 230.129 108.364 229.164C108.639 228.196 109.485 227.43 110.469 227.23Z" fill="#2A2651"/>
<path fill-rule="evenodd" clip-rule="evenodd" d="M414.532 227.664C415.337 227.64 416.147 228.06 416.566 228.753C417.097 229.58 417.011 230.747 416.357 231.483C415.638 232.361 414.238 232.542 413.311 231.893C412.467 231.35 412.083 230.229 412.395 229.282C412.663 228.356 413.574 227.694 414.532 227.664Z" fill="#2A2651"/>
<path fill-rule="evenodd" clip-rule="evenodd" d="M347.86 228.764C348.656 228.508 349.55 229.218 349.459 230.052C349.451 230.848 348.554 231.454 347.809 231.175C347.057 230.957 346.707 229.995 347.111 229.337C347.272 229.058 347.549 228.854 347.86 228.764Z" fill="#2A2651"/>
<path fill-rule="evenodd" clip-rule="evenodd" d="M357.353 228.761C358.183 228.504 359.092 229.283 358.94 230.142C358.859 231.098 357.57 231.595 356.869 230.936C356.105 230.345 356.4 228.968 357.353 228.761Z" fill="#2A2651"/>
<path fill-rule="evenodd" clip-rule="evenodd" d="M92.0027 229.536C92.3809 229.447 92.6672 229.909 92.4649 230.225C92.2714 230.557 91.6666 230.436 91.65 230.041C91.6025 229.811 91.7694 229.567 92.0027 229.536Z" fill="#2A2651"/>
<path fill-rule="evenodd" clip-rule="evenodd" d="M385.569 235.176C387.568 234.867 389.656 236.169 390.245 238.102C390.895 239.977 390.037 242.225 388.288 243.178C386.524 244.219 384.046 243.77 382.788 242.146C381.517 240.627 381.525 238.231 382.804 236.718C383.484 235.878 384.495 235.318 385.569 235.176Z" fill="#2A2651"/>
<path fill-rule="evenodd" clip-rule="evenodd" d="M375.822 235.489C377.005 235.245 378.296 235.537 379.229 236.315C380.743 237.504 381.157 239.817 380.17 241.464C379.257 243.106 377.121 243.907 375.352 243.266C373.543 242.698 372.345 240.73 372.652 238.866C372.864 237.225 374.191 235.804 375.822 235.489Z" fill="#2A2651"/>
<path fill-rule="evenodd" clip-rule="evenodd" d="M394.846 235.827C396.091 235.548 397.463 235.967 398.332 236.903C399.373 237.977 399.633 239.701 398.978 241.042C398.509 242.013 397.599 242.773 396.548 243.027C395.413 243.312 394.153 243.042 393.257 242.287C392.021 241.298 391.59 239.479 392.201 238.028C392.656 236.926 393.67 236.064 394.846 235.827Z" fill="#2A2651"/>
<path fill-rule="evenodd" clip-rule="evenodd" d="M366.989 236.163C367.772 236.123 368.572 236.365 369.192 236.851C370.195 237.608 370.681 238.979 370.371 240.196C370.16 241.15 369.48 241.98 368.599 242.399C367.255 243.065 365.482 242.662 364.581 241.462C363.833 240.527 363.678 239.176 364.177 238.092C364.661 236.993 365.787 236.223 366.989 236.163Z" fill="#2A2651"/>
<path fill-rule="evenodd" clip-rule="evenodd" d="M404.247 236.386C405.348 236.062 406.613 236.401 407.403 237.232C408.003 237.834 408.325 238.689 408.295 239.535C408.275 240.629 407.639 241.694 406.67 242.212C406.015 242.595 405.221 242.683 404.482 242.553C403.494 242.356 402.612 241.668 402.212 240.743C401.84 239.914 401.84 238.933 402.229 238.111C402.604 237.277 403.365 236.633 404.247 236.386Z" fill="#2A2651"/>
<path fill-rule="evenodd" clip-rule="evenodd" d="M101.4 237.371C102.36 237.281 103.331 237.943 103.569 238.88C103.821 239.727 103.454 240.721 102.695 241.184C102.13 241.554 101.378 241.608 100.759 241.35C99.958 241.029 99.4295 240.167 99.5014 239.311C99.5313 238.307 100.404 237.441 101.4 237.371Z" fill="#2A2651"/>
<path fill-rule="evenodd" clip-rule="evenodd" d="M91.5627 237.49C92.5102 237.229 93.5861 237.739 93.9509 238.655C94.2196 239.293 94.1389 240.074 93.7232 240.635C93.2433 241.307 92.3212 241.623 91.5284 241.382C90.6771 241.159 90.0236 240.313 90.0789 239.427C90.0291 238.533 90.7069 237.704 91.5627 237.49Z" fill="#2A2651"/>
<path fill-rule="evenodd" clip-rule="evenodd" d="M357.361 238.143C358.204 237.901 359.12 238.652 359.022 239.528C359.01 240.35 358.109 240.972 357.332 240.731C356.595 240.551 356.143 239.675 356.43 238.974C356.576 238.565 356.937 238.245 357.361 238.143Z" fill="#2A2651"/>
<path fill-rule="evenodd" clip-rule="evenodd" d="M414.528 239.134C414.899 239.031 415.079 239.624 414.711 239.746C414.301 239.892 414.104 239.226 414.528 239.134Z" fill="#2A2651"/>
<path fill-rule="evenodd" clip-rule="evenodd" d="M385.334 244.439C386.527 244.244 387.802 244.488 388.787 245.208C390.261 246.223 391 248.165 390.584 249.903C390.171 251.907 388.241 253.478 386.182 253.435C384.241 253.504 382.382 252.147 381.816 250.301C381.241 248.581 381.822 246.55 383.242 245.413C383.835 244.909 384.568 244.577 385.334 244.439Z" fill="#2A2651"/>
<path fill-rule="evenodd" clip-rule="evenodd" d="M394.956 244.656C396.769 244.343 398.703 245.332 399.497 246.99C400.099 248.2 400.085 249.697 399.46 250.895C398.977 251.82 398.147 252.563 397.168 252.931C395.483 253.584 393.421 253.053 392.294 251.635C391.129 250.258 390.995 248.138 391.973 246.624C392.62 245.58 393.735 244.837 394.956 244.656Z" fill="#2A2651"/>
<path fill-rule="evenodd" clip-rule="evenodd" d="M376.27 245.649C377.258 245.526 378.294 245.885 378.995 246.591C379.462 247.074 379.796 247.693 379.901 248.361C380.141 249.647 379.504 251.038 378.376 251.707C377.107 252.504 375.305 252.278 374.283 251.179C373.436 250.301 373.14 248.942 373.565 247.797C373.959 246.642 375.057 245.781 376.27 245.649Z" fill="#2A2651"/>
<path fill-rule="evenodd" clip-rule="evenodd" d="M404.568 246.962C405.489 246.689 406.568 247.168 406.953 248.053C407.442 249.027 406.958 250.334 405.948 250.751C404.97 251.209 403.679 250.737 403.269 249.732C402.753 248.661 403.405 247.243 404.568 246.962Z" fill="#2A2651"/>
<path fill-rule="evenodd" clip-rule="evenodd" d="M423.826 247.756C424.452 247.6 425.147 248.037 425.249 248.679C425.416 249.369 424.817 250.107 424.106 250.084C423.507 250.11 422.958 249.616 422.913 249.025C422.838 248.452 423.255 247.866 423.826 247.756Z" fill="#2A2651"/>
<path fill-rule="evenodd" clip-rule="evenodd" d="M92.0072 247.853C92.5943 247.803 93.1504 248.316 93.1394 248.908C93.1537 249.51 92.5689 250.042 91.9652 249.946C91.3991 249.903 90.9557 249.341 91.0441 248.782C91.0795 248.283 91.5207 247.896 92.0072 247.853Z" fill="#2A2651"/>
<path fill-rule="evenodd" clip-rule="evenodd" d="M367.094 248.069C367.747 247.97 368.249 248.76 367.909 249.316C367.633 249.855 366.793 249.891 366.475 249.379C366.106 248.886 366.479 248.1 367.094 248.069Z" fill="#2A2651"/>
<path fill-rule="evenodd" clip-rule="evenodd" d="M433.303 248.165C433.901 247.925 434.555 248.564 434.323 249.162C434.157 249.75 433.265 249.875 432.936 249.37C432.618 248.971 432.825 248.325 433.303 248.165Z" fill="#2A2651"/>
<path fill-rule="evenodd" clip-rule="evenodd" d="M82.4973 248.289C82.8654 248.216 83.2546 248.522 83.2248 248.907C83.2679 249.419 82.5669 249.731 82.1954 249.392C81.7819 249.085 81.9787 248.337 82.4973 248.289Z" fill="#2A2651"/>
<path fill-rule="evenodd" clip-rule="evenodd" d="M414.427 248.303C414.815 248.182 415.262 248.493 415.23 248.912C415.261 249.421 414.579 249.724 414.203 249.398C413.814 249.106 413.95 248.416 414.427 248.303Z" fill="#2A2651"/>
<path fill-rule="evenodd" clip-rule="evenodd" d="M404.591 253.943C406.441 253.695 408.37 254.748 409.151 256.442C410.036 258.229 409.532 260.573 407.962 261.815C406.311 263.224 403.622 263.142 402.064 261.632C400.616 260.33 400.239 258.043 401.14 256.33C401.796 255.025 403.135 254.101 404.591 253.943Z" fill="#2A2651"/>
<path fill-rule="evenodd" clip-rule="evenodd" d="M423.385 253.938C425.361 253.595 427.46 254.75 428.223 256.599C429.03 258.41 428.45 260.711 426.862 261.907C425.288 263.177 422.85 263.161 421.285 261.884C419.809 260.742 419.204 258.638 419.844 256.888C420.36 255.352 421.779 254.174 423.385 253.938Z" fill="#2A2651"/>
<path fill-rule="evenodd" clip-rule="evenodd" d="M413.758 254.258C414.861 254.032 416.057 254.264 416.986 254.908C417.934 255.556 418.6 256.603 418.764 257.741C419.002 259.255 418.342 260.864 417.093 261.759C415.946 262.611 414.355 262.806 413.031 262.269C411.406 261.637 410.283 259.916 410.404 258.171C410.452 256.305 411.918 254.597 413.758 254.258Z" fill="#2A2651"/>
<path fill-rule="evenodd" clip-rule="evenodd" d="M385.452 254.361C386.222 254.245 387.027 254.319 387.748 254.628C389.09 255.185 390.072 256.513 390.2 257.961C390.425 259.785 389.224 261.647 387.477 262.217C385.878 262.789 383.961 262.23 382.934 260.88C381.719 259.376 381.807 256.995 383.156 255.603C383.757 254.954 384.578 254.51 385.452 254.361Z" fill="#2A2651"/>
<path fill-rule="evenodd" clip-rule="evenodd" d="M395.078 254.606C396.194 254.45 397.377 254.789 398.206 255.559C399.364 256.592 399.76 258.352 399.174 259.784C398.77 260.813 397.889 261.637 396.84 261.982C395.899 262.288 394.841 262.225 393.953 261.787C393.004 261.337 392.278 260.466 391.977 259.465C391.711 258.554 391.785 257.544 392.208 256.691C392.749 255.585 393.852 254.77 395.078 254.606Z" fill="#2A2651"/>
<path fill-rule="evenodd" clip-rule="evenodd" d="M432.995 255.248C434.022 255.06 435.139 255.395 435.857 256.16C436.639 256.936 436.932 258.135 436.648 259.193C436.285 260.683 434.711 261.741 433.192 261.522C432.218 261.41 431.313 260.826 430.828 259.977C430.342 259.168 430.277 258.138 430.594 257.257C430.967 256.229 431.916 255.438 432.995 255.248Z" fill="#2A2651"/>
<path fill-rule="evenodd" clip-rule="evenodd" d="M72.8879 257.897C73.1864 257.752 73.5933 257.942 73.6287 258.284C73.7304 258.696 73.2163 259.059 72.8613 258.831C72.4909 258.661 72.5042 258.045 72.8879 257.897Z" fill="#2A2651"/>
<path fill-rule="evenodd" clip-rule="evenodd" d="M91.7783 257.875C92.1155 257.676 92.6197 257.878 92.6573 258.287C92.7568 258.744 92.1973 259.108 91.8048 258.88C91.4212 258.688 91.4212 258.092 91.7783 257.875Z" fill="#2A2651"/>
<path fill-rule="evenodd" clip-rule="evenodd" d="M376.379 258.017C376.629 257.81 377.057 257.972 377.099 258.296C377.17 258.615 376.8 258.933 376.499 258.786C376.177 258.69 376.13 258.21 376.379 258.017Z" fill="#2A2651"/>
<path fill-rule="evenodd" clip-rule="evenodd" d="M442.759 258.529C442.775 258.331 442.842 258.006 443.121 258.089C443.363 258.123 443.338 258.41 443.324 258.595C443.123 258.65 442.929 258.64 442.759 258.529Z" fill="#2A2651"/>
<path fill-rule="evenodd" clip-rule="evenodd" d="M63.4521 258.203C63.6621 257.967 64.0226 258.327 63.7992 258.528C63.6013 258.763 63.2365 258.427 63.4521 258.203Z" fill="#2A2651"/>
<path fill-rule="evenodd" clip-rule="evenodd" d="M404.687 263.634C406.783 263.373 408.907 264.921 409.265 267.003C409.672 268.83 408.676 270.846 406.973 271.633C405.233 272.521 402.93 271.979 401.762 270.419C400.581 268.927 400.597 266.636 401.824 265.176C402.52 264.306 403.578 263.744 404.687 263.634Z" fill="#2A2651"/>
<path fill-rule="evenodd" clip-rule="evenodd" d="M433.112 263.637C435.027 263.393 436.997 264.633 437.583 266.471C438.209 268.216 437.511 270.312 435.957 271.33C434.256 272.537 431.693 272.201 430.365 270.594C429.083 269.16 429.004 266.846 430.169 265.32C430.858 264.382 431.951 263.756 433.112 263.637Z" fill="#2A2651"/>
<path fill-rule="evenodd" clip-rule="evenodd" d="M395.406 263.746C397.406 263.597 399.359 265.12 399.666 267.104C400.048 268.968 398.916 270.987 397.132 271.648C395.401 272.354 393.247 271.696 392.23 270.129C391.182 268.631 391.332 266.442 392.576 265.102C393.287 264.294 394.332 263.808 395.406 263.746Z" fill="#2A2651"/>
<path fill-rule="evenodd" clip-rule="evenodd" d="M413.969 263.738C415.811 263.426 417.772 264.519 418.449 266.261C419.196 267.998 418.554 270.189 416.978 271.24C415.34 272.422 412.852 272.15 411.525 270.624C410.216 269.237 410.089 266.933 411.233 265.41C411.877 264.52 412.876 263.896 413.969 263.738Z" fill="#2A2651"/>
<path fill-rule="evenodd" clip-rule="evenodd" d="M442.388 263.957C443.554 263.761 444.804 264.092 445.683 264.893C447.108 266.103 447.421 268.367 446.404 269.929C445.546 271.349 443.733 272.061 442.129 271.66C440.759 271.343 439.61 270.238 439.258 268.879C438.832 267.386 439.389 265.678 440.628 264.734C441.138 264.338 441.747 264.061 442.388 263.957Z" fill="#2A2651"/>
<path fill-rule="evenodd" clip-rule="evenodd" d="M423.368 264.179C424.53 263.971 425.792 264.289 426.647 265.122C427.804 266.165 428.151 267.97 427.49 269.376C426.976 270.541 425.818 271.393 424.549 271.529C423.411 271.683 422.216 271.269 421.421 270.443C420.357 269.394 420.062 267.684 420.67 266.33C421.146 265.23 422.186 264.398 423.368 264.179Z" fill="#2A2651"/>
<path fill-rule="evenodd" clip-rule="evenodd" d="M82.0539 266.385C82.9152 266.041 83.9855 266.629 84.1193 267.551C84.3084 268.384 83.6682 269.273 82.819 269.37C82.0097 269.505 81.1649 268.89 81.0654 268.073C80.9471 267.369 81.3761 266.623 82.0539 266.385Z" fill="#2A2651"/>
<path fill-rule="evenodd" clip-rule="evenodd" d="M91.576 267.705C91.6744 267.206 92.4859 267.189 92.5921 267.693C92.717 268.055 92.3864 268.323 92.0713 268.407C91.7705 268.314 91.4687 268.05 91.576 267.705Z" fill="#2A2651"/>
<path fill-rule="evenodd" clip-rule="evenodd" d="M395.19 273.468C396.925 273.237 398.707 274.348 399.274 275.997C399.641 277.045 399.546 278.254 398.988 279.218C398.366 280.321 397.169 281.073 395.903 281.147C394.177 281.297 392.45 280.14 391.949 278.484C391.41 276.887 392.071 274.987 393.497 274.082C394.001 273.748 394.586 273.537 395.19 273.468Z" fill="#2A2651"/>
<path fill-rule="evenodd" clip-rule="evenodd" d="M414.312 273.453C415.983 273.302 417.671 274.374 418.229 275.957C418.587 276.93 418.54 278.051 418.084 278.986C417.568 280.054 416.535 280.86 415.365 281.081C413.708 281.444 411.889 280.561 411.152 279.039C410.505 277.782 410.629 276.168 411.475 275.033C412.13 274.126 413.191 273.531 414.312 273.453Z" fill="#2A2651"/>
<path fill-rule="evenodd" clip-rule="evenodd" d="M385.566 273.566C387.351 273.253 389.236 274.413 389.752 276.145C390.325 277.83 389.512 279.846 387.913 280.643C386.796 281.241 385.377 281.221 384.279 280.591C383.294 280.043 382.581 279.03 382.412 277.918C382.155 276.51 382.802 274.991 383.99 274.192C384.458 273.868 385.001 273.653 385.566 273.566Z" fill="#2A2651"/>
<path fill-rule="evenodd" clip-rule="evenodd" d="M404.348 274.219C405.342 273.977 406.455 274.226 407.22 274.916C407.919 275.523 408.327 276.447 408.296 277.373C408.289 278.472 407.645 279.531 406.687 280.065C406.01 280.463 405.183 280.546 404.424 280.4C403.221 280.148 402.223 279.132 402 277.927C401.628 276.324 402.74 274.576 404.348 274.219Z" fill="#2A2651"/>
<path fill-rule="evenodd" clip-rule="evenodd" d="M82.1645 276.431C82.8013 276.09 83.6715 276.647 83.5631 277.378C83.5609 278.167 82.4619 278.562 81.9301 278.006C81.4314 277.576 81.5751 276.703 82.1645 276.431Z" fill="#2A2651"/>
<path fill-rule="evenodd" clip-rule="evenodd" d="M366.761 276.42C367.399 276.1 368.231 276.653 368.145 277.372C368.134 278.123 367.146 278.534 366.579 278.073C366.015 277.665 366.114 276.69 366.761 276.42Z" fill="#2A2651"/>
<path fill-rule="evenodd" clip-rule="evenodd" d="M63.347 276.731C63.7705 276.508 64.3455 276.893 64.2493 277.377C64.2205 277.857 63.5991 278.092 63.2387 277.798C62.8716 277.538 62.9435 276.915 63.347 276.731Z" fill="#2A2651"/>
<path fill-rule="evenodd" clip-rule="evenodd" d="M385.788 282.502C387.465 282.343 389.174 283.273 389.941 284.77C390.61 286.037 390.592 287.647 389.868 288.888C389.374 289.763 388.557 290.447 387.612 290.786C386.042 291.365 384.145 290.937 383.02 289.689C381.6 288.248 381.479 285.776 382.724 284.188C383.443 283.225 384.587 282.598 385.788 282.502Z" fill="#2A2651"/>
<path fill-rule="evenodd" clip-rule="evenodd" d="M404.911 282.936C406.548 282.828 408.175 283.885 408.718 285.434C409.122 286.527 409.001 287.811 408.374 288.8C407.919 289.523 407.215 290.093 406.406 290.375C404.669 291.028 402.557 290.206 401.719 288.557C401.089 287.376 401.141 285.866 401.858 284.734C402.503 283.685 403.681 283 404.911 282.936Z" fill="#2A2651"/>
<path fill-rule="evenodd" clip-rule="evenodd" d="M376.609 284.376C377.522 284.352 378.423 284.894 378.813 285.723C379.283 286.647 379.041 287.863 378.258 288.543C377.5 289.245 376.273 289.35 375.403 288.8C374.498 288.269 374.05 287.096 374.363 286.098C374.623 285.111 375.591 284.389 376.609 284.376Z" fill="#2A2651"/>
<path fill-rule="evenodd" clip-rule="evenodd" d="M72.6557 285.592C73.4352 285.253 74.4049 285.903 74.3706 286.752C74.4204 287.574 73.5071 288.25 72.7342 287.965C72.0487 287.774 71.6628 286.949 71.9404 286.299C72.0642 285.976 72.3318 285.712 72.6557 285.592Z" fill="#2A2651"/>
<path fill-rule="evenodd" clip-rule="evenodd" d="M92.005 285.583C92.863 285.495 93.5673 286.502 93.1549 287.27C92.8099 288.127 91.4543 288.167 91.0508 287.34C90.6118 286.625 91.1669 285.61 92.005 285.583Z" fill="#2A2651"/>
<path fill-rule="evenodd" clip-rule="evenodd" d="M423.929 285.915C424.568 285.764 425.165 286.48 424.897 287.081C424.69 287.681 423.813 287.816 423.423 287.324C423.002 286.854 423.287 285.998 423.929 285.915Z" fill="#2A2651"/>
<path fill-rule="evenodd" clip-rule="evenodd" d="M357.686 286.023C358.282 286.001 358.661 286.79 358.255 287.231C357.937 287.658 357.2 287.55 357.012 287.058C356.788 286.593 357.175 286.014 357.686 286.023Z" fill="#2A2651"/>
<path fill-rule="evenodd" clip-rule="evenodd" d="M82.369 286.234C82.7151 286.077 83.1563 286.331 83.1773 286.714C83.2314 287.13 82.735 287.484 82.3569 287.29C81.9124 287.117 81.919 286.396 82.369 286.234Z" fill="#2A2651"/>
<path fill-rule="evenodd" clip-rule="evenodd" d="M395.388 286.326C395.69 286.142 396.144 286.384 396.121 286.749C396.182 287.137 395.667 287.409 395.364 287.184C395.043 287.007 395.063 286.485 395.388 286.326Z" fill="#2A2651"/>
<path fill-rule="evenodd" clip-rule="evenodd" d="M414.401 286.553C414.661 286.303 415.069 286.709 414.817 286.962C414.576 287.265 414.098 286.801 414.401 286.553Z" fill="#2A2651"/>
<path fill-rule="evenodd" clip-rule="evenodd" d="M366.428 292.097C367.525 291.914 368.698 292.145 369.605 292.8C371.081 293.803 371.737 295.794 371.19 297.484C370.818 298.693 369.861 299.709 368.674 300.155C367.039 300.794 365.035 300.281 363.933 298.912C362.785 297.569 362.65 295.49 363.603 294.006C364.225 293.015 365.27 292.295 366.428 292.097Z" fill="#2A2651"/>
<path fill-rule="evenodd" clip-rule="evenodd" d="M376.281 292.101C377.955 291.924 379.664 292.885 380.391 294.399C381.04 295.701 380.93 297.351 380.104 298.553C379.152 300.006 377.228 300.712 375.559 300.228C373.757 299.773 372.418 297.976 372.514 296.123C372.502 294.079 374.243 292.241 376.281 292.101Z" fill="#2A2651"/>
<path fill-rule="evenodd" clip-rule="evenodd" d="M394.964 292.321C395.782 292.204 396.64 292.3 397.385 292.673C398.374 293.154 399.149 294.067 399.445 295.129C399.819 296.394 399.509 297.838 398.632 298.83C397.616 300.026 395.856 300.503 394.373 299.986C393.295 299.639 392.396 298.798 391.964 297.756C391.498 296.619 391.577 295.259 392.218 294.206C392.792 293.21 393.833 292.514 394.964 292.321Z" fill="#2A2651"/>
<path fill-rule="evenodd" clip-rule="evenodd" d="M413.965 292.53C415.098 292.338 416.307 292.682 417.152 293.464C418.287 294.482 418.674 296.222 418.094 297.63C417.73 298.544 416.982 299.303 416.073 299.684C414.872 300.196 413.403 300.034 412.36 299.244C411.131 298.358 410.567 296.699 410.974 295.245C411.328 293.86 412.551 292.756 413.965 292.53Z" fill="#2A2651"/>
<path fill-rule="evenodd" clip-rule="evenodd" d="M338.577 293.422C339.477 293.38 340.39 293.788 340.94 294.506C341.659 295.4 341.716 296.75 341.106 297.716C340.561 298.617 339.471 299.141 338.427 299.019C337.503 298.94 336.647 298.359 336.227 297.538C335.756 296.665 335.802 295.544 336.347 294.715C336.822 293.953 337.683 293.467 338.577 293.422Z" fill="#2A2651"/>
<path fill-rule="evenodd" clip-rule="evenodd" d="M120.205 294.851C120.982 294.644 121.85 295.211 121.944 296.014C122.11 296.858 121.345 297.7 120.491 297.649C119.75 297.637 119.108 296.976 119.124 296.235C119.107 295.596 119.583 294.993 120.205 294.851Z" fill="#2A2651"/>
<path fill-rule="evenodd" clip-rule="evenodd" d="M101.412 295.513C101.944 295.366 102.478 295.959 102.268 296.466C102.127 296.966 101.416 297.138 101.059 296.761C100.629 296.389 100.854 295.606 101.412 295.513Z" fill="#2A2651"/>
<path fill-rule="evenodd" clip-rule="evenodd" d="M404.903 295.835C405.227 295.651 405.671 295.977 405.549 296.344C405.485 296.713 404.899 296.788 404.734 296.462C404.587 296.249 404.684 295.953 404.903 295.835Z" fill="#2A2651"/>
<path fill-rule="evenodd" clip-rule="evenodd" d="M385.969 296.038C386.211 295.911 386.508 296.126 386.338 296.385C386.104 296.619 385.76 296.277 385.969 296.038Z" fill="#2A2651"/>
<path fill-rule="evenodd" clip-rule="evenodd" d="M357.036 301.254C358.846 300.969 360.756 301.91 361.625 303.52C362.595 305.222 362.269 307.543 360.84 308.894C359.372 310.398 356.81 310.604 355.111 309.372C353.491 308.286 352.782 306.088 353.428 304.256C353.941 302.684 355.395 301.477 357.036 301.254Z" fill="#2A2651"/>
<path fill-rule="evenodd" clip-rule="evenodd" d="M347.528 302.136C348.471 301.969 349.486 302.159 350.272 302.719C351.309 303.42 351.917 304.689 351.821 305.936C351.749 307.405 350.675 308.755 349.259 309.16C347.949 309.573 346.43 309.154 345.516 308.134C344.46 307.006 344.274 305.189 345.068 303.867C345.582 302.967 346.508 302.325 347.528 302.136Z" fill="#2A2651"/>
<path fill-rule="evenodd" clip-rule="evenodd" d="M375.837 302.926C376.718 302.673 377.716 302.846 378.44 303.415C379.363 304.112 379.768 305.392 379.44 306.498C379.232 307.222 378.729 307.853 378.069 308.217C377.081 308.778 375.761 308.681 374.878 307.967C374.027 307.33 373.614 306.192 373.821 305.157C373.999 304.111 374.815 303.214 375.837 302.926Z" fill="#2A2651"/>
<path fill-rule="evenodd" clip-rule="evenodd" d="M366.77 303.021C367.634 302.884 368.553 303.202 369.15 303.843C369.776 304.506 370.043 305.501 369.793 306.385C369.52 307.507 368.439 308.386 367.275 308.381C366.454 308.435 365.628 308.07 365.106 307.44C364.32 306.55 364.259 305.126 364.941 304.162C365.353 303.545 366.039 303.136 366.77 303.021Z" fill="#2A2651"/>
<path fill-rule="evenodd" clip-rule="evenodd" d="M338.241 303.353C339.053 303.192 339.943 303.466 340.49 304.095C341.288 304.925 341.309 306.345 340.561 307.216C339.908 308.05 338.665 308.31 337.714 307.863C336.849 307.483 336.272 306.547 336.333 305.606C336.332 304.528 337.185 303.547 338.241 303.353Z" fill="#2A2651"/>
<path fill-rule="evenodd" clip-rule="evenodd" d="M157.902 303.679C159.034 303.315 160.346 304.11 160.549 305.278C160.79 306.343 160.056 307.506 158.982 307.734C157.852 308.049 156.579 307.218 156.418 306.061C156.205 305.038 156.893 303.944 157.902 303.679Z" fill="#2A2651"/>
<path fill-rule="evenodd" clip-rule="evenodd" d="M139.207 304.443C139.871 304.272 140.615 304.707 140.764 305.379C140.928 306.003 140.559 306.717 139.932 306.909C139.306 307.136 138.525 306.797 138.313 306.156C138.02 305.469 138.474 304.594 139.207 304.443Z" fill="#2A2651"/>
<path fill-rule="evenodd" clip-rule="evenodd" d="M385.869 305.098C386.271 304.925 386.789 305.197 386.806 305.651C386.855 306.169 386.202 306.554 385.78 306.24C385.353 305.986 385.415 305.285 385.869 305.098Z" fill="#2A2651"/>
<path fill-rule="evenodd" clip-rule="evenodd" d="M404.898 305.1C405.341 304.929 405.852 305.359 405.731 305.826C405.662 306.292 404.994 306.492 404.681 306.142C404.347 305.852 404.473 305.23 404.898 305.1Z" fill="#2A2651"/>
<path fill-rule="evenodd" clip-rule="evenodd" d="M319.543 305.209C319.882 305.06 320.321 305.35 320.271 305.731C320.265 306.117 319.758 306.358 319.449 306.127C319.103 305.925 319.164 305.336 319.543 305.209Z" fill="#2A2651"/>
<path fill-rule="evenodd" clip-rule="evenodd" d="M167.585 305.531C167.746 305.412 167.957 305.23 168.163 305.373C168.503 305.547 168.308 306.13 167.93 306.055C167.648 306.053 167.609 305.742 167.585 305.531Z" fill="#2A2651"/>
<path fill-rule="evenodd" clip-rule="evenodd" d="M310.036 305.309C310.28 305.145 310.652 305.315 310.694 305.608C310.785 305.93 310.402 306.26 310.096 306.11C309.75 306.012 309.717 305.457 310.036 305.309Z" fill="#2A2651"/>
<path fill-rule="evenodd" clip-rule="evenodd" d="M120.388 305.404C120.538 305.382 120.729 305.353 120.807 305.527C121.013 305.775 120.636 306.153 120.384 305.97C120.161 305.845 120.196 305.534 120.388 305.404Z" fill="#2A2651"/>
<path fill-rule="evenodd" clip-rule="evenodd" d="M129.83 305.548C130.01 305.315 130.403 305.573 130.23 305.828C130.049 306.087 129.654 305.806 129.83 305.548Z" fill="#2A2651"/>
<path fill-rule="evenodd" clip-rule="evenodd" d="M395.484 305.515C395.668 305.315 396.014 305.643 395.82 305.84C395.626 306.13 395.198 305.702 395.484 305.515Z" fill="#2A2651"/>
<path fill-rule="evenodd" clip-rule="evenodd" d="M338.347 310.632C340.37 310.436 342.411 311.765 343.026 313.701C343.688 315.557 342.958 317.787 341.318 318.885C339.647 320.086 337.158 319.936 335.658 318.52C334.219 317.265 333.773 315.067 334.547 313.335C335.191 311.827 336.709 310.753 338.347 310.632Z" fill="#2A2651"/>
<path fill-rule="evenodd" clip-rule="evenodd" d="M328.291 310.851C330.09 310.445 332.087 311.285 333.017 312.881C334.099 314.608 333.75 317.052 332.224 318.408C330.716 319.839 328.174 319.953 326.544 318.663C324.989 317.521 324.389 315.302 325.127 313.527C325.647 312.182 326.877 311.144 328.291 310.851Z" fill="#2A2651"/>
<path fill-rule="evenodd" clip-rule="evenodd" d="M357.48 310.963C359.146 310.86 360.803 311.858 361.497 313.37C362.097 314.63 362.011 316.187 361.268 317.37C360.286 319.021 358.094 319.788 356.291 319.122C354.397 318.495 353.156 316.399 353.544 314.442C353.832 312.551 355.564 311.025 357.48 310.963Z" fill="#2A2651"/>
<path fill-rule="evenodd" clip-rule="evenodd" d="M318.997 311.617C320.182 311.359 321.488 311.744 322.332 312.618C323.419 313.682 323.681 315.453 322.984 316.797C322.468 317.819 321.443 318.575 320.303 318.734C319.136 318.925 317.896 318.504 317.094 317.639C316.041 316.546 315.818 314.778 316.542 313.451C317.04 312.52 317.959 311.825 318.997 311.617Z" fill="#2A2651"/>
<path fill-rule="evenodd" clip-rule="evenodd" d="M271.667 312.944C272.569 312.672 273.617 313.01 274.172 313.776C274.862 314.666 274.753 316.065 273.918 316.827C273.197 317.534 271.998 317.665 271.135 317.148C270.255 316.645 269.792 315.52 270.084 314.549C270.287 313.787 270.9 313.15 271.667 312.944Z" fill="#2A2651"/>
<path fill-rule="evenodd" clip-rule="evenodd" d="M262.489 313.596C263.35 313.389 264.285 314.009 264.411 314.886C264.598 315.793 263.844 316.751 262.91 316.755C262.047 316.83 261.227 316.082 261.238 315.217C261.177 314.463 261.746 313.732 262.489 313.596Z" fill="#2A2651"/>
<path fill-rule="evenodd" clip-rule="evenodd" d="M158.108 313.819C158.888 313.582 159.805 314.157 159.858 314.986C160.018 315.856 159.17 316.691 158.301 316.531C157.426 316.466 156.859 315.453 157.185 314.66C157.334 314.252 157.69 313.934 158.108 313.819Z" fill="#2A2651"/>
<path fill-rule="evenodd" clip-rule="evenodd" d="M205.564 313.947C206.473 313.642 207.43 314.595 207.129 315.502C206.923 316.411 205.635 316.73 205.017 316.042C204.333 315.424 204.672 314.159 205.564 313.947Z" fill="#2A2651"/>
<path fill-rule="evenodd" clip-rule="evenodd" d="M167.736 314.268C168.443 314.046 169.154 314.869 168.812 315.534C168.564 316.178 167.59 316.261 167.218 315.693C166.846 315.195 167.133 314.413 167.736 314.268Z" fill="#2A2651"/>
<path fill-rule="evenodd" clip-rule="evenodd" d="M281.413 314.381C281.976 314.074 282.733 314.572 282.671 315.208C282.657 315.841 281.864 316.251 281.338 315.896C280.775 315.574 280.816 314.644 281.413 314.381Z" fill="#2A2651"/>
<path fill-rule="evenodd" clip-rule="evenodd" d="M395.379 314.583C395.793 314.398 396.332 314.741 396.25 315.213C396.259 315.77 395.437 315.973 395.13 315.549C394.887 315.237 395 314.724 395.379 314.583Z" fill="#2A2651"/>
<path fill-rule="evenodd" clip-rule="evenodd" d="M196.163 314.701C196.407 314.602 196.763 314.627 196.886 314.902C197.152 315.289 196.669 315.846 196.243 315.65C195.833 315.529 195.793 314.893 196.163 314.701Z" fill="#2A2651"/>
<path fill-rule="evenodd" clip-rule="evenodd" d="M243.59 314.704C243.858 314.577 244.263 314.661 244.354 314.98C244.53 315.372 244.06 315.835 243.668 315.646C243.259 315.523 243.221 314.897 243.59 314.704Z" fill="#2A2651"/>
<path fill-rule="evenodd" clip-rule="evenodd" d="M186.741 314.791C187.086 314.562 187.532 315.025 187.313 315.365C187.166 315.652 186.698 315.653 186.572 315.351C186.448 315.159 186.548 314.89 186.741 314.791Z" fill="#2A2651"/>
<path fill-rule="evenodd" clip-rule="evenodd" d="M253.217 314.808C253.499 314.689 253.799 315.009 253.692 315.289C253.594 315.603 253.078 315.606 252.997 315.281C252.897 315.091 253.045 314.884 253.217 314.808Z" fill="#2A2651"/>
<path fill-rule="evenodd" clip-rule="evenodd" d="M177.374 314.939C177.676 314.789 177.832 315.361 177.5 315.389C177.227 315.465 177.106 315.009 177.374 314.939Z" fill="#2A2651"/>
<path fill-rule="evenodd" clip-rule="evenodd" d="M215.28 314.89C215.48 314.807 215.746 314.989 215.681 315.213C215.663 315.411 215.434 315.471 215.273 315.418C215.067 315.318 215.074 314.982 215.28 314.89Z" fill="#2A2651"/>
<path fill-rule="evenodd" clip-rule="evenodd" d="M224.859 315.473C224.442 315.425 224.537 314.895 224.866 314.785C225.263 314.849 225.322 315.502 224.859 315.473Z" fill="#2A2651"/>
<path fill-rule="evenodd" clip-rule="evenodd" d="M310.025 315.111C310.047 314.879 310.328 314.928 310.489 314.96C310.479 315.051 310.46 315.23 310.45 315.321C310.292 315.484 309.957 315.349 310.025 315.111Z" fill="#2A2651"/>
<path fill-rule="evenodd" clip-rule="evenodd" d="M347.928 315.042C348.053 314.999 348.244 314.834 348.364 314.991C348.536 315.116 348.385 315.451 348.175 315.388C347.986 315.398 347.989 315.157 347.928 315.042Z" fill="#2A2651"/>
<path fill-rule="evenodd" clip-rule="evenodd" d="M376.615 314.923C376.885 314.848 377.015 315.315 376.733 315.383C376.425 315.491 376.28 314.971 376.615 314.923Z" fill="#2A2651"/>
<path fill-rule="evenodd" clip-rule="evenodd" d="M367.139 315.372C366.997 315.229 366.981 315.082 367.148 314.956C367.204 315.005 367.315 315.105 367.372 315.155C367.289 315.224 367.211 315.296 367.139 315.372Z" fill="#2A2651"/>
<path fill-rule="evenodd" clip-rule="evenodd" d="M300.31 320.555C302.08 320.327 303.908 321.401 304.567 323.056C305.345 324.847 304.612 327.12 302.924 328.112C301.734 328.854 300.153 328.912 298.907 328.273C297.297 327.483 296.36 325.554 296.755 323.806C297.068 322.101 298.584 320.723 300.31 320.555Z" fill="#2A2651"/>
<path fill-rule="evenodd" clip-rule="evenodd" d="M319.332 321C321.015 320.777 322.747 321.893 323.231 323.517C323.518 324.476 323.429 325.562 322.919 326.435C322.361 327.429 321.306 328.129 320.168 328.242C318.937 328.401 317.644 327.873 316.884 326.895C315.932 325.736 315.832 323.976 316.631 322.711C317.205 321.767 318.23 321.115 319.332 321Z" fill="#2A2651"/>
<path fill-rule="evenodd" clip-rule="evenodd" d="M195.721 321.771C196.727 321.517 197.856 321.839 198.567 322.595C199.622 323.662 199.634 325.541 198.592 326.619C197.651 327.679 195.919 327.864 194.764 327.051C193.678 326.339 193.204 324.863 193.646 323.649C193.968 322.732 194.769 321.992 195.721 321.771Z" fill="#2A2651"/>
<path fill-rule="evenodd" clip-rule="evenodd" d="M205.782 322.106C207.119 322.006 208.4 323.134 208.43 324.48C208.554 325.815 207.417 327.104 206.07 327.128C205.251 327.201 204.43 326.823 203.928 326.181C203.294 325.397 203.223 324.218 203.731 323.353C204.145 322.625 204.946 322.15 205.782 322.106Z" fill="#2A2651"/>
<path fill-rule="evenodd" clip-rule="evenodd" d="M328.844 322.213C329.807 322.048 330.849 322.529 331.335 323.379C331.876 324.272 331.758 325.511 331.035 326.273C330.345 327.054 329.132 327.278 328.195 326.836C327.342 326.451 326.747 325.53 326.804 324.589C326.758 323.432 327.711 322.377 328.844 322.213Z" fill="#2A2651"/>
<path fill-rule="evenodd" clip-rule="evenodd" d="M376.279 322.987C377.274 322.722 378.362 323.561 378.336 324.592C378.413 325.621 377.342 326.503 376.346 326.272C375.631 326.153 375.046 325.52 374.987 324.801C374.885 323.984 375.466 323.153 376.279 322.987Z" fill="#2A2651"/>
<path fill-rule="evenodd" clip-rule="evenodd" d="M290.789 323.077C291.735 322.74 292.87 323.469 292.904 324.481C293.018 325.388 292.231 326.273 291.313 326.245C290.505 326.288 289.741 325.628 289.673 324.825C289.558 324.073 290.061 323.291 290.789 323.077Z" fill="#2A2651"/>
<path fill-rule="evenodd" clip-rule="evenodd" d="M186.521 323.409C187.435 323.041 188.47 323.986 188.195 324.927C188.019 325.854 186.728 326.236 186.068 325.568C185.352 324.969 185.622 323.669 186.521 323.409Z" fill="#2A2651"/>
<path fill-rule="evenodd" clip-rule="evenodd" d="M310.022 323.955C310.488 323.776 311.035 324.194 310.96 324.693C310.954 325.229 310.243 325.523 309.837 325.194C309.387 324.892 309.496 324.108 310.022 323.955Z" fill="#2A2651"/>
<path fill-rule="evenodd" clip-rule="evenodd" d="M347.948 324.164C348.251 323.983 348.736 324.2 348.711 324.582C348.797 325.008 348.235 325.306 347.907 325.055C347.586 324.854 347.603 324.326 347.948 324.164Z" fill="#2A2651"/>
<path fill-rule="evenodd" clip-rule="evenodd" d="M167.833 324.286C168.276 324.077 168.565 324.845 168.09 324.975C167.657 325.144 167.398 324.428 167.833 324.286Z" fill="#2A2651"/>
<path fill-rule="evenodd" clip-rule="evenodd" d="M177.218 324.486C177.385 324.363 177.647 324.339 177.712 324.591C177.689 324.852 177.448 324.865 177.247 324.812C177.239 324.73 177.225 324.568 177.218 324.486Z" fill="#2A2651"/>
<path fill-rule="evenodd" clip-rule="evenodd" d="M215.27 324.373C215.492 324.203 215.81 324.546 215.651 324.77C215.556 324.996 215.29 324.858 215.117 324.837C215.159 324.683 215.081 324.442 215.27 324.373Z" fill="#2A2651"/>
<path fill-rule="evenodd" clip-rule="evenodd" d="M281.558 324.457C281.687 324.437 281.943 324.301 282.001 324.501C282.158 324.736 281.803 324.985 281.622 324.787C281.605 324.704 281.575 324.539 281.558 324.457Z" fill="#2A2651"/>
<path fill-rule="evenodd" clip-rule="evenodd" d="M243.145 329.711C244.993 329.388 246.963 330.371 247.806 332.043C248.741 333.792 248.313 336.134 246.795 337.422C245.261 338.814 242.737 338.888 241.125 337.588C239.489 336.371 238.946 333.965 239.859 332.153C240.468 330.868 241.737 329.927 243.145 329.711Z" fill="#2A2651"/>
<path fill-rule="evenodd" clip-rule="evenodd" d="M252.555 329.829C253.709 329.635 254.949 329.878 255.894 330.584C257.436 331.663 258.092 333.8 257.427 335.557C256.809 337.375 254.865 338.609 252.953 338.398C251.181 338.272 249.59 336.926 249.153 335.213C248.84 334.039 249.035 332.734 249.709 331.719C250.347 330.737 251.402 330.041 252.555 329.829Z" fill="#2A2651"/>
<path fill-rule="evenodd" clip-rule="evenodd" d="M309.828 330.493C310.932 330.361 312.083 330.757 312.86 331.557C313.944 332.638 314.195 334.424 313.476 335.771C313.026 336.627 312.222 337.291 311.289 337.561C310.03 337.94 308.583 337.575 307.668 336.629C306.579 335.556 306.315 333.771 307.034 332.425C307.569 331.372 308.65 330.621 309.828 330.493Z" fill="#2A2651"/>
<path fill-rule="evenodd" clip-rule="evenodd" d="M271.558 330.923C272.4 330.731 273.323 330.864 274.054 331.335C274.987 331.907 275.582 332.978 275.576 334.071C275.585 334.957 275.214 335.837 274.568 336.446C273.762 337.224 272.535 337.535 271.457 337.225C270.618 337.011 269.892 336.435 269.472 335.686C269.033 334.904 268.935 333.943 269.21 333.091C269.54 332.025 270.468 331.17 271.558 330.923Z" fill="#2A2651"/>
<path fill-rule="evenodd" clip-rule="evenodd" d="M291.035 331.37C292.052 331.265 293.099 331.791 293.624 332.667C294.035 333.321 294.11 334.149 293.905 334.886C293.601 335.926 292.619 336.717 291.539 336.806C290.504 336.913 289.435 336.37 288.925 335.464C288.41 334.605 288.436 333.464 288.978 332.625C289.413 331.91 290.205 331.449 291.035 331.37Z" fill="#2A2651"/>
<path fill-rule="evenodd" clip-rule="evenodd" d="M224.695 332.474C225.62 332.334 226.546 333.136 226.51 334.076C226.557 334.959 225.747 335.755 224.865 335.715C223.914 335.734 223.103 334.785 223.275 333.853C223.369 333.141 223.978 332.544 224.695 332.474Z" fill="#2A2651"/>
<path fill-rule="evenodd" clip-rule="evenodd" d="M196.032 332.896C196.843 332.577 197.8 333.331 197.671 334.192C197.667 335.151 196.39 335.706 195.663 335.093C194.862 334.54 195.082 333.148 196.032 332.896Z" fill="#2A2651"/>
<path fill-rule="evenodd" clip-rule="evenodd" d="M347.749 333.14C348.359 332.824 349.197 333.273 349.242 333.965C349.322 334.464 348.974 334.965 348.493 335.097C347.899 335.292 347.197 334.822 347.16 334.201C347.106 333.768 347.343 333.315 347.749 333.14Z" fill="#2A2651"/>
<path fill-rule="evenodd" clip-rule="evenodd" d="M205.765 333.449C206.282 333.293 206.777 333.925 206.498 334.385C206.299 334.861 205.519 334.854 205.324 334.38C205.131 334.019 205.363 333.524 205.765 333.449Z" fill="#2A2651"/>
<path fill-rule="evenodd" clip-rule="evenodd" d="M234.302 333.569C234.729 333.483 235.069 334.04 234.803 334.384C234.595 334.743 233.973 334.661 233.875 334.259C233.745 333.957 233.983 333.6 234.302 333.569Z" fill="#2A2651"/>
<path fill-rule="evenodd" clip-rule="evenodd" d="M366.967 333.547C367.37 333.387 367.841 333.761 367.743 334.191C367.686 334.533 367.274 334.775 366.957 334.621C366.477 334.474 366.493 333.689 366.967 333.547Z" fill="#2A2651"/>
<path fill-rule="evenodd" clip-rule="evenodd" d="M158.359 333.802C158.582 333.665 158.875 333.945 158.776 334.18C158.742 334.468 158.219 334.468 158.198 334.178C158.152 334.023 158.208 333.865 158.359 333.802Z" fill="#2A2651"/>
<path fill-rule="evenodd" clip-rule="evenodd" d="M186.77 333.892C186.921 333.826 187.194 333.835 187.166 334.07C187.218 334.279 186.993 334.331 186.836 334.318C186.676 334.221 186.696 334.031 186.77 333.892Z" fill="#2A2651"/>
<path fill-rule="evenodd" clip-rule="evenodd" d="M215.264 334.279C215.072 334.187 215.165 333.85 215.368 333.86C215.523 333.807 215.589 334.015 215.701 334.09C215.577 334.201 215.453 334.426 215.264 334.279Z" fill="#2A2651"/>
<path fill-rule="evenodd" clip-rule="evenodd" d="M281.647 333.91C281.903 333.667 282.215 334.154 281.907 334.293C281.659 334.461 281.451 334.049 281.647 333.91Z" fill="#2A2651"/>
<path fill-rule="evenodd" clip-rule="evenodd" d="M319.645 333.992C319.776 333.833 320.006 334.074 319.87 334.212C319.734 334.35 319.489 334.125 319.645 333.992Z" fill="#2A2651"/>
<path fill-rule="evenodd" clip-rule="evenodd" d="M300.127 341.091C300.64 340.227 301.992 340.102 302.665 340.843C303.291 341.453 303.272 342.569 302.62 343.154C302.161 343.605 301.456 343.694 300.861 343.496C300.825 343.548 300.754 343.654 300.718 343.707C300.709 343.63 300.693 343.478 300.684 343.402C299.895 342.953 299.612 341.844 300.127 341.091Z" fill="#2A2651"/>
<path fill-rule="evenodd" clip-rule="evenodd" d="M243.703 342.833C244.187 342.706 244.687 343.185 244.58 343.676C244.518 344.227 243.75 344.507 243.363 344.093C242.917 343.728 243.134 342.923 243.703 342.833Z" fill="#2A2651"/>
<path fill-rule="evenodd" clip-rule="evenodd" d="M205.78 343.261C205.941 343.217 206.188 343.253 206.21 343.463C206.328 343.73 205.917 344.017 205.719 343.797C205.534 343.658 205.567 343.358 205.78 343.261Z" fill="#2A2651"/>
<path fill-rule="evenodd" clip-rule="evenodd" d="M253.005 343.4C253.119 343.087 253.652 343.132 253.702 343.467C253.751 343.636 253.619 343.772 253.536 343.904C253.439 343.903 253.245 343.901 253.149 343.9C253.056 343.751 252.897 343.581 253.005 343.4Z" fill="#2A2651"/>
<path fill-rule="evenodd" clip-rule="evenodd" d="M290.926 343.629C290.827 343.28 291.352 343.011 291.569 343.319C291.747 343.511 291.6 343.766 291.451 343.926C291.245 343.891 290.955 343.893 290.926 343.629Z" fill="#2A2651"/>
<path fill-rule="evenodd" clip-rule="evenodd" d="M196.254 343.372C196.329 343.366 196.48 343.353 196.555 343.347C196.734 343.449 196.678 343.802 196.442 343.782C196.231 343.821 196.102 343.517 196.254 343.372Z" fill="#2A2651"/>
<path fill-rule="evenodd" clip-rule="evenodd" d="M224.806 343.465C224.978 343.4 225.04 343.462 224.992 343.65C224.815 343.709 224.752 343.647 224.806 343.465Z" fill="#2A2651"/>
<path fill-rule="evenodd" clip-rule="evenodd" d="M271.964 321.765C272.824 321.559 273.76 322.179 273.886 323.056C274.072 323.962 273.318 324.92 272.384 324.924C271.522 324.999 270.701 324.252 270.712 323.387C270.651 322.632 271.221 321.902 271.964 321.765Z" fill="#2A2651"/>
<path fill-rule="evenodd" clip-rule="evenodd" d="M238.262 314.661C238.506 314.562 238.862 314.587 238.985 314.862C239.251 315.249 238.768 315.806 238.342 315.61C237.932 315.49 237.892 314.853 238.262 314.661Z" fill="#2A2651"/>
<path fill-rule="evenodd" clip-rule="evenodd" d="M230.388 314.752C230.733 314.522 231.179 314.986 230.96 315.325C230.813 315.612 230.345 315.613 230.219 315.311C230.095 315.119 230.195 314.85 230.388 314.752Z" fill="#2A2651"/>
<path fill-rule="evenodd" clip-rule="evenodd" d="M287.981 314.447C288.248 314.32 288.653 314.404 288.745 314.722C288.921 315.114 288.451 315.577 288.058 315.389C287.649 315.265 287.612 314.64 287.981 314.447Z" fill="#2A2651"/>
<path fill-rule="evenodd" clip-rule="evenodd" d="M297.608 314.55C297.89 314.431 298.19 314.751 298.082 315.031C297.985 315.346 297.469 315.348 297.388 315.023C297.287 314.834 297.436 314.626 297.608 314.55Z" fill="#2A2651"/>
<path fill-rule="evenodd" clip-rule="evenodd" d="M223.901 322.723C224.711 322.404 225.669 323.158 225.539 324.019C225.536 324.978 224.259 325.533 223.531 324.919C222.731 324.367 222.951 322.974 223.901 322.723Z" fill="#2A2651"/>
<path fill-rule="evenodd" clip-rule="evenodd" d="M230.977 323.135C231.494 322.98 231.989 323.612 231.71 324.072C231.511 324.548 230.731 324.541 230.536 324.067C230.343 323.706 230.575 323.21 230.977 323.135Z" fill="#2A2651"/>
<path fill-rule="evenodd" clip-rule="evenodd" d="M238.099 322.461C238.736 322.12 239.606 322.677 239.498 323.409C239.496 324.198 238.397 324.592 237.865 324.036C237.366 323.606 237.51 322.734 238.099 322.461Z" fill="#2A2651"/>
<path fill-rule="evenodd" clip-rule="evenodd" d="M262.441 322.138C263.252 321.819 264.209 322.572 264.08 323.434C264.077 324.393 262.799 324.948 262.072 324.334C261.271 323.781 261.491 322.389 262.441 322.138Z" fill="#2A2651"/>
<path fill-rule="evenodd" clip-rule="evenodd" d="M244.863 322.376C245.338 322.279 245.743 322.834 245.525 323.262C245.364 323.657 244.768 323.752 244.495 323.423C244.144 323.086 244.375 322.418 244.863 322.376Z" fill="#2A2651"/>
<path fill-rule="evenodd" clip-rule="evenodd" d="M254.238 322.683C254.633 322.401 255.059 323.091 254.623 323.309C254.234 323.588 253.831 322.91 254.238 322.683Z" fill="#2A2651"/>
</g>
<defs>
<linearGradient id="paint0_linear_391_851" x1="187" y1="236.341" x2="313.921" y2="236.341" gradientUnits="userSpaceOnUse">
<stop stop-color="#107BB7"/>
<stop offset="1" stop-color="#39B6C0"/>
</linearGradient>
<clipPath id="clip0_391_851">
<rect width="384" height="209" fill="white" transform="translate(63 144)"/>
</clipPath>
</defs>
</svg>
