<svg width="127" height="26" viewBox="0 0 127 26" fill="none" xmlns="http://www.w3.org/2000/svg">
<path fill-rule="evenodd" clip-rule="evenodd" d="M0 9.01548L2.41969 4.76074H7.0409L4.62266 9.01186L9.08492 16.7068L14.9007 16.6576L18.9695 9.64141L21.3027 13.5876L21.2989 13.5939L17.2114 20.6427L9.07548 20.7099L9.07185 20.7042L6.78949 20.723L0 9.01548Z" fill="url(#paint0_linear_65_862)"/>
<path fill-rule="evenodd" clip-rule="evenodd" d="M24.4065 0L26.9087 4.18246L24.588 8.13747L22.0882 3.95788H13.1249L10.2472 8.95968L14.3337 15.9242L9.71486 15.9622L9.71121 15.9558L5.60593 8.95896L9.63185 1.96287H9.63897L10.7688 0H24.4065Z" fill="url(#paint1_linear_65_862)"/>
<path fill-rule="evenodd" clip-rule="evenodd" d="M25.7532 11.7572L25.7566 11.7507L21.6384 4.76074H13.4809H13.4729L11.2119 8.75069H19.3326L22.2774 13.7476L17.8246 21.4531L12.9269 21.4937L15.2327 25.4836L20.1331 25.4423L26.9086 13.7184L25.7532 11.7572Z" fill="url(#paint2_linear_65_862)"/>
<path d="M33.7327 21.779C34.2769 21.779 34.7247 21.6 35.0553 21.2697L34.8073 20.9325C34.5455 21.2009 34.1598 21.3523 33.7809 21.3523C33.0645 21.3523 32.6236 20.8292 32.5823 20.2029H35.2757V20.0722C35.2757 19.0743 34.6833 18.2897 33.6776 18.2897C32.7269 18.2897 32.0381 19.0674 32.0381 20.0309C32.0381 21.0701 32.7476 21.779 33.7327 21.779ZM34.766 19.8244H32.5823C32.6098 19.3151 32.9612 18.7164 33.6707 18.7164C34.4284 18.7164 34.7591 19.3289 34.766 19.8244Z" fill="#F1F3F7"/>
<path d="M37.9794 21.6964L39.364 18.3723H38.7991L37.6969 21.0976L36.5879 18.3723H36.0299L37.4145 21.6964H37.9794Z" fill="#F1F3F7"/>
<path d="M41.7697 21.779C42.7824 21.779 43.4161 20.9944 43.4161 20.0309C43.4161 19.0674 42.7824 18.2897 41.7697 18.2897C40.7571 18.2897 40.1233 19.0674 40.1233 20.0309C40.1233 20.9944 40.7571 21.779 41.7697 21.779ZM41.7697 21.3179C41.0602 21.3179 40.6607 20.7122 40.6607 20.0309C40.6607 19.3564 41.0602 18.7508 41.7697 18.7508C42.4793 18.7508 42.8719 19.3564 42.8719 20.0309C42.8719 20.7122 42.4793 21.3179 41.7697 21.3179Z" fill="#F1F3F7"/>
<path d="M45.1883 21.6964V17.1059H44.6717V21.6964H45.1883Z" fill="#F1F3F7"/>
<path d="M49.3946 21.6964V18.3723H48.8779V20.8155C48.6851 21.0839 48.2993 21.3179 47.8929 21.3179C47.4451 21.3179 47.1489 21.1458 47.1489 20.5608V18.3723H46.6322V20.7191C46.6322 21.4417 46.9973 21.779 47.6931 21.779C48.1891 21.779 48.6231 21.5174 48.8779 21.2284V21.6964H49.3946Z" fill="#F1F3F7"/>
<path d="M51.6801 21.779C51.9832 21.779 52.1692 21.6895 52.3001 21.5656L52.1485 21.1802C52.0796 21.2559 51.9419 21.3179 51.7972 21.3179C51.5699 21.3179 51.4597 21.1389 51.4597 20.8912V18.8265H52.1348V18.3723H51.4597V17.4638H50.943V18.3723H50.3919V18.8265H50.943V21.0013C50.943 21.4968 51.191 21.779 51.6801 21.779Z" fill="#F1F3F7"/>
<path d="M53.5328 17.8974C53.7256 17.8974 53.8841 17.746 53.8841 17.5533C53.8841 17.3606 53.7256 17.2023 53.5328 17.2023C53.3468 17.2023 53.1883 17.3606 53.1883 17.5533C53.1883 17.746 53.3468 17.8974 53.5328 17.8974ZM53.7945 21.6964V18.3723H53.2779V21.6964H53.7945Z" fill="#F1F3F7"/>
<path d="M56.692 21.779C57.7046 21.779 58.3383 20.9944 58.3383 20.0309C58.3383 19.0674 57.7046 18.2897 56.692 18.2897C55.6793 18.2897 55.0456 19.0674 55.0456 20.0309C55.0456 20.9944 55.6793 21.779 56.692 21.779ZM56.692 21.3179C55.9824 21.3179 55.5829 20.7122 55.5829 20.0309C55.5829 19.3564 55.9824 18.7508 56.692 18.7508C57.4015 18.7508 57.7941 19.3564 57.7941 20.0309C57.7941 20.7122 57.4015 21.3179 56.692 21.3179Z" fill="#F1F3F7"/>
<path d="M62.3562 21.6964V19.3633C62.3562 18.6407 61.9911 18.2897 61.2954 18.2897C60.7994 18.2897 60.3448 18.5787 60.1105 18.854V18.3723H59.5939V21.6964H60.1105V19.267C60.3034 18.9985 60.6892 18.7508 61.0956 18.7508C61.5434 18.7508 61.8396 18.9366 61.8396 19.5216V21.6964H62.3562Z" fill="#F1F3F7"/>
<path d="M67.4441 21.779C68.4568 21.779 69.0905 20.9944 69.0905 20.0309C69.0905 19.0674 68.4568 18.2897 67.4441 18.2897C66.4315 18.2897 65.7978 19.0674 65.7978 20.0309C65.7978 20.9944 66.4315 21.779 67.4441 21.779ZM67.4441 21.3179C66.7346 21.3179 66.3351 20.7122 66.3351 20.0309C66.3351 19.3564 66.7346 18.7508 67.4441 18.7508C68.1537 18.7508 68.5463 19.3564 68.5463 20.0309C68.5463 20.7122 68.1537 21.3179 67.4441 21.3179Z" fill="#F1F3F7"/>
<path d="M71.0074 21.6964V18.8265H71.6825V18.3723H71.0074V18.1176C71.0074 17.6978 71.1934 17.4638 71.5309 17.4638C71.7031 17.4638 71.834 17.5326 71.9442 17.629L72.1578 17.2918C71.9511 17.099 71.7169 17.0371 71.4552 17.0371C70.8627 17.0371 70.4907 17.4363 70.4907 18.1176V18.3723H69.9396V18.8265H70.4907V21.6964H71.0074Z" fill="#F1F3F7"/>
<path d="M74.7136 22.9971C74.81 23.0247 74.9822 23.0453 75.0925 23.0453C75.5333 23.0384 75.8709 22.8526 76.0706 22.3708L77.7377 18.3723H77.1728L76.0706 21.0976L74.9616 18.3723H74.4036L75.7951 21.7308L75.5747 22.2332C75.4576 22.5085 75.306 22.5842 75.0787 22.5842C74.996 22.5842 74.872 22.5635 74.7962 22.5291L74.7136 22.9971Z" fill="#F1F3F7"/>
<path d="M80.1434 21.779C81.1561 21.779 81.7898 20.9944 81.7898 20.0309C81.7898 19.0674 81.1561 18.2897 80.1434 18.2897C79.1308 18.2897 78.4971 19.0674 78.4971 20.0309C78.4971 20.9944 79.1308 21.779 80.1434 21.779ZM80.1434 21.3179C79.4339 21.3179 79.0344 20.7122 79.0344 20.0309C79.0344 19.3564 79.4339 18.7508 80.1434 18.7508C80.853 18.7508 81.2456 19.3564 81.2456 20.0309C81.2456 20.7122 80.853 21.3179 80.1434 21.3179Z" fill="#F1F3F7"/>
<path d="M85.8077 21.6964V18.3723H85.2911V20.8155C85.0982 21.0839 84.7124 21.3179 84.306 21.3179C83.8582 21.3179 83.562 21.1458 83.562 20.5608V18.3723H83.0454V20.7191C83.0454 21.4417 83.4105 21.779 84.1062 21.779C84.6022 21.779 85.0362 21.5174 85.2911 21.2284V21.6964H85.8077Z" fill="#F1F3F7"/>
<path d="M87.7695 21.6964V19.3427C87.921 19.0743 88.355 18.8127 88.6719 18.8127C88.7545 18.8127 88.8165 18.8196 88.8785 18.8334V18.3034C88.4239 18.3034 88.0381 18.5581 87.7695 18.9091V18.3723H87.2528V21.6964H87.7695Z" fill="#F1F3F7"/>
<path d="M92.6459 20.7948V19.2876C92.825 18.9985 93.2314 18.7508 93.6378 18.7508C94.3129 18.7508 94.7125 19.3014 94.7125 20.0378C94.7125 20.7742 94.3129 21.3179 93.6378 21.3179C93.2314 21.3179 92.825 21.0839 92.6459 20.7948ZM92.6459 21.6964V21.2009C92.8939 21.5381 93.3003 21.779 93.7687 21.779C94.6367 21.779 95.2498 21.1183 95.2498 20.0378C95.2498 18.9779 94.6367 18.2897 93.7687 18.2897C93.3141 18.2897 92.9145 18.5099 92.6459 18.8747V17.1059H92.1292V21.6964H92.6459Z" fill="#F1F3F7"/>
<path d="M99.2672 21.6964V18.3723H98.7505V20.8155C98.5577 21.0839 98.1719 21.3179 97.7655 21.3179C97.3177 21.3179 97.0215 21.1458 97.0215 20.5608V18.3723H96.5048V20.7191C96.5048 21.4417 96.8699 21.779 97.5657 21.779C98.0617 21.779 98.4957 21.5174 98.7505 21.2284V21.6964H99.2672Z" fill="#F1F3F7"/>
<path d="M101.766 21.779C102.627 21.779 103.075 21.3316 103.075 20.7742C103.075 19.4803 101.015 19.9621 101.015 19.2325C101.015 18.9366 101.298 18.7095 101.752 18.7095C102.18 18.7095 102.545 18.8884 102.744 19.1293L102.986 18.7714C102.717 18.503 102.317 18.2897 101.752 18.2897C100.96 18.2897 100.513 18.7301 100.513 19.2463C100.513 20.4782 102.572 19.9827 102.572 20.7879C102.572 21.1183 102.297 21.3592 101.787 21.3592C101.332 21.3592 100.912 21.1389 100.692 20.8843L100.423 21.2559C100.761 21.6138 101.222 21.779 101.766 21.779Z" fill="#F1F3F7"/>
<path d="M104.583 17.8974C104.776 17.8974 104.934 17.746 104.934 17.5533C104.934 17.3606 104.776 17.2023 104.583 17.2023C104.397 17.2023 104.238 17.3606 104.238 17.5533C104.238 17.746 104.397 17.8974 104.583 17.8974ZM104.844 21.6964V18.3723H104.328V21.6964H104.844Z" fill="#F1F3F7"/>
<path d="M109.051 21.6964V19.3633C109.051 18.6407 108.686 18.2897 107.99 18.2897C107.494 18.2897 107.039 18.5787 106.805 18.854V18.3723H106.288V21.6964H106.805V19.267C106.998 18.9985 107.384 18.7508 107.79 18.7508C108.238 18.7508 108.534 18.9366 108.534 19.5216V21.6964H109.051Z" fill="#F1F3F7"/>
<path d="M111.997 21.779C112.542 21.779 112.989 21.6 113.32 21.2697L113.072 20.9325C112.81 21.2009 112.425 21.3523 112.046 21.3523C111.329 21.3523 110.888 20.8292 110.847 20.2029H113.541V20.0722C113.541 19.0743 112.948 18.2897 111.942 18.2897C110.992 18.2897 110.303 19.0674 110.303 20.0309C110.303 21.0701 111.012 21.779 111.997 21.779ZM113.031 19.8244H110.847C110.875 19.3151 111.226 18.7164 111.935 18.7164C112.693 18.7164 113.024 19.3289 113.031 19.8244Z" fill="#F1F3F7"/>
<path d="M115.845 21.779C116.706 21.779 117.153 21.3316 117.153 20.7742C117.153 19.4803 115.094 19.9621 115.094 19.2325C115.094 18.9366 115.376 18.7095 115.831 18.7095C116.258 18.7095 116.623 18.8884 116.823 19.1293L117.064 18.7714C116.795 18.503 116.396 18.2897 115.831 18.2897C115.039 18.2897 114.591 18.7301 114.591 19.2463C114.591 20.4782 116.651 19.9827 116.651 20.7879C116.651 21.1183 116.375 21.3592 115.865 21.3592C115.411 21.3592 114.99 21.1389 114.77 20.8843L114.501 21.2559C114.839 21.6138 115.3 21.779 115.845 21.779Z" fill="#F1F3F7"/>
<path d="M119.46 21.779C120.321 21.779 120.769 21.3316 120.769 20.7742C120.769 19.4803 118.709 19.9621 118.709 19.2325C118.709 18.9366 118.992 18.7095 119.446 18.7095C119.873 18.7095 120.238 18.8884 120.438 19.1293L120.679 18.7714C120.411 18.503 120.011 18.2897 119.446 18.2897C118.654 18.2897 118.206 18.7301 118.206 19.2463C118.206 20.4782 120.266 19.9827 120.266 20.7879C120.266 21.1183 119.991 21.3592 119.481 21.3592C119.026 21.3592 118.606 21.1389 118.385 20.8843L118.117 21.2559C118.454 21.6138 118.916 21.779 119.46 21.779Z" fill="#F1F3F7"/>
<path d="M42.7498 14.1688L45.2814 5.85846H43.0082L41.4582 11.4503L39.6327 5.85846H37.6867L35.8612 11.4503L34.3113 5.85846H32.038L34.5696 14.1688H36.9117L38.6683 8.50812L40.4249 14.1688H42.7498Z" fill="white"/>
<path d="M50.6124 14.3752C51.9041 14.3752 53.2129 13.9795 54.0395 13.2225L53.0751 11.8116C52.5413 12.3278 51.5596 12.6375 50.8535 12.6375C49.4414 12.6375 48.5975 11.76 48.4597 10.7104H54.6423V10.2287C54.6423 7.5102 52.9546 5.65199 50.4747 5.65199C47.9431 5.65199 46.1693 7.59622 46.1693 10.005C46.1693 12.6719 48.0809 14.3752 50.6124 14.3752ZM52.524 9.23076H48.4253C48.5286 8.40489 49.1142 7.38976 50.4747 7.38976C51.9213 7.38976 52.4724 8.4393 52.524 9.23076Z" fill="white"/>
<path d="M58.7537 11.5019V8.55974C59.1153 8.00916 59.9247 7.59622 60.6308 7.59622C61.9052 7.59622 62.7491 8.57694 62.7491 10.0222C62.7491 11.4675 61.9052 12.431 60.6308 12.431C59.9247 12.431 59.1153 12.0353 58.7537 11.5019ZM58.7537 14.1688V13.102C59.4081 13.9279 60.3208 14.3752 61.3197 14.3752C63.4207 14.3752 65.0051 12.7923 65.0051 10.0222C65.0051 7.30373 63.4379 5.65199 61.3197 5.65199C60.3381 5.65199 59.4081 6.08213 58.7537 6.92521V2.69263H56.5665V14.1688H58.7537Z" fill="white"/>
<path d="M70.8594 14.3752C73.6148 14.3752 75.2681 12.3794 75.2681 10.005C75.2681 7.64784 73.6148 5.65199 70.8594 5.65199C68.1211 5.65199 66.4679 7.64784 66.4679 10.005C66.4679 12.3794 68.1211 14.3752 70.8594 14.3752ZM70.8594 12.431C69.4989 12.431 68.7411 11.3126 68.7411 10.005C68.7411 8.71459 69.4989 7.59622 70.8594 7.59622C72.2199 7.59622 72.9948 8.71459 72.9948 10.005C72.9948 11.3126 72.2199 12.431 70.8594 12.431Z" fill="white"/>
<path d="M79.4222 14.1688V2.69263H77.2351V14.1688H79.4222Z" fill="white"/>
<path d="M89.7368 14.1688V5.85846H87.5496V11.4847C87.1707 11.9664 86.4991 12.431 85.6553 12.431C84.7253 12.431 84.1225 12.0525 84.1225 10.8997V5.85846H81.9354V11.76C81.9354 13.3773 82.7965 14.3752 84.622 14.3752C85.9825 14.3752 86.9813 13.7558 87.5496 13.1192V14.1688H89.7368Z" fill="white"/>
<path d="M95.0428 14.3752C95.9555 14.3752 96.541 14.1344 96.8682 13.8419L96.4033 12.1901C96.2827 12.3106 95.9727 12.431 95.6455 12.431C95.1633 12.431 94.8878 12.0353 94.8878 11.5191V7.76828H96.5755V5.85846H94.8878V3.58732H92.6834V5.85846H91.3057V7.76828H92.6834V12.1041C92.6834 13.5838 93.51 14.3752 95.0428 14.3752Z" fill="white"/>
<path d="M99.5013 4.96377C100.225 4.96377 100.81 4.37878 100.81 3.65614C100.81 2.93351 100.225 2.36572 99.5013 2.36572C98.7952 2.36572 98.1924 2.93351 98.1924 3.65614C98.1924 4.37878 98.7952 4.96377 99.5013 4.96377ZM100.603 14.1688V5.85846H98.4163V14.1688H100.603Z" fill="white"/>
<path d="M106.974 14.3752C109.73 14.3752 111.383 12.3794 111.383 10.005C111.383 7.64784 109.73 5.65199 106.974 5.65199C104.236 5.65199 102.583 7.64784 102.583 10.005C102.583 12.3794 104.236 14.3752 106.974 14.3752ZM106.974 12.431C105.614 12.431 104.856 11.3126 104.856 10.005C104.856 8.71459 105.614 7.59622 106.974 7.59622C108.335 7.59622 109.11 8.71459 109.11 10.005C109.11 11.3126 108.335 12.431 106.974 12.431Z" fill="white"/>
<path d="M121.151 14.1688V8.30165C121.151 6.68433 120.273 5.65199 118.448 5.65199C117.087 5.65199 116.071 6.3058 115.537 6.94241V5.85846H113.35V14.1688H115.537V8.57694C115.899 8.07798 116.57 7.59622 117.431 7.59622C118.361 7.59622 118.964 7.99195 118.964 9.14473V14.1688H121.151Z" fill="white"/>
<g clip-path="url(#clip0_65_862)">
<path d="M126.999 4.47972L126.995 4.42947C126.992 4.39547 126.989 4.36124 126.985 4.32823C126.941 3.91043 126.799 3.52577 126.564 3.18525C126.214 2.67833 125.735 2.33793 125.139 2.1736C124.979 2.12922 124.81 2.10219 124.636 2.09315L124.609 2.08887L124.378 2.08911L124.224 2.10366C123.914 2.13655 123.62 2.22459 123.35 2.36544C122.799 2.65436 122.4 3.0927 122.165 3.66846C122.074 3.89344 122.017 4.13345 121.997 4.38007C121.993 4.41369 121.99 4.44719 121.987 4.48559L121.987 4.71105L121.992 4.76069C121.995 4.79493 121.998 4.82929 122.002 4.86254C122.046 5.2785 122.187 5.66255 122.422 6.00393C122.723 6.44385 123.128 6.76126 123.627 6.94735C123.903 7.05018 124.188 7.10227 124.475 7.10227C124.523 7.10227 124.571 7.1008 124.619 7.09799C125.345 7.05471 125.951 6.75062 126.422 6.19381C126.708 5.85537 126.89 5.45763 126.964 5.01257C126.974 4.95302 126.98 4.89287 126.986 4.83271C126.989 4.8008 126.992 4.76889 126.997 4.72572L127 4.71142L126.999 4.47972ZM124.498 2.47866L124.5 2.53967C125.632 2.54114 126.551 3.46427 126.55 4.59734C126.547 5.73029 125.625 6.65195 124.492 6.65195C123.943 6.65134 123.427 6.43688 123.039 6.04819C122.651 5.65962 122.437 5.14352 122.438 4.59526C122.439 3.46183 123.363 2.53967 124.498 2.53967V2.47866Z" fill="white"/>
<path d="M123.493 3.23828C123.486 3.23828 123.479 3.23914 123.469 3.24073L123.415 3.24696V6.08043H123.877V4.87278L124.055 4.87241C124.108 4.87241 124.161 4.87253 124.218 4.87326C124.272 4.874 124.328 4.87461 124.379 4.88378C124.466 4.89931 124.54 4.94345 124.599 5.01497C124.658 5.08724 124.735 5.18346 124.8 5.28715C124.921 5.47935 125.039 5.67376 125.157 5.86817L125.258 6.03421C125.267 6.04729 125.29 6.08214 125.341 6.08214H125.342C125.412 6.08165 125.482 6.08165 125.552 6.08165H125.726C125.733 6.08165 125.739 6.08104 125.754 6.07933L125.848 6.07138L125.803 5.98885C125.796 5.97625 125.79 5.96745 125.785 5.95987L125.686 5.79542C125.614 5.67657 125.543 5.55785 125.47 5.43974C125.391 5.31343 125.31 5.18285 125.222 5.05875C125.15 4.95555 125.07 4.87326 124.98 4.8092C125.005 4.80272 125.03 4.79575 125.055 4.78804C125.26 4.72336 125.41 4.60696 125.5 4.44165C125.631 4.19919 125.639 3.9406 125.521 3.67283C125.437 3.48037 125.299 3.35346 125.11 3.2955C124.987 3.25809 124.851 3.24036 124.681 3.23963C124.412 3.2384 124.144 3.23828 123.876 3.23828H123.493ZM123.877 4.4397V3.66219H124.142C124.327 3.66219 124.511 3.66243 124.695 3.66488C124.749 3.66561 124.808 3.67527 124.873 3.69373C125.023 3.73677 125.12 3.86222 125.124 4.02129C125.129 4.17926 125.072 4.29187 124.95 4.36573C124.892 4.40106 124.823 4.42124 124.732 4.42918C124.661 4.43542 124.587 4.43884 124.514 4.43933C124.42 4.43982 124.326 4.44006 124.232 4.44006L123.877 4.4397Z" fill="white"/>
</g>
<defs>
<linearGradient id="paint0_linear_65_862" x1="-0.0493174" y1="4.85082" x2="17.2313" y2="20.2091" gradientUnits="userSpaceOnUse">
<stop stop-color="#F97695"/>
<stop offset="1" stop-color="#FEDD44"/>
</linearGradient>
<linearGradient id="paint1_linear_65_862" x1="23.2332" y1="-0.897601" x2="10.3635" y2="16.1778" gradientUnits="userSpaceOnUse">
<stop stop-color="#4AB1FE"/>
<stop offset="1" stop-color="#07EBFE"/>
</linearGradient>
<linearGradient id="paint2_linear_65_862" x1="19.0483" y1="25.4706" x2="16.1376" y2="4.72309" gradientUnits="userSpaceOnUse">
<stop stop-color="#F3648A"/>
<stop offset="1" stop-color="#FF83D4"/>
</linearGradient>
<clipPath id="clip0_65_862">
<rect width="5.01316" height="5.0134" fill="white" transform="translate(121.987 2.08887)"/>
</clipPath>
</defs>
</svg>
