<svg width="59" height="25" viewBox="0 0 59 25" fill="none" xmlns="http://www.w3.org/2000/svg">
<path d="M25.1758 12.5001C25.1758 10.9624 24.8823 9.49568 24.3708 8.13525C24.2355 12.6131 19.6523 16.08 16.9615 18.3743H23.6968C24.6383 16.6225 25.1758 14.624 25.1758 12.5001ZM20.3066 2.64024C18.1741 0.991478 15.5003 0 12.5881 0C5.63595 0 0 5.59677 0 12.5001C0 19.4034 5.63595 25 12.5881 25C15.7716 25 18.6704 23.8172 20.8871 21.8815H11.7737L11.746 19.2238C17.2371 14.4834 20.6033 11.2776 20.6033 8.181C20.6033 7.03017 20.1618 5.57793 18.1753 5.57793C16.6023 5.57793 15.0849 6.48277 15.3607 10.2637H12.1601C11.3598 5.87992 13.7604 2.39965 18.3404 2.39965C19.0505 2.39965 19.7073 2.48382 20.3066 2.64024Z" fill="#A3C626"/>
<path d="M36.8511 8.63956H39.8285C39.9303 6.39068 39.1672 2.8269 34.2558 2.8269C30.6418 2.8269 28.0205 4.97544 28.0205 9.44829C28.0205 10.0549 28.0458 13.1884 28.0458 15.1343C28.0458 19.9869 31.4309 21.048 34.2811 21.048C35.9862 21.048 38.4546 20.6687 39.5996 19.4305V11.6974H34.0009V14.5026H36.4952V17.9144C34.6117 18.546 31.1761 18.7989 31.1761 14.5026V9.44829C31.1761 6.44088 32.576 5.40485 34.128 5.40485C35.7315 5.40485 36.8511 6.21358 36.8511 8.63956ZM58.9984 16.145C59.1254 9.22099 51.135 11.5203 51.2108 7.65395C51.2361 6.28959 52.127 5.40485 53.578 5.40485C55.1302 5.40485 56.0457 6.31467 56.0204 8.69044H58.9471C59.0236 6.54196 58.5147 2.87779 53.6798 2.87779C50.6766 2.87779 48.2083 4.3438 48.1571 7.60359C48.03 14.2495 56.0717 12.0764 55.9446 16.0948C55.8934 17.7373 54.6971 18.47 53.3486 18.47C51.7711 18.47 50.4984 17.5602 50.7531 14.831H47.8004C47.4698 18.4449 49.0733 21.0229 53.3233 21.0229C56.9113 21.0229 58.9471 19.0513 58.9984 16.145ZM45.5541 20.7949H42.5516V3.10508H45.5541V20.7949ZM45.5541 20.7949H42.5516V3.10508H45.5541V20.7949Z" fill="#434242"/>
</svg>
