<svg width="81" height="28" viewBox="0 0 81 28" fill="none" xmlns="http://www.w3.org/2000/svg">
<g clip-path="url(#clip0_235_10497)">
<path d="M34.7865 14.6187C34.7865 18.3746 31.8483 21.1423 28.2424 21.1423C24.6365 21.1423 21.6983 18.3746 21.6983 14.6187C21.6983 10.8364 24.6365 8.09521 28.2424 8.09521C31.8483 8.09521 34.7865 10.8364 34.7865 14.6187ZM31.9218 14.6187C31.9218 12.2717 30.2189 10.6658 28.2424 10.6658C26.266 10.6658 24.563 12.2717 24.563 14.6187C24.563 16.9423 26.266 18.5717 28.2424 18.5717C30.2189 18.5717 31.9218 16.9393 31.9218 14.6187Z" fill="#EA4335"/>
<path d="M48.9042 14.6187C48.9042 18.3746 45.966 21.1423 42.3601 21.1423C38.7542 21.1423 35.816 18.3746 35.816 14.6187C35.816 10.8393 38.7542 8.09521 42.3601 8.09521C45.966 8.09521 48.9042 10.8364 48.9042 14.6187ZM46.0395 14.6187C46.0395 12.2717 44.3366 10.6658 42.3601 10.6658C40.3836 10.6658 38.6807 12.2717 38.6807 14.6187C38.6807 16.9423 40.3836 18.5717 42.3601 18.5717C44.3366 18.5717 46.0395 16.9393 46.0395 14.6187Z" fill="#FBBC05"/>
<path d="M62.4336 8.48933V20.2011C62.4336 25.0187 59.5924 26.9864 56.2336 26.9864C53.0719 26.9864 51.1689 24.8717 50.4513 23.1423L52.9454 22.104C53.3895 23.1658 54.4777 24.4187 56.2307 24.4187C58.3807 24.4187 59.713 23.0923 59.713 20.5952V19.657H59.613C58.9719 20.4482 57.7366 21.1393 56.1777 21.1393C52.916 21.1393 49.9277 18.2982 49.9277 14.6423C49.9277 10.9599 52.916 8.09521 56.1777 8.09521C57.7336 8.09521 58.9689 8.78639 59.613 9.55404H59.713V8.49227H62.4336V8.48933ZM59.916 14.6423C59.916 12.3452 58.3836 10.6658 56.4336 10.6658C54.4572 10.6658 52.8013 12.3452 52.8013 14.6423C52.8013 16.9158 54.4572 18.5717 56.4336 18.5717C58.3836 18.5717 59.916 16.9158 59.916 14.6423Z" fill="#4285F4"/>
<path d="M66.9189 1.62451V20.7422H64.1248V1.62451H66.9189Z" fill="#34A853"/>
<path d="M77.8071 16.7656L80.0306 18.2479C79.313 19.3097 77.5836 21.1391 74.5954 21.1391C70.8895 21.1391 68.1218 18.2744 68.1218 14.6156C68.1218 10.7362 70.913 8.09204 74.2748 8.09204C77.6601 8.09204 79.3159 10.7862 79.8571 12.242L80.1542 12.9832L71.4336 16.595C72.1012 17.9038 73.1395 18.5715 74.5954 18.5715C76.0542 18.5715 77.0659 17.8538 77.8071 16.7656ZM70.963 14.4185L76.7924 11.9979C76.4718 11.1832 75.5071 10.6156 74.3718 10.6156C72.9159 10.6156 70.8895 11.9009 70.963 14.4185Z" fill="#EA4335"/>
<path d="M11.1219 12.9215V10.1539H20.4483C20.5395 10.6363 20.5866 11.2068 20.5866 11.8245C20.5866 13.901 20.0189 16.4686 18.1895 18.298C16.4101 20.151 14.1366 21.1392 11.1248 21.1392C5.54245 21.1392 0.848328 16.5921 0.848328 11.0098C0.848328 5.42743 5.54245 0.880371 11.1248 0.880371C14.213 0.880371 16.413 2.09214 18.066 3.67155L16.113 5.62449C14.9277 4.51272 13.3219 3.64802 11.1219 3.64802C7.04539 3.64802 3.85715 6.93331 3.85715 11.0098C3.85715 15.0863 7.04539 18.3715 11.1219 18.3715C13.766 18.3715 15.2719 17.3098 16.2366 16.3451C17.0189 15.5627 17.5336 14.4451 17.7366 12.9186L11.1219 12.9215Z" fill="#4285F4"/>
</g>
<defs>
<clipPath id="clip0_235_10497">
<rect width="80" height="27.0588" fill="white" transform="translate(0.742432 0.742188)"/>
</clipPath>
</defs>
</svg>
