<svg width="80" height="24" viewBox="0 0 80 24" fill="none" xmlns="http://www.w3.org/2000/svg">
<g clip-path="url(#clip0_235_10484)">
<path d="M76.2725 20.12C77.842 20.12 78.9537 19.8367 79.782 19.2263V16.4579C78.9319 17.0465 77.9073 17.417 76.4687 17.417C74.049 17.417 73.0463 15.5424 73.0463 12.5778C73.0463 9.46064 74.267 7.86936 76.4905 7.86936C77.7984 7.86936 79.0845 8.32713 79.7602 8.76309V5.88571C79.0409 5.49334 77.7984 5.20996 76.0981 5.20996C71.7602 5.20996 69.515 8.32713 69.515 12.6868C69.5368 17.4606 71.7384 20.12 76.2725 20.12ZM55.0627 18.8557V16.0873C54.0163 16.8067 52.2289 17.4388 50.594 17.4388C48.109 17.4388 47.1717 16.2617 47.0191 13.8639H55.2153V12.0764C55.2153 7.08462 53.0136 5.20996 49.6349 5.20996C45.4932 5.20996 43.5313 8.37072 43.5313 12.7086C43.5313 17.7004 45.9945 20.12 50.3106 20.12C52.4687 20.12 54.0599 19.5315 55.0627 18.8557ZM23.9564 5.47154V11.1391H19.4223V5.47154H16.0218V19.8367H19.4223V13.8421H23.9564V19.8367H27.3569V5.47154H23.9564ZM42.6812 17.1337H41.1771V5.47154H31.2806V6.69225C31.2806 10.2018 31.0627 14.7358 29.8638 17.1337H28.7738V23.1064H31.9128V19.8367H39.5204V23.1064H42.6594V17.1337H42.6812ZM65.8965 19.8367H69.7548L64.3052 12.0982L69.1008 5.47154H65.6785L60.8828 12.0982V5.47154H57.4823V19.8367H60.8828V12.774L65.8965 19.8367ZM49.5477 7.86936C51.2262 7.86936 51.7493 9.26446 51.7493 11.0737V11.3571H47.0191C47.1063 9.06827 47.9346 7.86936 49.5477 7.86936ZM37.7766 17.1337H32.9809C33.9182 14.9756 34.1798 11.0519 34.1798 8.56691V8.13094H37.7766V17.1337Z" fill="black"/>
<path d="M13.188 19.8365H9.72207V2.6812H8.17439C5.3406 2.6812 3.85831 4.09809 3.85831 6.21253C3.85831 8.61035 4.88283 9.72207 6.99728 11.139L8.74114 12.3161L3.72752 19.8365H0L4.51226 13.1226C1.91826 11.2698 0.457766 9.46049 0.457766 6.40872C0.457766 2.59401 3.11717 0 8.15259 0H13.1662L13.188 19.8365Z" fill="#FC3F1D"/>
</g>
<defs>
<clipPath id="clip0_235_10484">
<rect width="80" height="23.1063" fill="white"/>
</clipPath>
</defs>
</svg>
